<svg width="182" height="182" viewBox="0 0 182 182" fill="none" xmlns="http://www.w3.org/2000/svg">
<path d="M82.432 2.62974C81.872 3.82974 82.532 4.56975 83.702 4.86975C84.2686 5.02308 84.8386 5.16974 85.412 5.30974C90.992 6.73974 85.332 14.0897 81.042 9.78974C80.6086 9.34974 80.582 8.88641 80.962 8.39975C81.182 8.11975 81.452 8.04975 81.772 8.18975C82.2587 8.40975 82.6553 8.74308 82.962 9.18975C83.0551 9.32804 83.1849 9.43773 83.3367 9.50659C83.4886 9.57546 83.6566 9.60078 83.822 9.57975L84.692 9.45974C85.0468 9.41332 85.3723 9.23817 85.6065 8.96758C85.8407 8.69698 85.9674 8.34979 85.9624 7.99195C85.9575 7.6341 85.8213 7.29053 85.5797 7.0265C85.3381 6.76247 85.008 6.59636 84.652 6.55974C76.842 5.71974 80.802 -1.55026 86.402 1.09974C86.6622 1.22307 86.8702 1.43528 86.9891 1.69882C87.1081 1.96235 87.1304 2.26023 87.052 2.53974C86.892 3.08641 86.622 3.39641 86.242 3.46974C85.9287 3.52974 85.6987 3.41641 85.552 3.12974C85.0387 2.13641 84.2387 1.76974 83.152 2.02974C82.812 2.11641 82.572 2.31641 82.432 2.62974Z" fill="#5C6068"/>
<path d="M98.1005 2.51975L95.9805 2.22976C95.9124 2.2203 95.8498 2.18694 95.8041 2.13566C95.7583 2.08437 95.7322 2.01849 95.7305 1.94975V0.949754C95.7303 0.909009 95.7386 0.868677 95.755 0.831383C95.7715 0.79409 95.7955 0.760676 95.8257 0.733315C95.8559 0.705954 95.8915 0.685259 95.9303 0.672585C95.969 0.659911 96.01 0.655545 96.0505 0.65976L102.81 1.33975C102.886 1.34975 102.954 1.38886 103.001 1.44869C103.048 1.50853 103.069 1.58431 103.06 1.65976L102.92 2.86976C102.915 2.90913 102.901 2.94686 102.879 2.98061C102.858 3.01435 102.831 3.04339 102.798 3.0659C102.765 3.08842 102.728 3.10393 102.689 3.11147C102.65 3.11902 102.609 3.11843 102.57 3.10976L100.35 2.64976C100.312 2.64108 100.271 2.6405 100.232 2.64804C100.193 2.65559 100.156 2.6711 100.123 2.69361C100.09 2.71613 100.063 2.74516 100.041 2.77891C100.02 2.81265 100.006 2.85038 100 2.88976L98.9905 10.8698C98.981 10.9379 98.9477 11.0004 98.8964 11.0462C98.8451 11.092 98.7792 11.118 98.7105 11.1198L98.0205 11.1298C97.9789 11.1314 97.9374 11.1241 97.8989 11.1083C97.8604 11.0926 97.8258 11.0687 97.7973 11.0383C97.7689 11.008 97.7473 10.9719 97.734 10.9324C97.7208 10.893 97.7161 10.8511 97.7205 10.8098L98.3505 2.82976C98.3563 2.75594 98.3336 2.6827 98.2871 2.62506C98.2406 2.56742 98.1738 2.52974 98.1005 2.51975Z" fill="#5C6068"/>
<path d="M70.8299 10.7404C71.2099 8.43039 69.9999 5.48039 69.3799 3.30039C69.2799 2.95373 69.4099 2.77039 69.7699 2.75039L70.5499 2.71039C70.9566 2.69039 71.1999 2.88373 71.2799 3.29039L72.5099 9.43039C72.5958 9.85901 72.5921 10.3008 72.499 10.7279C72.406 11.155 72.2256 11.5582 71.9692 11.9123C71.7128 12.2663 71.386 12.5635 71.0092 12.7852C70.6325 13.0069 70.2139 13.1482 69.7799 13.2004L68.9899 13.2904C68.3228 13.3671 67.6505 13.1997 67.0972 12.8192C66.5439 12.4387 66.147 11.8708 65.9799 11.2204L64.2799 4.58039C64.1932 4.22039 64.3233 3.98039 64.6699 3.86039L64.9799 3.76039C65.1232 3.7136 65.2754 3.70048 65.4244 3.72208C65.5734 3.74367 65.7152 3.79939 65.8385 3.8848C65.9617 3.97021 66.0631 4.08297 66.1345 4.21413C66.2059 4.34529 66.2454 4.49124 66.2499 4.64039C66.3232 6.77372 66.7632 8.82373 67.5699 10.7904C67.6966 11.0904 67.9066 11.3071 68.1999 11.4404C68.8733 11.7537 69.5533 11.7671 70.2399 11.4804C70.5733 11.3404 70.7699 11.0937 70.8299 10.7404Z" fill="#5C6068"/>
<path d="M112.06 9.47968L111.7 11.3197C111.64 11.653 111.767 11.883 112.08 12.0097L115.42 13.3197C115.5 13.3463 115.533 13.4063 115.52 13.4997L115.46 13.9197C115.447 14.0089 115.414 14.0941 115.365 14.1699C115.316 14.2456 115.251 14.3102 115.174 14.3593C115.098 14.4084 115.012 14.4409 114.921 14.4548C114.831 14.4686 114.739 14.4635 114.65 14.4397L110.34 13.2597C110.193 13.2196 110.056 13.1503 109.937 13.056C109.818 12.9617 109.719 12.8442 109.646 12.7107C109.573 12.5772 109.528 12.4303 109.513 12.2789C109.498 12.1275 109.514 11.9747 109.56 11.8297L112.01 3.97968C112.103 3.67968 112.307 3.543 112.62 3.56967C114.173 3.703 115.383 3.98967 116.25 4.42967C118.77 5.71634 118.617 6.28967 115.79 6.14967C115.623 6.13634 115.043 5.87967 114.05 5.37967C113.972 5.33975 113.886 5.31636 113.799 5.31096C113.711 5.30556 113.623 5.31826 113.541 5.34828C113.458 5.3783 113.383 5.42499 113.319 5.48544C113.255 5.5459 113.204 5.61881 113.17 5.69967L112.59 7.10967C112.397 7.58967 112.55 7.88634 113.05 7.99967L115.78 8.61967C115.85 8.6344 115.916 8.66354 115.973 8.70529C116.031 8.74704 116.08 8.8005 116.117 8.86237C116.153 8.92425 116.177 8.99322 116.186 9.06499C116.195 9.13677 116.19 9.20984 116.17 9.27967L116.09 9.53967C116.065 9.62722 116.023 9.7089 115.966 9.77999C115.909 9.85108 115.838 9.91018 115.758 9.95388C115.678 9.99758 115.59 10.025 115.5 10.0346C115.409 10.0442 115.317 10.0357 115.23 10.0097L112.55 9.17967C112.277 9.09967 112.113 9.19968 112.06 9.47968Z" fill="#5C6068"/>
<path d="M53.2433 15.4301L54.5033 17.9801C54.5372 18.0459 54.5554 18.1188 54.5565 18.1928C54.5576 18.2669 54.5416 18.3402 54.5096 18.407C54.4777 18.4739 54.4307 18.5324 54.3723 18.578C54.314 18.6237 54.2459 18.6552 54.1733 18.6701L53.7933 18.7501C53.3333 18.8501 53.0033 18.6834 52.8033 18.2501L49.3333 10.5701C49.2565 10.3981 49.2446 10.2045 49.2999 10.0257C49.3552 9.84699 49.4738 9.69556 49.6333 9.60009C51.0533 8.75343 52.58 8.25676 54.2133 8.11009C54.5533 8.07676 54.8533 8.17009 55.1133 8.39009C56.6466 9.67676 57.0366 11.1501 56.2833 12.8101C56.1299 13.1368 56.1966 13.4068 56.4833 13.6201L59.1133 15.6201C59.5266 15.9334 59.4933 16.1934 59.0133 16.4001L58.6733 16.5401C58.1666 16.7601 57.7066 16.6868 57.2933 16.3201C56.0133 15.1868 55.1633 14.5201 54.7433 14.3201C54.1433 14.0268 53.66 14.1468 53.2933 14.6801C53.1266 14.9201 53.11 15.1701 53.2433 15.4301ZM51.3933 10.8601L52.1933 12.8701C52.2532 13.0171 52.3689 13.1344 52.5151 13.1962C52.6613 13.2581 52.8261 13.2595 52.9733 13.2001L54.0633 12.7601C54.2487 12.6861 54.4183 12.5776 54.5623 12.4411C54.7064 12.3045 54.8221 12.1424 54.9029 11.9642C54.9837 11.7859 55.028 11.5948 55.0332 11.4019C55.0384 11.2091 55.0045 11.0182 54.9333 10.8401L54.7733 10.4301C54.6292 10.0716 54.3431 9.78719 53.9776 9.63912C53.6121 9.49104 53.197 9.49139 52.8233 9.64009L51.7233 10.0801C51.5763 10.14 51.459 10.2557 51.3972 10.4019C51.3353 10.5481 51.3339 10.7129 51.3933 10.8601Z" fill="#5C6068"/>
<path d="M126.733 9.07045C126.774 8.9863 126.831 8.91099 126.9 8.84884C126.97 8.78668 127.052 8.73892 127.14 8.70826C127.228 8.6776 127.321 8.66466 127.415 8.67019C127.508 8.67571 127.599 8.69959 127.683 8.74045L130.003 9.88045C130.889 10.3182 131.565 11.0906 131.882 12.0281C132.199 12.9655 132.131 13.9914 131.693 14.8804L130.553 17.2205C130.337 17.6615 130.035 18.0556 129.667 18.3802C129.298 18.7049 128.869 18.9537 128.405 19.1125C127.941 19.2714 127.45 19.337 126.96 19.3058C126.471 19.2745 125.993 19.147 125.553 18.9304L123.233 17.7905C123.065 17.7067 122.937 17.5596 122.877 17.3816C122.817 17.2035 122.83 17.0089 122.913 16.8404L126.733 9.07045ZM130.493 13.1372C130.627 12.869 130.649 12.5586 130.554 12.2744C130.459 11.9902 130.255 11.7554 129.986 11.6216L128.877 11.0684C128.608 10.9347 128.298 10.913 128.014 11.0081C127.73 11.1032 127.495 11.3073 127.361 11.5754L125.273 15.7637C125.139 16.0319 125.118 16.3423 125.213 16.6265C125.308 16.9107 125.512 17.1455 125.78 17.2793L126.89 17.8325C127.158 17.9662 127.468 17.9879 127.753 17.8928C128.037 17.7977 128.272 17.5936 128.405 17.3254L130.493 13.1372Z" fill="#5C6068"/>
<path d="M38.1817 18.3404C38.1387 18.2764 38.0806 18.224 38.0126 18.1878C37.9446 18.1516 37.8688 18.1327 37.7917 18.1327C37.7147 18.1327 37.6388 18.1516 37.5708 18.1878C37.5028 18.224 37.4447 18.2764 37.4017 18.3404C37.0017 18.9404 36.4584 19.2804 35.7717 19.3604C35.6229 19.3745 35.4734 19.3392 35.3467 19.2599C35.2199 19.1806 35.1228 19.0617 35.0704 18.9216C35.018 18.7815 35.0133 18.6281 35.0569 18.4851C35.1005 18.342 35.1901 18.2174 35.3117 18.1304L40.3717 14.6204C40.5088 14.5252 40.6737 14.4784 40.8403 14.4874C41.0069 14.4965 41.1658 14.5609 41.2917 14.6704L41.5117 14.8504C41.5664 14.8962 41.6111 14.9528 41.643 15.0167C41.6749 15.0806 41.6933 15.1504 41.6971 15.2217C41.7008 15.293 41.6899 15.3643 41.6649 15.4311C41.6398 15.498 41.6013 15.559 41.5517 15.6104C41.1051 16.0704 40.5884 16.4304 40.0017 16.6904C39.9048 16.7321 39.8185 16.795 39.7489 16.8743C39.6793 16.9536 39.6283 17.0475 39.5996 17.149C39.5709 17.2505 39.5651 17.3572 39.5828 17.4612C39.6005 17.5652 39.6411 17.664 39.7017 17.7504L43.8317 23.6804C43.8824 23.7531 43.9166 23.8361 43.9319 23.9234C43.9472 24.0107 43.9433 24.1004 43.9205 24.186C43.8976 24.2717 43.8564 24.3514 43.7996 24.4195C43.7428 24.4876 43.6719 24.5425 43.5917 24.5804L43.3117 24.7104C42.8584 24.9304 42.4917 24.8304 42.2117 24.4104L38.1817 18.3404Z" fill="#5C6068"/>
<path d="M123.671 87.1804C125.441 87.5604 126.961 88.7004 128.481 89.1404C130.351 89.6704 132.451 89.8904 133.891 91.1504C137.341 94.1404 136.811 99.4204 136.881 104.75C137.187 125.264 137.314 145.46 137.261 165.34C137.254 166.434 136.791 167.267 135.871 167.84L128.881 172.17C127.754 172.864 126.757 172.714 125.891 171.72C118.517 163.314 111.011 154.617 103.371 145.63C100.521 142.29 96.5408 138.71 94.2008 135.81C88.4541 128.67 84.1174 123.504 81.1907 120.31C80.4107 119.46 79.1808 118.84 78.4808 118.05C75.3541 114.51 70.7041 109.01 64.5307 101.55C64.1374 101.07 63.6141 100.547 62.9608 99.9804C59.6408 97.0804 57.0507 93.6304 54.2507 90.2604C54.0307 89.9937 53.4841 89.6504 52.6108 89.2304C50.7908 88.3504 50.1907 86.6604 47.8707 86.7704C44.0207 86.9504 40.1407 85.9904 36.7207 85.9904C33.8874 85.9904 31.0574 85.9904 28.2307 85.9904C26.3507 85.9904 24.9108 86.8004 22.9208 86.7804C22.3941 86.7737 22.3307 86.9437 22.7307 87.2904C24.3107 88.6304 26.0607 89.1304 27.5307 90.5504C29.3507 92.3104 31.4408 93.3304 33.2408 95.1004C34.9108 96.7304 36.9507 97.9904 38.5107 99.4604C42.9207 103.64 44.4407 104.65 44.4707 111.25C44.5307 125.084 44.5507 138.947 44.5307 152.84C44.5302 152.904 44.5109 152.966 44.475 153.018C44.4392 153.071 44.3886 153.111 44.3296 153.135C44.2706 153.159 44.2059 153.164 44.1438 153.151C44.0817 153.138 44.0249 153.106 43.9807 153.06C41.6541 150.767 39.2774 148.464 36.8507 146.15C-1.27926 109.76 12.2008 46.4004 59.5508 26.4004C99.7508 9.43041 145.561 30.8604 158.471 72.4404C166.141 97.1804 159.841 124.25 142.511 143.33C142.228 143.639 142.071 144.046 142.071 144.47L142.041 159.29C142.034 161.03 142.671 161.31 143.951 160.13C148.431 155.997 152.607 151.58 156.481 146.88C158.461 144.47 159.951 141.55 161.781 138.86C163.941 135.66 166.061 131.31 167.301 127.72C167.447 127.287 167.727 127.17 168.141 127.37L168.751 127.67C169.004 127.79 169.074 127.984 168.961 128.25C164.101 139.87 158.181 148.26 149.441 157.21C147.071 159.64 143.611 161.82 141.051 164.58C140.989 164.647 140.909 164.693 140.82 164.713C140.731 164.733 140.639 164.726 140.555 164.693C140.47 164.659 140.398 164.601 140.347 164.525C140.297 164.45 140.27 164.361 140.271 164.27C140.291 143.41 140.321 122.4 140.361 101.24C140.361 98.0504 141.771 90.8204 146.121 89.6704C148.301 89.0971 150.294 88.4371 152.101 87.6904C153.221 87.2371 153.177 86.9837 151.971 86.9304C142.844 86.5304 133.421 86.5304 123.701 86.9304C123.034 86.9571 123.024 87.0404 123.671 87.1804ZM128.211 170.79L135.301 166.09C135.607 165.884 135.761 165.594 135.761 165.22L135.721 150.36C135.722 150.318 135.711 150.277 135.689 150.242C135.666 150.206 135.634 150.178 135.595 150.16C135.556 150.142 135.513 150.136 135.469 150.141C135.426 150.146 135.385 150.164 135.351 150.19C130.384 154.437 124.921 157.907 118.961 160.6C118.634 160.747 118.587 160.957 118.821 161.23L126.941 170.61C127.094 170.79 127.308 170.907 127.542 170.94C127.776 170.973 128.013 170.92 128.211 170.79Z" fill="#5C6068"/>
<path d="M146.19 28.8899L144.5 30.8899C144.423 30.9818 144.313 31.041 144.193 31.0558C144.073 31.0706 143.95 31.04 143.85 30.9699L143.5 30.7299C143.412 30.6683 143.338 30.5886 143.283 30.4963C143.228 30.4039 143.193 30.3009 143.181 30.1941C143.168 30.0873 143.179 29.9792 143.212 29.8767C143.244 29.7743 143.298 29.6799 143.37 29.5999L149.26 23.0799C149.493 22.8266 149.733 22.8199 149.98 23.0599C151.76 24.7999 155.38 27.1499 152.12 29.8799C150.18 31.4999 148.55 30.3099 147.02 28.8499C146.727 28.5632 146.45 28.5766 146.19 28.8899ZM151.483 27.8366C151.678 27.6304 151.783 27.3552 151.775 27.0715C151.767 26.7879 151.647 26.519 151.441 26.324L150.656 25.5819C150.45 25.3869 150.175 25.2818 149.891 25.2897C149.608 25.2976 149.339 25.4179 149.144 25.6241L148.237 26.5832C148.042 26.7894 147.937 27.0646 147.945 27.3483C147.952 27.6319 148.073 27.9008 148.279 28.0958L149.064 28.8379C149.27 29.0329 149.545 29.138 149.829 29.1301C150.112 29.1222 150.381 29.0019 150.576 28.7957L151.483 27.8366Z" fill="#5C6068"/>
<path d="M106.991 178.07C104.201 174.08 100.931 169.37 97.1807 167.11C96.908 166.948 96.5924 166.877 96.2806 166.91C83.074 168.296 71.074 166.63 60.2806 161.91C58.3406 161.056 54.4007 159.103 48.4607 156.05C48.174 155.896 48.0273 155.656 48.0207 155.33C47.994 143.296 47.9906 131.266 48.0106 119.24C48.0206 116.27 48.6207 113.31 48.8007 110.32C48.834 109.786 49.0273 109.72 49.3806 110.12C56.874 118.533 63.8073 126.346 70.1807 133.56C81.1873 146.013 92.1506 158.506 103.071 171.04C104.991 173.25 108.091 175.46 110.181 178.54C110.232 178.616 110.263 178.703 110.273 178.795C110.282 178.886 110.269 178.978 110.234 179.063C110.2 179.148 110.145 179.223 110.074 179.282C110.004 179.34 109.92 179.381 109.831 179.4C106.141 180.2 102.801 181.51 98.9907 181.54C92.3107 181.586 85.6307 181.586 78.9507 181.54C77.9573 181.533 76.5307 181.313 74.6707 180.88C72.6507 180.42 70.7506 180.64 68.8506 180.13C67.104 179.65 65.3573 179.18 63.6107 178.72C59.9407 177.76 56.6407 175.7 52.9007 174.47C50.6673 173.736 48.8207 172.906 47.3607 171.98C36.7307 165.21 26.4807 158.18 18.8307 147.93C2.71065 126.35 -3.62936 98.8597 3.50064 72.4197C5.94064 63.3897 8.65065 56.6397 13.0106 49.8897C15.2106 46.4897 17.1507 42.8597 19.6807 39.8097C20.8607 38.3897 22.0606 36.9864 23.2806 35.5997C24.9206 33.7497 27.3707 32.2597 29.1107 30.0497C29.2507 29.8631 29.404 29.7497 29.5706 29.7097C29.7973 29.6564 30.0007 29.6697 30.1807 29.7497C30.2608 29.7866 30.3314 29.8412 30.3872 29.9094C30.443 29.9776 30.4826 30.0577 30.5028 30.1435C30.5231 30.2293 30.5235 30.3186 30.5041 30.4046C30.4846 30.4906 30.4458 30.571 30.3907 30.6397C26.2907 35.6097 20.8407 39.5497 17.7407 45.2497C15.8807 48.6797 13.4006 52.0497 11.8106 55.1897C0.820635 77.0097 -0.709353 101.24 7.76065 124.55C10.9806 133.43 16.6106 143.01 22.3106 149.7C25.9406 153.96 32.2307 159.97 37.7707 163.81C42.3607 166.99 46.9107 170.31 52.0807 172.5C54.4007 173.48 56.3907 174.89 58.7707 175.52C61.9573 176.373 65.1273 177.276 68.2806 178.23C70.6206 178.93 72.9206 178.6 75.3806 179.12C78.1006 179.69 80.8106 179.66 84.0006 180.53C86.6273 181.256 89.7673 181.186 93.4207 180.32C97.7107 179.3 102.351 179.26 106.711 178.69C107.144 178.63 107.237 178.423 106.991 178.07Z" fill="#5C6068"/>
<path d="M154.622 39.5797C154.176 39.793 153.709 39.9297 153.222 39.9897C152.789 40.0364 152.496 39.8597 152.342 39.4597L152.212 39.1497C152.132 38.9297 152.199 38.783 152.412 38.7097L161.032 35.5997C161.183 35.5442 161.346 35.5271 161.506 35.5498C161.667 35.5724 161.82 35.6342 161.952 35.7297C162.226 35.923 162.446 36.1664 162.612 36.4597C162.806 36.793 162.799 37.1197 162.592 37.4397L157.692 44.9897C157.646 45.0619 157.584 45.1235 157.512 45.1703C157.44 45.2172 157.359 45.2482 157.274 45.2614C157.189 45.2747 157.102 45.2697 157.019 45.247C156.936 45.2243 156.859 45.1843 156.792 45.1297L156.502 44.8997C156.176 44.6264 156.129 44.313 156.362 43.9597L157.202 42.7097C157.396 42.4164 157.386 42.1297 157.172 41.8497L155.582 39.8097C155.322 39.4764 155.002 39.3997 154.622 39.5797ZM160.322 37.5297L157.202 38.6297C157.133 38.6531 157.07 38.6937 157.019 38.7478C156.969 38.8019 156.933 38.8678 156.914 38.9399C156.896 39.012 156.895 39.088 156.912 39.1611C156.929 39.2343 156.963 39.3025 157.012 39.3597L157.852 40.3097C158.159 40.663 158.452 40.653 158.732 40.2797L160.552 37.8297C160.575 37.795 160.587 37.754 160.585 37.7124C160.584 37.6709 160.57 37.6308 160.544 37.5978C160.519 37.5648 160.484 37.5405 160.444 37.5283C160.404 37.5161 160.362 37.5166 160.322 37.5297Z" fill="#5C6068"/>
<path d="M166.63 55.0201L164.75 57.6701C164.708 57.7299 164.652 57.7782 164.587 57.8109C164.521 57.8435 164.448 57.8596 164.375 57.8576C164.301 57.8556 164.228 57.8357 164.163 57.7996C164.098 57.7634 164.042 57.7121 164 57.6501L163.83 57.4001C163.537 56.9601 163.534 56.5168 163.82 56.0701C164.32 55.2968 164.877 54.5134 165.49 53.7201C165.79 53.3334 165.93 52.9968 165.91 52.7101C165.89 52.4701 165.79 52.2668 165.61 52.1001C165.29 51.8001 164.937 51.7468 164.55 51.9401L162.49 52.9701C162.327 53.0536 162.14 53.0812 161.957 53.0487C161.775 53.0163 161.608 52.9255 161.48 52.7901L161.21 52.4901C161.163 52.4369 161.128 52.3736 161.108 52.3048C161.088 52.2361 161.085 52.1637 161.097 52.0933C161.11 52.0229 161.138 51.9563 161.18 51.8986C161.222 51.8408 161.277 51.7935 161.34 51.7601L169.12 47.6801C169.48 47.4868 169.78 47.5534 170.02 47.8801C170.947 49.1201 171.64 50.4834 172.1 51.9701C172.151 52.1337 172.167 52.3064 172.146 52.477C172.125 52.6475 172.069 52.8122 171.98 52.9601C170.874 54.8134 169.317 55.4234 167.31 54.7901C167.03 54.7034 166.804 54.7801 166.63 55.0201ZM169.678 50.1556C169.609 50.0395 169.517 49.9383 169.408 49.8576C169.3 49.777 169.176 49.7185 169.045 49.6855C168.914 49.6526 168.778 49.6458 168.644 49.6655C168.51 49.6853 168.381 49.7312 168.265 49.8007L167.27 50.3964C167.154 50.4658 167.053 50.5575 166.972 50.6661C166.891 50.7747 166.833 50.8981 166.8 51.0293C166.767 51.1605 166.76 51.2969 166.78 51.4307C166.8 51.5645 166.846 51.6931 166.915 51.8092L167.583 52.9246C167.652 53.0407 167.744 53.1419 167.852 53.2226C167.961 53.3032 168.084 53.3617 168.216 53.3946C168.347 53.4276 168.483 53.4344 168.617 53.4146C168.751 53.3949 168.879 53.349 168.996 53.2795L169.991 52.6838C170.107 52.6143 170.208 52.5227 170.289 52.4141C170.369 52.3055 170.428 52.1821 170.461 52.0509C170.494 51.9197 170.501 51.7833 170.481 51.6495C170.461 51.5157 170.415 51.3871 170.346 51.271L169.678 50.1556Z" fill="#5C6068"/>
<path d="M175.662 63.9901L175.092 62.8101C174.892 62.3901 175.008 62.1001 175.442 61.9401L175.712 61.8401C176.305 61.6201 176.685 61.8167 176.852 62.43L178.322 67.9701C178.343 68.0495 178.346 68.1324 178.331 68.2132C178.316 68.2939 178.283 68.3703 178.236 68.4371C178.188 68.5039 178.126 68.5594 178.055 68.5996C177.983 68.6399 177.904 68.6639 177.822 68.6701L177.492 68.6901C177.365 68.6982 177.24 68.6558 177.143 68.5719C177.046 68.4879 176.985 68.369 176.972 68.2401C176.918 67.6667 176.779 67.1167 176.552 66.5901C176.497 66.4715 176.4 66.3773 176.28 66.3257C176.16 66.274 176.026 66.2684 175.902 66.3101L168.842 68.65C168.422 68.79 168.165 68.6467 168.072 68.2201L167.952 67.6601C167.872 67.3001 168.009 67.0634 168.362 66.9501L175.292 64.8501C175.376 64.8248 175.454 64.7812 175.52 64.7223C175.586 64.6633 175.639 64.5905 175.674 64.5087C175.709 64.4269 175.726 64.3382 175.724 64.2487C175.722 64.1591 175.701 64.0709 175.662 63.9901Z" fill="#5C6068"/>
<path d="M176.852 79.7298L171.612 80.1798C171.232 80.2131 171.029 80.0364 171.002 79.6498C170.996 79.5298 170.992 79.4064 170.992 79.2798C170.992 79.0464 171.109 78.9131 171.342 78.8798C174.282 78.4264 176.656 78.1298 178.462 77.9898C181.542 77.7564 181.822 78.5298 179.302 80.3098L175.062 83.3198C175.009 83.3584 174.971 83.4136 174.954 83.4766C174.936 83.5397 174.941 83.6067 174.966 83.6669C174.992 83.7271 175.037 83.777 175.094 83.8084C175.151 83.8397 175.218 83.8508 175.282 83.8398C176.875 83.5464 178.432 83.1231 179.952 82.5698C180.079 82.5239 180.213 82.5053 180.348 82.5154C180.482 82.5255 180.612 82.564 180.73 82.6282C180.848 82.6925 180.952 82.7812 181.033 82.8883C181.114 82.9955 181.172 83.1187 181.202 83.2498L181.302 83.7098C181.402 84.1431 181.232 84.3864 180.792 84.4398L172.502 85.4398C172.176 85.4798 171.916 85.3664 171.722 85.0998C171.249 84.4531 171.359 83.9264 172.052 83.5198C173.786 82.5131 175.439 81.3798 177.012 80.1198C177.386 79.8198 177.332 79.6898 176.852 79.7298Z" fill="#5C6068"/>
<path d="M177.62 95.95L177.461 99.76C177.459 99.7968 177.451 99.833 177.435 99.8665C177.42 99.8999 177.398 99.9301 177.371 99.9551C177.345 99.9802 177.313 99.9997 177.278 100.013C177.244 100.025 177.207 100.031 177.171 100.03L176.22 99.98C176.183 99.9775 176.146 99.9675 176.112 99.9504C176.078 99.9333 176.049 99.9095 176.024 99.8806C176 99.8516 175.982 99.818 175.971 99.7818C175.96 99.7456 175.956 99.7076 175.961 99.67L176.34 95.81C176.345 95.7708 176.341 95.7312 176.328 95.6936C176.316 95.6561 176.296 95.6216 176.27 95.5923C176.243 95.5631 176.211 95.5397 176.175 95.5238C176.139 95.5079 176.1 95.4998 176.06 95.5L173.461 95.48C173.424 95.4787 173.387 95.4846 173.353 95.4975C173.318 95.5103 173.286 95.5298 173.26 95.5549C173.233 95.58 173.211 95.6101 173.196 95.6436C173.18 95.6771 173.172 95.7132 173.171 95.75L172.951 99.69C172.947 99.7529 172.922 99.8128 172.881 99.86C172.839 99.9071 172.782 99.9389 172.72 99.95L172.06 100.06C172.02 100.067 171.978 100.066 171.938 100.055C171.898 100.044 171.861 100.025 171.829 99.998C171.798 99.9713 171.773 99.9378 171.755 99.9001C171.738 99.8624 171.73 99.8214 171.731 99.78L171.821 94.12C171.82 94.0824 171.828 94.0451 171.843 94.0105C171.857 93.9759 171.879 93.9446 171.906 93.9184C171.933 93.8923 171.965 93.8719 172 93.8584C172.035 93.8449 172.073 93.8387 172.111 93.84L181.571 94.31C181.607 94.3113 181.643 94.3198 181.677 94.3351C181.71 94.3504 181.741 94.3721 181.766 94.3991C181.791 94.426 181.81 94.4576 181.823 94.4921C181.836 94.5266 181.842 94.5633 181.84 94.6L181.451 100.31C181.448 100.348 181.438 100.385 181.421 100.418C181.404 100.452 181.38 100.482 181.351 100.506C181.322 100.531 181.288 100.549 181.252 100.56C181.216 100.571 181.178 100.574 181.141 100.57L180.34 100.47C180.268 100.462 180.201 100.427 180.155 100.371C180.108 100.315 180.085 100.243 180.09 100.17L180.391 96.26C180.396 96.1873 180.373 96.1153 180.326 96.0592C180.28 96.0032 180.213 95.9676 180.141 95.96L177.931 95.69C177.893 95.6859 177.855 95.6894 177.819 95.7004C177.783 95.7113 177.749 95.7295 177.72 95.7538C177.691 95.7781 177.667 95.808 177.65 95.8417C177.633 95.8755 177.623 95.9123 177.62 95.95Z" fill="#5C6068"/>
<path d="M173.532 110.13C172.539 110.05 171.589 109.8 170.682 109.38C170.598 109.339 170.522 109.279 170.462 109.205C170.402 109.131 170.357 109.044 170.332 108.95C170.272 108.71 170.296 108.503 170.402 108.33C170.562 108.063 170.792 107.963 171.092 108.03L179.592 109.87C179.992 109.956 180.186 110.206 180.172 110.62C179.992 114.38 177.512 118.66 173.592 114.2C173.226 113.786 172.796 113.706 172.302 113.96C171.482 114.38 170.666 114.523 169.852 114.39C168.859 114.223 168.789 113.866 169.642 113.32C170.569 112.733 171.699 112.28 173.032 111.96C173.466 111.86 173.756 111.696 173.902 111.47C174.049 111.243 174.109 110.976 174.082 110.67C174.069 110.529 174.006 110.399 173.905 110.3C173.805 110.201 173.673 110.141 173.532 110.13ZM178.252 112.354C178.28 112.207 178.28 112.056 178.25 111.909C178.22 111.762 178.162 111.623 178.078 111.499C177.994 111.375 177.887 111.268 177.762 111.185C177.637 111.103 177.497 111.046 177.35 111.017L176.467 110.845C176.32 110.817 176.169 110.817 176.022 110.847C175.875 110.877 175.736 110.936 175.612 111.019C175.488 111.103 175.381 111.21 175.299 111.335C175.216 111.46 175.159 111.6 175.13 111.747L174.913 112.866C174.884 113.013 174.885 113.164 174.915 113.311C174.945 113.457 175.003 113.597 175.087 113.721C175.17 113.845 175.278 113.951 175.403 114.034C175.527 114.117 175.667 114.174 175.814 114.202L176.698 114.374C176.845 114.403 176.996 114.402 177.142 114.372C177.289 114.342 177.429 114.284 177.553 114.2C177.677 114.117 177.783 114.009 177.866 113.884C177.948 113.76 178.006 113.62 178.034 113.473L178.252 112.354Z" fill="#5C6068"/>
</svg>
