<svg width="433" height="127" viewBox="0 0 433 127" fill="none" xmlns="http://www.w3.org/2000/svg">
<path d="M147.839 32.658C147.1 32.6957 146.472 32.569 145.955 32.2778C145.848 32.2182 145.759 32.1318 145.695 32.027C145.631 31.9222 145.595 31.8024 145.591 31.6793L144.798 1.40495C144.793 1.13534 144.652 1.00053 144.377 1.00053C143.892 1.00592 143.426 0.922348 142.978 0.749798C142.919 0.72823 142.892 0.685089 142.897 0.620383L142.913 0.385817C142.919 0.288758 142.97 0.240234 143.067 0.240234L152.15 0.264498C152.185 0.262455 152.22 0.273223 152.246 0.294883C152.273 0.316544 152.291 0.347676 152.297 0.382707C152.303 0.417738 152.296 0.454389 152.278 0.486081C152.26 0.517773 152.232 0.542454 152.199 0.555688L151.56 0.79023C151.328 0.876505 151.153 1.03019 151.034 1.25127C150.419 2.36745 149.845 3.14393 149.845 4.49466C149.877 14.9231 149.872 25.3462 149.829 35.7639C149.829 35.801 149.821 35.8379 149.807 35.8722C149.793 35.9065 149.772 35.9377 149.746 35.964C149.72 35.9903 149.688 36.0112 149.654 36.0254C149.62 36.0396 149.583 36.0469 149.546 36.0469H44.0506C43.7486 36.0469 43.5977 35.8987 43.5977 35.6021V33.0786C43.5977 32.9563 43.6454 32.839 43.7303 32.7526C43.8153 32.6661 43.9305 32.6175 44.0506 32.6175H60.1786C60.4698 32.6175 60.6127 32.4692 60.6073 32.1727C60.4293 25.1925 58.3992 19.9594 51.6374 17.2579C51.4756 17.1932 51.4325 17.0827 51.508 16.9263L52.9558 13.7719C53.0097 13.6479 53.1014 13.6128 53.2308 13.6667C61.1896 17.0908 64.9911 23.2621 64.6352 32.1807C64.6244 32.4558 64.7592 32.5933 65.0396 32.5933L79.3801 32.658C79.6228 32.658 79.6632 32.569 79.5014 32.3911C78.6495 31.442 78.2073 30.404 78.175 29.2771C78.0132 22.9197 83.4647 19.9351 89.0941 21.4234C93.7853 22.669 95.1198 28.1043 94.6265 32.4638C94.6103 32.5933 94.6669 32.6607 94.7963 32.6661L100.264 32.7065C100.426 32.7065 100.507 32.6256 100.507 32.4638C100.555 29.5682 100.261 26.9557 99.625 24.6263C96.7618 14.2006 85.3007 14.7667 77.2124 17.5329C77.0507 17.5869 76.959 17.5302 76.9374 17.3631L76.5654 14.5322C76.5438 14.3596 76.6166 14.2491 76.7838 14.2006C83.2625 12.1462 92.386 11.4991 97.9912 15.3572C103.467 19.1182 104.607 26.0256 104.543 32.3264C104.543 32.5636 104.661 32.6822 104.899 32.6822H123.898C124.162 32.6822 124.294 32.5501 124.294 32.2859L124.254 15.5432C124.248 15.2143 124.119 14.9447 123.866 14.7344L122.523 13.6182C122.194 13.3432 122.242 13.2057 122.668 13.2057H128.071C128.373 13.2057 128.524 13.3594 128.524 13.6667V32.1484C128.524 32.4881 128.694 32.6607 129.034 32.6661C135.332 32.7092 141.633 32.6957 147.936 32.6256C148.341 32.6202 148.308 32.631 147.839 32.658ZM84.2088 24.6102C81.386 25.5241 81.386 29.4631 83.0117 31.3072C84.6779 33.1918 88.2853 32.8521 90.6794 32.6822C90.922 32.6661 91.0434 32.5366 91.0434 32.294C91.0757 27.9102 90.364 22.6204 84.2088 24.6102Z" fill="#5C6068"/>
<path d="M157.473 0.992153L156.397 0.6201C155.685 0.37206 155.707 0.248047 156.462 0.248047L165.31 0.272311C165.774 0.272311 165.804 0.388236 165.399 0.6201C164.941 0.884316 164.442 1.08652 163.903 1.22672C163.675 1.28737 163.474 1.421 163.331 1.60679C163.187 1.79259 163.11 2.0201 163.11 2.25392C163.094 12.526 163.097 22.7496 163.118 32.9246C163.118 34.456 163.768 35.3592 165.068 35.6342C165.118 35.648 165.161 35.6793 165.19 35.7224C165.22 35.7655 165.232 35.8175 165.227 35.8692C165.221 35.9209 165.197 35.9688 165.159 36.0043C165.121 36.0398 165.071 36.0606 165.019 36.0628L159.309 36.0547C159.007 36.0547 158.856 35.9038 158.856 35.6018L158.848 2.93335C158.848 2.50806 158.716 2.09294 158.47 1.74524C158.224 1.39755 157.875 1.13441 157.473 0.992153Z" fill="#5C6068"/>
<path d="M247.821 32.6666C247.022 32.7529 246.243 32.6666 245.483 32.4078C245.203 32.3107 245.065 32.1112 245.071 31.8092C245.135 23.6725 245.133 18.4501 245.062 16.1423C245.019 14.6379 244.216 13.7859 242.652 13.5864C242.646 13.5853 242.64 13.5831 242.634 13.58C242.629 13.577 242.624 13.5731 242.62 13.5686C242.617 13.5641 242.614 13.559 242.613 13.5538C242.611 13.5485 242.611 13.5431 242.612 13.5379L242.652 13.2952C242.668 13.2197 242.714 13.182 242.79 13.182L248.848 13.2305C248.914 13.2305 248.979 13.2433 249.04 13.2681C249.1 13.2929 249.156 13.3292 249.202 13.375C249.249 13.4208 249.286 13.4752 249.311 13.5351C249.336 13.5949 249.349 13.6591 249.349 13.7239L249.341 35.7563C249.341 35.9558 249.241 36.0556 249.042 36.0556C230.752 36.0502 212.418 36.0502 194.042 36.0556C191.615 36.0556 188.064 35.8938 185.856 34.7129C177.534 30.2401 179.507 17.2261 188.17 14.5085C192.3 13.2144 196.616 13.546 201.119 15.5033C201.318 15.5896 201.418 15.7433 201.418 15.9643V32.2137C201.418 32.4779 201.553 32.61 201.823 32.61L223.337 32.6262C223.623 32.6262 223.766 32.4833 223.766 32.1975C223.771 22.7019 223.766 13.2359 223.75 3.7996C223.742 1.89078 222.86 0.726085 220.976 0.531967C220.879 0.521183 220.833 0.464547 220.838 0.362096C220.843 0.270429 220.876 0.224609 220.935 0.224609L230.237 0.281233C230.501 0.286625 230.544 0.386376 230.366 0.580495C229.924 1.0604 229.598 1.31922 229.387 1.35696C228.482 1.5349 228.029 2.08759 228.029 3.01504L228.004 32.157C228.004 32.459 228.155 32.61 228.457 32.61L247.821 32.6262C247.826 32.6239 247.832 32.6239 247.836 32.6261C247.84 32.6283 247.842 32.6326 247.842 32.638C247.842 32.6433 247.84 32.6493 247.836 32.6547C247.832 32.6601 247.826 32.6644 247.821 32.6666ZM197.617 32.521C197.725 32.5803 197.835 32.6181 197.948 32.6343C198.089 32.6504 198.097 32.6235 197.973 32.5534L197.601 32.3592C197.385 32.2406 197.277 32.06 197.277 31.8173V18.9247C197.277 18.6119 197.137 18.3908 196.856 18.2614C192.804 16.3688 187.223 16.9349 185.517 21.6342C184.449 24.5783 184.829 30.0217 187.789 31.4938C190.297 32.7448 193.457 33.0656 197.269 32.4563C197.393 32.4347 197.509 32.4563 197.617 32.521Z" fill="#5C6068"/>
<path d="M243.41 6.43654C242.364 4.82967 242.455 3.37647 243.685 2.07696C245.426 0.238226 247.831 -0.311758 250.899 0.42697C250.975 0.448538 251.01 0.497062 251.005 0.572552L250.77 2.51373C250.765 2.54987 250.753 2.58462 250.734 2.61587C250.715 2.64711 250.69 2.67418 250.659 2.6954C250.629 2.71662 250.594 2.73153 250.558 2.73924C250.521 2.74694 250.483 2.74727 250.446 2.7402C249.379 2.5353 248.295 2.50833 247.195 2.65931C246.904 2.70052 246.631 2.82333 246.406 3.01362C246.182 3.2039 246.015 3.45396 245.925 3.73506C244.93 6.88948 249.387 6.85712 251.749 6.63065C251.775 6.6273 251.802 6.62979 251.828 6.63793C251.854 6.64607 251.878 6.65971 251.899 6.67797C251.919 6.69622 251.936 6.71869 251.948 6.74397C251.959 6.76924 251.966 6.79677 251.967 6.82478L252.016 8.88728C252.017 8.91135 252.013 8.93539 252.005 8.95795C251.997 8.9805 251.985 9.0011 251.969 9.0185C251.953 9.03589 251.934 9.04973 251.913 9.05915C251.891 9.06857 251.869 9.07339 251.846 9.07332L240.902 9.11375C240.832 9.11375 240.8 9.0814 240.805 9.01669L240.935 6.83285C240.945 6.68187 241.024 6.61447 241.169 6.63065L243.191 6.80052C243.515 6.82748 243.588 6.70615 243.41 6.43654Z" fill="#5C6068"/>
<path d="M281.343 32.1886C278.792 30.4469 277.447 28.1417 277.307 25.2731C276.83 15.6966 285.476 12.526 293.629 14.4672C294.389 14.6505 294.645 15.1116 294.397 15.8503L293.855 17.476C293.661 18.0476 293.284 18.2228 292.723 18.0018C281.399 13.5937 277.016 27.9341 287.328 31.8084C289.604 32.6658 292.839 32.9138 297.034 32.5525C297.341 32.5256 297.492 32.6631 297.487 32.965L297.43 35.5694C297.425 35.893 297.261 36.0547 296.937 36.0547H258.793C258.496 36.0547 258.348 35.9038 258.348 35.6018L258.332 2.8929C258.331 2.48466 258.205 2.08641 257.971 1.75218C257.737 1.41795 257.405 1.16391 257.021 1.02451L255.881 0.6201C255.185 0.37206 255.207 0.248047 255.946 0.248047L264.794 0.272311C265.253 0.272311 265.285 0.388236 264.891 0.6201C264.465 0.86814 264.002 1.05417 263.5 1.17819C263.239 1.24469 263.007 1.39684 262.842 1.61067C262.676 1.82449 262.586 2.08781 262.586 2.35907V32.1643C262.586 32.4663 262.737 32.6172 263.039 32.6172L281.213 32.6091C281.704 32.6091 281.747 32.469 281.343 32.1886Z" fill="#5C6068"/>
<path d="M339.796 32.6667C339.02 32.7476 338.257 32.6613 337.507 32.4079C337.227 32.3162 337.087 32.1248 337.087 31.8336C337.098 27.1208 337.1 22.4297 337.095 17.76C337.095 14.8402 337.224 14.4762 334.701 13.3196C334.534 13.2441 334.542 13.2064 334.725 13.2064H341.171C341.219 13.2064 341.264 13.2251 341.297 13.2585C341.331 13.2919 341.349 13.3371 341.349 13.3843L341.341 32.1086C341.341 32.4483 341.508 32.6182 341.843 32.6182L358.763 32.6101C358.871 32.6101 358.887 32.5723 358.812 32.4968L358.634 32.3108C358.505 32.1868 358.44 32.0358 358.44 31.8579C358.429 26.7569 358.432 21.6532 358.448 16.5468C358.453 14.9507 357.839 14.0233 356.604 13.7644C354.884 13.4032 354.954 13.2198 356.814 13.2144L362.217 13.1983C362.524 13.1983 362.678 13.3519 362.678 13.6593V32.1571C362.678 32.4591 362.826 32.6101 363.123 32.6101L386.522 32.6182C386.765 32.6182 386.878 32.4969 386.862 32.2542C386.425 25.8645 384.686 21.1409 378.434 18.4233C377.431 17.9865 376.409 17.5471 375.369 17.1049C375.137 17.0078 374.994 16.838 374.94 16.5953C374.592 15.01 374.827 13.8615 376.307 12.9314C381.451 9.69605 386.719 6.40144 392.111 3.04751C392.135 3.03275 392.162 3.02478 392.19 3.02443C392.218 3.02407 392.246 3.03136 392.27 3.04551C392.294 3.05966 392.314 3.08011 392.327 3.1047C392.341 3.12928 392.347 3.15707 392.346 3.18502L392.289 7.01075C392.284 7.1078 392.243 7.18061 392.168 7.22914L380.141 14.5733C380.104 14.5951 380.074 14.6268 380.054 14.6648C380.035 14.7028 380.026 14.7458 380.03 14.789C380.033 14.8323 380.048 14.8742 380.073 14.9103C380.099 14.9464 380.133 14.9753 380.173 14.9938C387.485 18.2561 391.065 23.9799 390.914 32.1652C390.909 32.4564 391.049 32.602 391.335 32.602L405.748 32.6424C405.969 32.6478 405.999 32.575 405.837 32.4241C404.478 31.1299 403.667 29.5419 403.402 27.6601C401.065 11.0144 424.723 8.99237 424.569 24.0446C424.526 27.9917 424.48 31.9334 424.432 35.8697C424.426 35.9829 424.367 36.0395 424.254 36.0395C392.413 36.0503 360.564 36.0584 328.707 36.0638C321.986 36.0638 314.448 34.2277 313.057 26.2527C312.383 22.3703 312.806 18.6578 314.326 15.1152C314.386 14.9696 314.494 14.886 314.65 14.8645L318.419 14.3225C318.445 14.319 318.471 14.3223 318.495 14.3321C318.519 14.342 318.54 14.358 318.555 14.3786C318.571 14.3992 318.581 14.4236 318.584 14.4493C318.587 14.475 318.583 14.501 318.573 14.5247C314.61 24.0527 317.238 32.7314 328.877 32.6344C332.517 32.6074 336.157 32.602 339.796 32.6182C339.803 32.6182 339.809 32.6207 339.814 32.6253C339.818 32.6298 339.821 32.636 339.821 32.6424C339.821 32.6489 339.818 32.655 339.814 32.6596C339.809 32.6641 339.803 32.6667 339.796 32.6667ZM411.555 31.9873C413.777 32.726 416.57 32.8905 419.935 32.4807C420.167 32.4537 420.285 32.3243 420.291 32.0924C420.404 27.3446 421.706 15.2689 412.752 17.5497C411.313 17.911 410.159 18.5824 409.291 19.5637C406.347 22.9042 406.759 30.3939 411.555 31.9873Z" fill="#5C6068"/>
<path d="M126.383 10.5286C127.714 10.5286 128.793 9.44946 128.793 8.11829C128.793 6.78712 127.714 5.70801 126.383 5.70801C125.052 5.70801 123.973 6.78712 123.973 8.11829C123.973 9.44946 125.052 10.5286 126.383 10.5286Z" fill="#5C6068"/>
<path d="M188.474 10.3434C189.76 10.3434 190.803 9.30049 190.803 8.01399C190.803 6.72749 189.76 5.68457 188.474 5.68457C187.187 5.68457 186.145 6.72749 186.145 8.01399C186.145 9.30049 187.187 10.3434 188.474 10.3434Z" fill="#5C6068"/>
<path d="M195.098 10.3026C196.362 10.3026 197.387 9.27777 197.387 8.0136C197.387 6.74943 196.362 5.72461 195.098 5.72461C193.833 5.72461 192.809 6.74943 192.809 8.0136C192.809 9.27777 193.833 10.3026 195.098 10.3026Z" fill="#5C6068"/>
<path d="M357.239 10.3105C358.512 10.3105 359.544 9.27845 359.544 8.00535C359.544 6.73225 358.512 5.7002 357.239 5.7002C355.966 5.7002 354.934 6.73225 354.934 8.00535C354.934 9.27845 355.966 10.3105 357.239 10.3105Z" fill="#5C6068"/>
<path d="M363.892 10.3272C365.174 10.3272 366.213 9.28793 366.213 8.0059C366.213 6.72386 365.174 5.68457 363.892 5.68457C362.61 5.68457 361.57 6.72386 361.57 8.0059C361.57 9.28793 362.61 10.3272 363.892 10.3272Z" fill="#5C6068"/>
<path d="M29.0407 32.1326V15.3091C29.0407 14.9046 29.2402 14.6593 29.6393 14.573C33.3113 13.7885 40.0488 13.1899 42.9687 15.7377C44.6349 17.1855 45.9128 17.9216 46.6084 20.3966C47.2016 22.5103 47.4496 24.6726 47.3525 26.8834C47.3418 27.0883 47.2339 27.188 47.029 27.1826L43.9717 27.1179C43.7236 27.1071 43.6023 26.9777 43.6077 26.7297C43.7452 19.7657 40.8415 16.0936 33.4569 17.5172C33.2089 17.5657 33.0849 17.7167 33.0849 17.9701V35.7157C33.0849 35.9368 32.977 36.0473 32.7613 36.0473C23.8642 36.112 10.6804 37.6165 8.83627 25.8481C8.25391 22.1328 8.55048 18.7061 9.72597 15.5679C9.7951 15.386 9.91089 15.2258 10.0615 15.1035C10.2121 14.9813 10.3922 14.9015 10.5833 14.8723L13.9076 14.3708C13.9695 14.361 14.0328 14.3681 14.091 14.3913C14.1492 14.4145 14.2 14.453 14.2381 14.5027C14.2762 14.5524 14.3002 14.6115 14.3075 14.6737C14.3148 14.7359 14.3052 14.7989 14.2797 14.8561C12.4679 19.1348 11.7399 25.3061 14.8944 29.2128C18.1135 33.1922 23.9694 32.626 28.5554 32.626C28.879 32.6206 29.0407 32.4562 29.0407 32.1326Z" fill="#5C6068"/>
<path d="M26.8127 44.9037C28.0813 44.9037 29.1097 43.8753 29.1097 42.6066C29.1097 41.338 28.0813 40.3096 26.8127 40.3096C25.5441 40.3096 24.5156 41.338 24.5156 42.6066C24.5156 43.8753 25.5441 44.9037 26.8127 44.9037Z" fill="#5C6068"/>
<path d="M327.956 44.9038C329.265 44.9038 330.326 43.8428 330.326 42.5339C330.326 41.2251 329.265 40.1641 327.956 40.1641C326.647 40.1641 325.586 41.2251 325.586 42.5339C325.586 43.8428 326.647 44.9038 327.956 44.9038Z" fill="#5C6068"/>
<path d="M20.1651 44.9278C21.4471 44.9278 22.4864 43.8885 22.4864 42.6065C22.4864 41.3244 21.4471 40.2852 20.1651 40.2852C18.883 40.2852 17.8438 41.3244 17.8438 42.6065C17.8438 43.8885 18.883 44.9278 20.1651 44.9278Z" fill="#5C6068"/>
<path d="M54.2722 76.6664C54.2552 76.6431 54.2324 76.6245 54.2062 76.6124C54.1801 76.6003 54.1514 76.5952 54.1233 76.5977C54.0953 76.6001 54.0687 76.6101 54.0465 76.6265C54.0244 76.6428 54.0073 76.665 53.9972 76.6907L47.8016 91.7511C47.7709 91.824 47.7182 91.8853 47.6513 91.926C47.5844 91.9668 47.5067 91.9848 47.4295 91.9775L46.8795 91.929C46.6638 91.9074 46.5991 91.7942 46.6854 91.5893L60.0068 59.7297C60.5298 58.4787 61.1957 58.3978 62.0046 59.487C62.231 59.789 62.5384 60.4064 62.9266 61.3392C66.7119 70.274 70.5431 79.1873 74.42 88.079C75.0995 89.6373 76.0619 90.74 77.3075 91.3871C78.0463 91.7753 77.9977 91.9694 77.162 91.9694H71.7105C71.5894 91.969 71.4711 91.9346 71.3695 91.8701C71.2678 91.8057 71.1869 91.7139 71.1362 91.6055C69.8475 88.9148 68.6046 86.2106 67.4075 83.4929C64.5847 77.0628 57.5318 81.3172 54.2722 76.6664ZM65.1509 78.5187L59.3921 65.1003C59.1979 64.6581 59.0038 64.6554 58.8097 65.0922C57.6612 67.6157 56.731 70.1257 56.0193 72.6223C55.2751 75.2106 55.259 77.5804 58.3729 78.179C60.0068 78.4917 62.1717 78.7397 64.8678 78.9231C65.1806 78.9446 65.2749 78.8098 65.1509 78.5187Z" fill="#5C6068"/>
<path d="M263.193 76.9575C263.157 76.9162 263.111 76.8847 263.059 76.8662C263.008 76.8477 262.952 76.8426 262.898 76.8515C262.844 76.8604 262.793 76.883 262.749 76.9171C262.706 76.9512 262.673 76.9957 262.652 77.0464L256.674 91.67C256.634 91.7732 256.559 91.8596 256.462 91.9154C256.365 91.9712 256.252 91.993 256.141 91.9774L255.874 91.9369C255.545 91.883 255.445 91.705 255.574 91.4031L268.92 59.5434C269.319 58.5998 269.869 58.465 270.57 59.139C270.656 59.2199 270.81 59.5192 271.031 60.0368C275.081 69.3976 279.119 78.7638 283.147 88.1354C283.837 89.7477 284.846 90.8369 286.172 91.4031C287.062 91.7805 287.024 91.9693 286.059 91.9693H280.405C280.157 91.9693 279.982 91.8533 279.88 91.6215C278.108 87.5854 276.167 80.6053 271.484 79.57C268.855 78.9957 265.523 79.6023 263.193 76.9575ZM273.935 78.3891L268.184 65.0839C268.065 64.7981 267.933 64.7927 267.788 65.0677C266.127 68.2491 264.989 71.4844 264.374 74.7736C263.598 78.9553 271.484 78.7045 273.546 78.9229C273.613 78.9302 273.68 78.9198 273.742 78.8927C273.803 78.8656 273.856 78.8228 273.895 78.7686C273.935 78.7144 273.959 78.6508 273.966 78.5841C273.973 78.5175 273.962 78.4502 273.935 78.3891Z" fill="#5C6068"/>
<path d="M29.7907 84.1246C30.2437 84.6584 30.4702 84.5748 30.4702 83.8738L30.4135 62.626C30.4135 62.3672 30.33 62.1407 30.1628 61.9466C29.327 60.976 28.2621 60.4017 26.968 60.2238C26.8709 60.2076 26.8251 60.1537 26.8305 60.062L26.8466 59.8275C26.8466 59.8167 26.852 59.8113 26.8628 59.8113C29.6559 59.8436 32.4464 59.8329 35.2342 59.7789C35.9675 59.7628 35.9917 59.8895 35.3069 60.1591L32.7511 61.1539C32.5543 61.2319 32.3972 61.3831 32.3143 61.5745C32.0069 62.3079 31.8479 63.0709 31.8371 63.8635C31.7508 73.3591 31.6834 82.6498 31.6349 91.7356C31.6295 92.6307 31.3302 92.744 30.7371 92.0753L8.74511 67.1554C8.09805 66.4221 7.77722 66.5434 7.78261 67.5194L7.87966 79.8944C7.87966 80.2503 7.70172 80.4336 7.34584 80.4444L6.8929 80.4606C6.66643 80.466 6.5505 80.3581 6.54511 80.1371L6.29437 65.0039C6.28898 64.6858 6.16226 64.427 5.91422 64.2275L0.834801 60.0539C0.592154 59.849 0.627194 59.7331 0.93994 59.7061C3.76274 59.4473 7.57231 59.0267 9.80467 61.4532C16.7228 68.9914 23.3848 76.5486 29.7907 84.1246Z" fill="#5C6068"/>
<path d="M116.167 74.6204C116.232 70.8108 116.806 65.1005 115.56 61.5498C115.463 61.2748 115.277 61.086 115.002 60.9836L113.603 60.4821C113.512 60.4554 113.433 60.396 113.383 60.3153C113.332 60.2346 113.313 60.1382 113.329 60.0444C113.345 59.9506 113.395 59.8659 113.47 59.8064C113.544 59.7469 113.637 59.7168 113.732 59.7218L124.32 59.6895C124.401 59.6895 124.441 59.7272 124.441 59.8027L124.449 60.0292C124.455 60.1909 124.379 60.2799 124.223 60.2961C122.212 60.5172 121.174 61.7708 121.109 64.0571C120.953 69.6434 120.955 77.5968 121.117 87.9175C121.133 89.1792 121.446 90.1983 122.055 90.9748C122.137 91.0766 122.238 91.1601 122.354 91.22C122.47 91.2799 122.597 91.3149 122.727 91.3226C123.109 91.3388 123.422 91.4278 123.665 91.5895C123.983 91.8052 123.951 91.9158 123.568 91.9212L116.604 91.994C116.329 91.994 116.191 91.8538 116.191 91.5734L116.199 76.1976C116.199 76.144 116.177 76.0925 116.138 76.0546C116.098 76.0167 116.045 75.9954 115.989 75.9954H101.835C101.788 75.9955 101.742 75.9843 101.701 75.9629C101.659 75.9416 101.623 75.9106 101.597 75.8725C101.57 75.8345 101.552 75.7905 101.546 75.7443C101.539 75.6981 101.544 75.6511 101.56 75.6071L101.649 75.3645C101.684 75.261 101.751 75.171 101.841 75.1072C101.931 75.0434 102.039 75.009 102.15 75.0086H115.779C116.038 75.0086 116.167 74.8792 116.167 74.6204Z" fill="#5C6068"/>
<path d="M137.576 60.7654C136.897 60.5605 136.474 60.334 136.307 60.086C136.102 59.7894 136.18 59.6411 136.541 59.6411C142.084 59.5872 147.703 59.598 153.397 59.6735C156.568 59.7166 159.571 60.8058 162.407 62.9411C168.474 67.5029 168.579 74.7176 166.864 81.4551C165.937 85.111 164.052 87.8314 161.21 89.6162C156.147 92.803 146.158 92.4633 139.954 92.0588C139.642 92.0427 139.488 91.8755 139.493 91.5574C139.66 82.6495 139.679 73.7417 139.55 64.8338C139.518 62.6661 139.776 61.4205 137.576 60.7654ZM161.453 68.7566C159.035 61.5499 152.459 59.8352 145.624 60.4904C145.247 60.5248 144.897 60.6992 144.643 60.9792C144.388 61.2592 144.248 61.6245 144.249 62.0029C144.303 70.598 144.338 79.1743 144.354 87.7316C144.354 92.7221 151.157 91.8324 154.262 90.5059C162.529 86.9713 163.968 76.2625 161.453 68.7566Z" fill="#5C6068"/>
<path d="M231.512 75.4701L241.816 75.4782C242.064 75.4782 242.207 75.6022 242.245 75.8502L242.302 76.1495C242.334 76.376 242.237 76.4892 242.01 76.4892L231.471 76.562C231.186 76.5674 231.043 76.7103 231.043 76.9907V91.7679C231.043 91.8215 231.021 91.873 230.983 91.9109C230.946 91.9488 230.894 91.9701 230.84 91.9701L226.432 91.962C226.303 91.962 226.238 91.8973 226.238 91.7679C226.141 82.3694 226.093 72.9304 226.093 63.4509C226.085 61.8899 225.106 60.5715 223.699 60.2156C223.637 60.2 223.584 60.1625 223.549 60.1104C223.513 60.0582 223.498 59.9949 223.506 59.9323C223.514 59.8697 223.544 59.8122 223.592 59.7705C223.639 59.7289 223.7 59.7059 223.763 59.7061H244.979C245.352 59.7059 245.715 59.8221 246.019 60.0382C246.322 60.2543 246.549 60.5596 246.669 60.9112L248.861 67.309C248.926 67.5032 248.872 67.6541 248.699 67.762C248.629 67.8051 248.565 67.8483 248.505 67.8914C248.457 67.9237 248.416 67.913 248.384 67.859C244.777 61.1943 238.492 59.8921 231.382 60.4906C231.156 60.5122 231.043 60.6362 231.043 60.8627V75.0009C231.043 75.3083 231.199 75.4647 231.512 75.4701Z" fill="#5C6068"/>
<path d="M303.216 67.3412L303.313 91.4765C303.313 91.5434 303.3 91.6096 303.273 91.6711C303.247 91.7326 303.209 91.7881 303.16 91.8343C303.112 91.8804 303.054 91.9162 302.992 91.9396C302.929 91.9629 302.862 91.9732 302.795 91.9699L302.545 91.9618C302.407 91.9556 302.278 91.8957 302.183 91.7948C302.088 91.6938 302.035 91.5595 302.035 91.4199C302.035 82.4959 302.03 73.4963 302.019 64.4213C302.019 63.8066 301.841 63.2404 301.712 62.65C301.658 62.3804 301.523 62.1566 301.307 61.9787L299.018 60.0698C298.84 59.9242 298.867 59.8353 299.099 59.8029C301.407 59.501 303.154 59.5333 304.34 59.9C306.193 60.4662 306.929 62.3831 307.834 64.0169C311.771 71.113 315.677 78.2091 319.554 85.3052C319.585 85.3603 319.63 85.4058 319.685 85.4367C319.74 85.4676 319.802 85.4826 319.865 85.4801C319.928 85.4776 319.989 85.4576 320.041 85.4225C320.093 85.3873 320.135 85.3383 320.161 85.2809C323.509 77.4623 326.858 69.6086 330.207 61.7198C331.404 58.897 335.965 59.5926 338.279 59.6493C339.53 59.6816 339.584 59.9512 338.44 60.4581L336.904 61.1375C336.645 61.2507 336.486 61.4448 336.426 61.7198C336.135 63.0544 335.901 64.2596 335.893 65.6346C335.866 73.0003 335.822 80.3633 335.763 87.7236C335.747 89.7672 336.364 90.9562 337.615 91.2905C339.298 91.7435 339.295 91.9699 337.607 91.9699H331.387C331.293 91.9699 331.203 91.9324 331.136 91.8657C331.069 91.7989 331.032 91.7084 331.032 91.614V64.5426C331.032 63.3887 330.808 63.3429 330.36 64.4052L318.689 92.0508C318.654 92.1313 318.597 92.2004 318.525 92.2503C318.453 92.3002 318.368 92.3288 318.281 92.333C318.193 92.3372 318.106 92.3168 318.03 92.2741C317.953 92.2314 317.89 92.168 317.848 92.0912L304.203 67.0904C303.54 65.8664 303.211 65.95 303.216 67.3412Z" fill="#5C6068"/>
<path d="M381.032 91.0479L394.66 91.0641C394.892 91.0641 395.011 91.1773 395.016 91.4038L395.024 91.7678C395.03 92.0374 394.898 92.1722 394.628 92.1722H376.235C375.982 92.1722 375.853 92.0428 375.847 91.7839C375.82 82.1967 375.774 72.6229 375.71 63.0626C375.699 61.7361 375.079 60.8221 373.849 60.3206C372.863 59.9216 372.889 59.7194 373.93 59.714C376.874 59.7086 380.05 59.6978 383.458 59.6816C383.588 59.6816 383.685 59.7113 383.749 59.7706C383.814 59.8353 383.844 59.9081 383.838 59.989C383.838 60.113 383.776 60.1885 383.652 60.2155C382.822 60.388 382.064 60.7223 381.379 61.2184C381.148 61.3856 380.994 61.6066 380.918 61.8816C380.692 62.6851 380.579 63.2782 380.579 63.6611C380.606 72.6336 380.603 81.6062 380.571 90.5788C380.565 90.8915 380.719 91.0479 381.032 91.0479Z" fill="#5C6068"/>
<path d="M98.6596 61.4282C98.4506 61.5917 98.2815 61.8012 98.1652 62.0409C98.0489 62.2805 97.9884 62.544 97.9883 62.8113L98.1177 91.5974C98.1177 91.8454 97.9937 91.9695 97.7457 91.9695L93.3456 91.9614C93.1947 91.9614 93.1192 91.8859 93.1192 91.7349C93.1623 82.3525 93.1461 72.9944 93.0706 63.6606C93.0599 62.237 92.1836 61.04 90.442 60.0694C90.1346 59.8968 90.1562 59.8105 90.5067 59.8105L101.313 59.8348C101.351 59.8294 101.39 59.8397 101.421 59.8632C101.453 59.8867 101.473 59.9216 101.478 59.9602C101.484 59.9988 101.474 60.038 101.45 60.0691C101.427 60.1002 101.392 60.1206 101.353 60.126C100.361 60.3686 99.4631 60.8027 98.6596 61.4282Z" fill="#5C6068"/>
<path d="M187.591 61.6709C187.493 62.8679 187.178 63.9841 187.17 65.1326C187.143 72.2503 187.148 79.368 187.186 86.4856C187.194 87.5452 187.453 88.7018 187.469 89.8261C187.48 90.1173 187.604 90.3464 187.841 90.5136C188.343 90.8533 188.96 91.0959 189.693 91.2415C189.888 91.2793 189.979 91.4249 189.968 91.6783C189.964 91.7419 189.937 91.8015 189.892 91.845C189.847 91.8886 189.787 91.9128 189.726 91.9128L182.552 91.9937C182.457 91.9937 182.367 91.9562 182.3 91.8895C182.233 91.8227 182.196 91.7322 182.196 91.6378C182.185 82.2716 182.185 72.8785 182.196 63.4584C182.196 61.3716 181.144 60.2824 179.041 60.1907C178.923 60.1853 178.863 60.1233 178.863 60.0047V59.9966C178.863 59.9472 178.885 59.8999 178.925 59.865C178.964 59.8302 179.018 59.8105 179.074 59.8105L190.203 59.8186C190.359 59.8186 190.448 59.8968 190.47 60.0532L190.502 60.2554C190.513 60.3417 190.475 60.3929 190.389 60.4091C189.559 60.5331 188.755 60.7677 187.979 61.1128C187.742 61.2206 187.612 61.4066 187.591 61.6709Z" fill="#5C6068"/>
<path d="M352.617 61.0959L351.064 60.2871C351.017 60.2636 350.979 60.2247 350.956 60.1767C350.933 60.1287 350.928 60.0745 350.94 60.0229C350.952 59.9712 350.981 59.9253 351.023 59.8925C351.065 59.8597 351.116 59.842 351.169 59.8423L360.253 59.8018C362.609 59.7964 362.682 60.0984 360.471 60.7077C360.013 60.8371 359.584 61.0501 359.185 61.3467C358.996 61.4887 358.857 61.6901 358.789 61.9209C358.433 63.2151 358.249 64.2665 358.239 65.0754C358.185 69.1465 358.195 76.6928 358.271 87.7144C358.276 88.6149 358.344 89.2889 358.473 89.7364C358.748 90.6693 359.228 91.1977 359.913 91.3218C361.428 91.5914 361.417 91.7828 359.88 91.896C357.972 92.0416 355.974 92.047 353.887 91.9122C353.612 91.896 353.475 91.7477 353.475 91.4673C353.485 82.5918 353.48 73.7298 353.458 64.8813C353.458 63.6734 353.353 62.6327 353.143 61.7592C353.107 61.6171 353.042 61.4845 352.951 61.3701C352.861 61.2557 352.747 61.1622 352.617 61.0959Z" fill="#5C6068"/>
<path d="M419.497 75.9869C421.589 72.3634 423.565 68.6778 425.425 64.9303C426.315 63.1347 427.116 60.3847 423.816 60.4494C423.681 60.4548 423.619 60.3901 423.63 60.2553L423.646 60.0207C423.657 59.8967 423.724 59.832 423.848 59.8266L432.025 59.7861C432.241 59.7861 432.295 59.8805 432.187 60.0692C432.09 60.2364 431.893 60.3119 431.597 60.2957C431.332 60.2849 431.084 60.3388 430.852 60.4575C429.413 61.2016 428.413 62.0239 427.852 62.9244C426.283 65.4425 423.778 70.0663 420.338 76.7957C420.138 77.1894 420.025 78.1357 419.998 79.6347C419.939 83.7436 419.906 87.6583 419.901 91.3789C419.901 91.7725 419.704 91.9693 419.311 91.9693H415.857C415.774 91.9693 415.691 91.9529 415.615 91.921C415.538 91.889 415.469 91.8423 415.411 91.7835C415.353 91.7247 415.307 91.655 415.277 91.5786C415.246 91.5022 415.232 91.4205 415.234 91.3384C415.396 84.9083 415.784 79.5943 413.261 75.1943C409.912 69.3707 407.086 64.9707 404.784 61.9942C404.018 61.0021 402.722 60.3901 400.894 60.1582C400.775 60.142 400.721 60.0746 400.732 59.956V59.9479C400.737 59.8455 400.791 59.7942 400.894 59.7942L413.633 59.8347C413.73 59.8347 413.784 59.8805 413.794 59.9722L413.835 60.2148C413.846 60.3011 413.805 60.3442 413.713 60.3442C412.29 60.3119 411.43 60.932 411.133 62.2045C411.063 62.5011 411.106 62.7815 411.263 63.0457L418.793 75.9869C419.03 76.3859 419.265 76.3859 419.497 75.9869Z" fill="#5C6068"/>
<path d="M181.389 122.709C181.379 123.809 180.933 124.861 180.148 125.632C179.363 126.404 178.304 126.832 177.204 126.822L176.605 126.817C176.06 126.812 175.522 126.7 175.02 126.487C174.519 126.274 174.064 125.965 173.682 125.576C173.3 125.187 172.998 124.727 172.794 124.222C172.59 123.717 172.488 123.176 172.492 122.631L172.535 117.762C172.544 116.662 172.991 115.611 173.776 114.839C174.561 114.068 175.62 113.64 176.72 113.65L177.319 113.655C177.864 113.66 178.402 113.772 178.904 113.984C179.405 114.197 179.86 114.507 180.242 114.896C180.624 115.284 180.926 115.744 181.13 116.25C181.334 116.755 181.436 117.295 181.432 117.84L181.389 122.709ZM179.957 117.624C179.953 116.907 179.665 116.222 179.156 115.718C178.647 115.214 177.958 114.933 177.241 114.936L176.627 114.94C175.91 114.943 175.225 115.232 174.721 115.741C174.217 116.25 173.936 116.939 173.939 117.655L173.967 122.912C173.971 123.629 174.259 124.315 174.768 124.819C175.277 125.323 175.966 125.604 176.683 125.6L177.297 125.597C178.014 125.593 178.699 125.305 179.203 124.795C179.707 124.286 179.988 123.597 179.985 122.881L179.957 117.624Z" fill="#5C6068"/>
<path d="M236.651 123.374C237.08 126.383 241.423 126.165 242.07 123.754C242.151 123.458 242.24 123.245 242.337 123.115C242.812 122.479 243.203 122.698 243.51 123.771C243.555 123.924 243.564 124.085 243.536 124.243C243.508 124.4 243.444 124.548 243.348 124.676C242.265 126.143 240.946 126.898 239.393 126.941C234.508 127.071 234.476 121.837 234.928 117.769C235.511 112.455 243.122 112.043 243.486 117.09C243.507 117.392 243.367 117.553 243.065 117.575L242.839 117.583C242.68 117.594 242.522 117.547 242.396 117.45C242.269 117.353 242.182 117.214 242.151 117.057C241.617 114.534 238.722 114.437 237.072 115.707C236.851 115.879 236.719 116.103 236.676 116.378C236.33 118.745 236.322 121.077 236.651 123.374Z" fill="#5C6068"/>
<path d="M192.521 119.297L197.398 119.281C197.431 119.281 197.464 119.288 197.495 119.301C197.525 119.314 197.553 119.334 197.576 119.358C197.598 119.382 197.616 119.411 197.627 119.442C197.638 119.474 197.643 119.507 197.641 119.54L197.608 120.171C197.606 120.234 197.58 120.294 197.534 120.337C197.489 120.381 197.429 120.406 197.366 120.406L192.521 120.381C192.456 120.381 192.395 120.407 192.349 120.452C192.304 120.498 192.278 120.56 192.278 120.624L192.286 126.367C192.286 126.428 192.263 126.488 192.221 126.533C192.179 126.578 192.121 126.605 192.06 126.609L191.146 126.666C191.113 126.668 191.079 126.663 191.048 126.652C191.017 126.641 190.988 126.624 190.964 126.601C190.939 126.578 190.92 126.551 190.907 126.52C190.894 126.489 190.887 126.456 190.887 126.423L190.879 114.089C190.879 114.024 190.904 113.963 190.95 113.917C190.995 113.872 191.057 113.846 191.122 113.846L198.086 113.838C198.12 113.838 198.153 113.845 198.184 113.858C198.216 113.872 198.243 113.892 198.266 113.917C198.289 113.942 198.307 113.972 198.317 114.004C198.328 114.037 198.332 114.071 198.328 114.105L198.272 114.72C198.266 114.78 198.237 114.835 198.192 114.876C198.148 114.916 198.089 114.938 198.029 114.938L192.513 114.954C192.448 114.954 192.387 114.98 192.341 115.025C192.296 115.071 192.27 115.132 192.27 115.197L192.278 119.055C192.278 119.119 192.304 119.181 192.349 119.226C192.395 119.272 192.456 119.297 192.521 119.297Z" fill="#5C6068"/>
<path d="M208.943 115.197L208.983 119.038C208.983 119.095 209.005 119.149 209.044 119.19C209.084 119.231 209.137 119.255 209.193 119.257L214.176 119.419C214.226 119.422 214.273 119.442 214.31 119.476C214.347 119.51 214.371 119.555 214.378 119.605L214.451 120.098C214.455 120.129 214.453 120.16 214.445 120.19C214.437 120.219 214.422 120.247 214.402 120.271C214.382 120.295 214.358 120.314 214.33 120.327C214.302 120.341 214.271 120.348 214.241 120.349L209.234 120.414C209.177 120.413 209.123 120.435 209.082 120.475C209.042 120.514 209.018 120.567 209.016 120.624L208.886 126.383C208.884 126.436 208.863 126.488 208.825 126.527C208.788 126.565 208.738 126.589 208.684 126.593L207.657 126.69C207.626 126.693 207.595 126.69 207.566 126.681C207.536 126.671 207.509 126.656 207.486 126.635C207.463 126.615 207.445 126.589 207.433 126.561C207.42 126.533 207.414 126.502 207.414 126.472L207.438 114.088C207.438 114.031 207.461 113.975 207.502 113.934C207.543 113.893 207.599 113.87 207.657 113.87L214.734 113.919C214.769 113.919 214.803 113.928 214.833 113.944C214.864 113.961 214.89 113.984 214.91 114.012C214.929 114.041 214.942 114.074 214.947 114.108C214.951 114.142 214.948 114.177 214.936 114.21L214.742 114.744C214.727 114.786 214.7 114.822 214.664 114.848C214.628 114.874 214.584 114.888 214.54 114.889L209.161 114.978C209.103 114.978 209.048 115.001 209.007 115.042C208.966 115.083 208.943 115.139 208.943 115.197Z" fill="#5C6068"/>
<path d="M224.877 113.831L224.521 113.83C224.244 113.829 224.019 114.054 224.019 114.331L223.998 126.123C223.998 126.4 224.222 126.625 224.499 126.626L224.855 126.626C225.132 126.627 225.356 126.403 225.357 126.126L225.377 114.333C225.378 114.056 225.154 113.831 224.877 113.831Z" fill="#5C6068"/>
<path d="M254.283 120.988L254.219 125.226C254.219 125.256 254.225 125.286 254.236 125.313C254.247 125.341 254.264 125.366 254.285 125.387C254.306 125.408 254.331 125.424 254.359 125.436C254.386 125.447 254.415 125.453 254.445 125.453L259.808 125.461C259.849 125.461 259.89 125.472 259.926 125.493C259.962 125.515 259.991 125.545 260.01 125.582L260.398 126.294C260.418 126.328 260.428 126.367 260.428 126.407C260.429 126.446 260.418 126.485 260.399 126.52C260.379 126.554 260.351 126.583 260.317 126.603C260.282 126.623 260.244 126.633 260.204 126.634L252.957 126.593C252.897 126.593 252.839 126.57 252.797 126.527C252.754 126.485 252.73 126.427 252.73 126.367L252.747 114.113C252.747 114.053 252.771 113.996 252.813 113.953C252.855 113.911 252.913 113.887 252.973 113.887L260.01 113.919C260.044 113.919 260.078 113.927 260.109 113.943C260.14 113.958 260.167 113.98 260.188 114.007C260.209 114.035 260.224 114.066 260.231 114.1C260.238 114.134 260.237 114.169 260.228 114.202L260.091 114.744C260.078 114.793 260.05 114.835 260.011 114.866C259.971 114.897 259.922 114.914 259.872 114.914L254.469 114.962C254.409 114.962 254.352 114.986 254.309 115.029C254.267 115.071 254.243 115.129 254.243 115.189L254.259 119.419C254.259 119.479 254.283 119.537 254.325 119.579C254.368 119.622 254.426 119.646 254.486 119.646L259.444 119.694C259.497 119.695 259.548 119.716 259.588 119.751C259.628 119.787 259.654 119.835 259.662 119.888L259.751 120.487C259.756 120.518 259.753 120.551 259.745 120.581C259.736 120.612 259.721 120.641 259.7 120.665C259.679 120.69 259.654 120.709 259.625 120.723C259.596 120.737 259.565 120.745 259.533 120.746L254.502 120.77C254.445 120.772 254.39 120.795 254.35 120.836C254.309 120.877 254.285 120.931 254.283 120.988Z" fill="#5C6068"/>
</svg>
