<svg width="534" height="370" viewBox="0 0 534 370" fill="none" xmlns="http://www.w3.org/2000/svg">
<path d="M258.432 2.62974C257.872 3.82974 258.532 4.56975 259.702 4.86975C260.269 5.02308 260.839 5.16974 261.412 5.30974C266.992 6.73974 261.332 14.0897 257.042 9.78974C256.609 9.34974 256.582 8.88641 256.962 8.39975C257.182 8.11975 257.452 8.04975 257.772 8.18975C258.259 8.40975 258.655 8.74308 258.962 9.18975C259.055 9.32804 259.185 9.43773 259.337 9.50659C259.489 9.57546 259.657 9.60078 259.822 9.57975L260.692 9.45974C261.047 9.41332 261.372 9.23817 261.606 8.96758C261.841 8.69698 261.967 8.34979 261.962 7.99195C261.958 7.6341 261.821 7.29053 261.58 7.0265C261.338 6.76247 261.008 6.59636 260.652 6.55974C252.842 5.71974 256.802 -1.55026 262.402 1.09974C262.662 1.22307 262.87 1.43528 262.989 1.69882C263.108 1.96235 263.13 2.26023 263.052 2.53974C262.892 3.08641 262.622 3.39641 262.242 3.46974C261.929 3.52974 261.699 3.41641 261.552 3.12974C261.039 2.13641 260.239 1.76974 259.152 2.02974C258.812 2.11641 258.572 2.31641 258.432 2.62974Z" fill="#5C6068"/>
<path d="M274.1 2.51975L271.98 2.22976C271.912 2.2203 271.85 2.18694 271.804 2.13566C271.758 2.08437 271.732 2.01849 271.73 1.94975V0.949754C271.73 0.909009 271.739 0.868677 271.755 0.831383C271.771 0.79409 271.796 0.760676 271.826 0.733315C271.856 0.705954 271.892 0.685259 271.93 0.672585C271.969 0.659911 272.01 0.655545 272.05 0.65976L278.81 1.33975C278.886 1.34975 278.954 1.38886 279.001 1.44869C279.048 1.50853 279.069 1.58431 279.06 1.65976L278.92 2.86976C278.915 2.90913 278.901 2.94686 278.879 2.98061C278.858 3.01435 278.831 3.04339 278.798 3.0659C278.765 3.08842 278.728 3.10393 278.689 3.11147C278.65 3.11902 278.609 3.11843 278.57 3.10976L276.35 2.64976C276.312 2.64108 276.271 2.6405 276.232 2.64804C276.193 2.65559 276.156 2.6711 276.123 2.69361C276.09 2.71613 276.063 2.74516 276.041 2.77891C276.02 2.81265 276.006 2.85038 276 2.88976L274.99 10.8698C274.981 10.9379 274.948 11.0004 274.896 11.0462C274.845 11.092 274.779 11.118 274.71 11.1198L274.02 11.1298C273.979 11.1314 273.937 11.1241 273.899 11.1083C273.86 11.0926 273.826 11.0687 273.797 11.0383C273.769 11.008 273.747 10.9719 273.734 10.9324C273.721 10.893 273.716 10.8511 273.72 10.8098L274.35 2.82976C274.356 2.75594 274.334 2.6827 274.287 2.62506C274.241 2.56742 274.174 2.52974 274.1 2.51975Z" fill="#5C6068"/>
<path d="M246.83 10.7404C247.21 8.43039 246 5.48039 245.38 3.30039C245.28 2.95373 245.41 2.77039 245.77 2.75039L246.55 2.71039C246.957 2.69039 247.2 2.88373 247.28 3.29039L248.51 9.43039C248.596 9.85901 248.592 10.3008 248.499 10.7279C248.406 11.155 248.226 11.5582 247.969 11.9123C247.713 12.2663 247.386 12.5635 247.009 12.7852C246.632 13.0069 246.214 13.1482 245.78 13.2004L244.99 13.2904C244.323 13.3671 243.65 13.1997 243.097 12.8192C242.544 12.4387 242.147 11.8708 241.98 11.2204L240.28 4.58039C240.193 4.22039 240.323 3.98039 240.67 3.86039L240.98 3.76039C241.123 3.7136 241.275 3.70048 241.424 3.72208C241.573 3.74367 241.715 3.79939 241.838 3.8848C241.962 3.97021 242.063 4.08297 242.135 4.21413C242.206 4.34529 242.245 4.49124 242.25 4.64039C242.323 6.77372 242.763 8.82373 243.57 10.7904C243.697 11.0904 243.907 11.3071 244.2 11.4404C244.873 11.7537 245.553 11.7671 246.24 11.4804C246.573 11.3404 246.77 11.0937 246.83 10.7404Z" fill="#5C6068"/>
<path d="M288.06 9.47968L287.7 11.3197C287.64 11.653 287.767 11.883 288.08 12.0097L291.42 13.3197C291.5 13.3463 291.533 13.4063 291.52 13.4997L291.46 13.9197C291.447 14.0089 291.414 14.0941 291.365 14.1699C291.316 14.2456 291.251 14.3102 291.174 14.3593C291.098 14.4084 291.012 14.4409 290.921 14.4548C290.831 14.4686 290.739 14.4635 290.65 14.4397L286.34 13.2597C286.193 13.2196 286.056 13.1503 285.937 13.056C285.818 12.9617 285.719 12.8442 285.646 12.7107C285.573 12.5772 285.528 12.4303 285.513 12.2789C285.498 12.1275 285.514 11.9747 285.56 11.8297L288.01 3.97968C288.103 3.67968 288.307 3.543 288.62 3.56967C290.173 3.703 291.383 3.98967 292.25 4.42967C294.77 5.71634 294.617 6.28967 291.79 6.14967C291.623 6.13634 291.043 5.87967 290.05 5.37967C289.972 5.33975 289.886 5.31636 289.799 5.31096C289.711 5.30556 289.623 5.31826 289.541 5.34828C289.458 5.3783 289.383 5.42499 289.319 5.48544C289.255 5.5459 289.204 5.61881 289.17 5.69967L288.59 7.10967C288.397 7.58967 288.55 7.88634 289.05 7.99967L291.78 8.61967C291.85 8.6344 291.916 8.66354 291.973 8.70529C292.031 8.74704 292.08 8.8005 292.117 8.86237C292.153 8.92425 292.177 8.99322 292.186 9.06499C292.195 9.13677 292.19 9.20984 292.17 9.27967L292.09 9.53967C292.065 9.62722 292.023 9.7089 291.966 9.77999C291.909 9.85108 291.838 9.91018 291.758 9.95388C291.678 9.99758 291.59 10.025 291.5 10.0346C291.409 10.0442 291.317 10.0357 291.23 10.0097L288.55 9.17967C288.277 9.09967 288.113 9.19968 288.06 9.47968Z" fill="#5C6068"/>
<path d="M229.243 15.4301L230.503 17.9801C230.537 18.0459 230.555 18.1188 230.557 18.1928C230.558 18.2669 230.542 18.3402 230.51 18.407C230.478 18.4739 230.431 18.5324 230.372 18.578C230.314 18.6237 230.246 18.6552 230.173 18.6701L229.793 18.7501C229.333 18.8501 229.003 18.6834 228.803 18.2501L225.333 10.5701C225.257 10.3981 225.245 10.2045 225.3 10.0257C225.355 9.84699 225.474 9.69556 225.633 9.60009C227.053 8.75343 228.58 8.25676 230.213 8.11009C230.553 8.07676 230.853 8.17009 231.113 8.39009C232.647 9.67676 233.037 11.1501 232.283 12.8101C232.13 13.1368 232.197 13.4068 232.483 13.6201L235.113 15.6201C235.527 15.9334 235.493 16.1934 235.013 16.4001L234.673 16.5401C234.167 16.7601 233.707 16.6868 233.293 16.3201C232.013 15.1868 231.163 14.5201 230.743 14.3201C230.143 14.0268 229.66 14.1468 229.293 14.6801C229.127 14.9201 229.11 15.1701 229.243 15.4301ZM227.393 10.8601L228.193 12.8701C228.253 13.0171 228.369 13.1344 228.515 13.1962C228.661 13.2581 228.826 13.2595 228.973 13.2001L230.063 12.7601C230.249 12.6861 230.418 12.5776 230.562 12.4411C230.706 12.3045 230.822 12.1424 230.903 11.9642C230.984 11.7859 231.028 11.5948 231.033 11.4019C231.038 11.2091 231.004 11.0182 230.933 10.8401L230.773 10.4301C230.629 10.0716 230.343 9.78719 229.978 9.63912C229.612 9.49104 229.197 9.49139 228.823 9.64009L227.723 10.0801C227.576 10.14 227.459 10.2557 227.397 10.4019C227.335 10.5481 227.334 10.7129 227.393 10.8601Z" fill="#5C6068"/>
<path d="M302.733 9.07045C302.774 8.9863 302.831 8.91099 302.9 8.84884C302.97 8.78668 303.052 8.73892 303.14 8.70826C303.228 8.6776 303.321 8.66466 303.415 8.67019C303.508 8.67571 303.599 8.69959 303.683 8.74045L306.003 9.88045C306.889 10.3182 307.565 11.0906 307.882 12.0281C308.199 12.9655 308.131 13.9914 307.693 14.8804L306.553 17.2205C306.337 17.6615 306.035 18.0556 305.667 18.3802C305.298 18.7049 304.869 18.9537 304.405 19.1125C303.941 19.2714 303.45 19.337 302.96 19.3058C302.471 19.2745 301.993 19.147 301.553 18.9304L299.233 17.7905C299.065 17.7067 298.937 17.5596 298.877 17.3816C298.817 17.2035 298.83 17.0089 298.913 16.8404L302.733 9.07045ZM306.493 13.1372C306.627 12.869 306.649 12.5586 306.554 12.2744C306.459 11.9902 306.255 11.7554 305.986 11.6216L304.877 11.0684C304.608 10.9347 304.298 10.913 304.014 11.0081C303.73 11.1032 303.495 11.3073 303.361 11.5754L301.273 15.7637C301.139 16.0319 301.118 16.3423 301.213 16.6265C301.308 16.9107 301.512 17.1455 301.78 17.2793L302.89 17.8325C303.158 17.9662 303.468 17.9879 303.753 17.8928C304.037 17.7977 304.272 17.5936 304.405 17.3254L306.493 13.1372Z" fill="#5C6068"/>
<path d="M214.182 18.3404C214.139 18.2764 214.081 18.224 214.013 18.1878C213.945 18.1516 213.869 18.1327 213.792 18.1327C213.715 18.1327 213.639 18.1516 213.571 18.1878C213.503 18.224 213.445 18.2764 213.402 18.3404C213.002 18.9404 212.458 19.2804 211.772 19.3604C211.623 19.3745 211.473 19.3392 211.347 19.2599C211.22 19.1806 211.123 19.0617 211.07 18.9216C211.018 18.7815 211.013 18.6281 211.057 18.4851C211.101 18.342 211.19 18.2174 211.312 18.1304L216.372 14.6204C216.509 14.5252 216.674 14.4784 216.84 14.4874C217.007 14.4965 217.166 14.5609 217.292 14.6704L217.512 14.8504C217.566 14.8962 217.611 14.9528 217.643 15.0167C217.675 15.0806 217.693 15.1504 217.697 15.2217C217.701 15.293 217.69 15.3643 217.665 15.4311C217.64 15.498 217.601 15.559 217.552 15.6104C217.105 16.0704 216.588 16.4304 216.002 16.6904C215.905 16.7321 215.818 16.795 215.749 16.8743C215.679 16.9536 215.628 17.0475 215.6 17.149C215.571 17.2505 215.565 17.3572 215.583 17.4612C215.6 17.5652 215.641 17.664 215.702 17.7504L219.832 23.6804C219.882 23.7531 219.917 23.8361 219.932 23.9234C219.947 24.0107 219.943 24.1004 219.92 24.186C219.898 24.2717 219.856 24.3514 219.8 24.4195C219.743 24.4876 219.672 24.5425 219.592 24.5804L219.312 24.7104C218.858 24.9304 218.492 24.8304 218.212 24.4104L214.182 18.3404Z" fill="#5C6068"/>
<path d="M299.671 87.1804C301.441 87.5604 302.961 88.7004 304.481 89.1404C306.351 89.6704 308.451 89.8904 309.891 91.1504C313.341 94.1404 312.811 99.4204 312.881 104.75C313.187 125.264 313.314 145.46 313.261 165.34C313.254 166.434 312.791 167.267 311.871 167.84L304.881 172.17C303.754 172.864 302.757 172.714 301.891 171.72C294.517 163.314 287.011 154.617 279.371 145.63C276.521 142.29 272.541 138.71 270.201 135.81C264.454 128.67 260.117 123.504 257.191 120.31C256.411 119.46 255.181 118.84 254.481 118.05C251.354 114.51 246.704 109.01 240.531 101.55C240.137 101.07 239.614 100.547 238.961 99.9804C235.641 97.0804 233.051 93.6304 230.251 90.2604C230.031 89.9937 229.484 89.6504 228.611 89.2304C226.791 88.3504 226.191 86.6604 223.871 86.7704C220.021 86.9504 216.141 85.9904 212.721 85.9904C209.887 85.9904 207.057 85.9904 204.231 85.9904C202.351 85.9904 200.911 86.8004 198.921 86.7804C198.394 86.7737 198.331 86.9437 198.731 87.2904C200.311 88.6304 202.061 89.1304 203.531 90.5504C205.351 92.3104 207.441 93.3304 209.241 95.1004C210.911 96.7304 212.951 97.9904 214.511 99.4604C218.921 103.64 220.441 104.65 220.471 111.25C220.531 125.084 220.551 138.947 220.531 152.84C220.53 152.904 220.511 152.966 220.475 153.018C220.439 153.071 220.389 153.111 220.33 153.135C220.271 153.159 220.206 153.164 220.144 153.151C220.082 153.138 220.025 153.106 219.981 153.06C217.654 150.767 215.277 148.464 212.851 146.15C174.721 109.76 188.201 46.4004 235.551 26.4004C275.751 9.43041 321.561 30.8604 334.471 72.4404C342.141 97.1804 335.841 124.25 318.511 143.33C318.228 143.639 318.071 144.046 318.071 144.47L318.041 159.29C318.034 161.03 318.671 161.31 319.951 160.13C324.431 155.997 328.607 151.58 332.481 146.88C334.461 144.47 335.951 141.55 337.781 138.86C339.941 135.66 342.061 131.31 343.301 127.72C343.447 127.287 343.727 127.17 344.141 127.37L344.751 127.67C345.004 127.79 345.074 127.984 344.961 128.25C340.101 139.87 334.181 148.26 325.441 157.21C323.071 159.64 319.611 161.82 317.051 164.58C316.989 164.647 316.909 164.693 316.82 164.713C316.731 164.733 316.639 164.726 316.555 164.693C316.47 164.659 316.398 164.601 316.347 164.525C316.297 164.45 316.27 164.361 316.271 164.27C316.291 143.41 316.321 122.4 316.361 101.24C316.361 98.0504 317.771 90.8204 322.121 89.6704C324.301 89.0971 326.294 88.4371 328.101 87.6904C329.221 87.2371 329.177 86.9837 327.971 86.9304C318.844 86.5304 309.421 86.5304 299.701 86.9304C299.034 86.9571 299.024 87.0404 299.671 87.1804ZM304.211 170.79L311.301 166.09C311.607 165.884 311.761 165.594 311.761 165.22L311.721 150.36C311.722 150.318 311.711 150.277 311.689 150.242C311.666 150.206 311.634 150.178 311.595 150.16C311.556 150.142 311.513 150.136 311.469 150.141C311.426 150.146 311.385 150.164 311.351 150.19C306.384 154.437 300.921 157.907 294.961 160.6C294.634 160.747 294.587 160.957 294.821 161.23L302.941 170.61C303.094 170.79 303.308 170.907 303.542 170.94C303.776 170.973 304.013 170.92 304.211 170.79Z" fill="#5C6068"/>
<path d="M322.19 28.8899L320.5 30.8899C320.423 30.9818 320.313 31.041 320.193 31.0558C320.073 31.0706 319.95 31.04 319.85 30.9699L319.5 30.7299C319.412 30.6683 319.338 30.5886 319.283 30.4963C319.228 30.4039 319.193 30.3009 319.181 30.1941C319.168 30.0873 319.179 29.9792 319.212 29.8767C319.244 29.7743 319.298 29.6799 319.37 29.5999L325.26 23.0799C325.493 22.8266 325.733 22.8199 325.98 23.0599C327.76 24.7999 331.38 27.1499 328.12 29.8799C326.18 31.4999 324.55 30.3099 323.02 28.8499C322.727 28.5632 322.45 28.5766 322.19 28.8899ZM327.483 27.8366C327.678 27.6304 327.783 27.3552 327.775 27.0715C327.767 26.7879 327.647 26.519 327.441 26.324L326.656 25.5819C326.45 25.3869 326.175 25.2818 325.891 25.2897C325.608 25.2976 325.339 25.4179 325.144 25.6241L324.237 26.5832C324.042 26.7894 323.937 27.0646 323.945 27.3483C323.952 27.6319 324.073 27.9008 324.279 28.0958L325.064 28.8379C325.27 29.0329 325.545 29.138 325.829 29.1301C326.112 29.1222 326.381 29.0019 326.576 28.7957L327.483 27.8366Z" fill="#5C6068"/>
<path d="M282.991 178.07C280.201 174.08 276.931 169.37 273.181 167.11C272.908 166.948 272.592 166.877 272.281 166.91C259.074 168.296 247.074 166.63 236.281 161.91C234.341 161.056 230.401 159.103 224.461 156.05C224.174 155.896 224.027 155.656 224.021 155.33C223.994 143.296 223.991 131.266 224.011 119.24C224.021 116.27 224.621 113.31 224.801 110.32C224.834 109.786 225.027 109.72 225.381 110.12C232.874 118.533 239.807 126.346 246.181 133.56C257.187 146.013 268.151 158.506 279.071 171.04C280.991 173.25 284.091 175.46 286.181 178.54C286.232 178.616 286.263 178.703 286.273 178.795C286.282 178.886 286.269 178.978 286.234 179.063C286.2 179.148 286.145 179.223 286.074 179.282C286.004 179.34 285.92 179.381 285.831 179.4C282.141 180.2 278.801 181.51 274.991 181.54C268.311 181.586 261.631 181.586 254.951 181.54C253.957 181.533 252.531 181.313 250.671 180.88C248.651 180.42 246.751 180.64 244.851 180.13C243.104 179.65 241.357 179.18 239.611 178.72C235.941 177.76 232.641 175.7 228.901 174.47C226.667 173.736 224.821 172.906 223.361 171.98C212.731 165.21 202.481 158.18 194.831 147.93C178.711 126.35 172.371 98.8597 179.501 72.4197C181.941 63.3897 184.651 56.6397 189.011 49.8897C191.211 46.4897 193.151 42.8597 195.681 39.8097C196.861 38.3897 198.061 36.9864 199.281 35.5997C200.921 33.7497 203.371 32.2597 205.111 30.0497C205.251 29.8631 205.404 29.7497 205.571 29.7097C205.797 29.6564 206.001 29.6697 206.181 29.7497C206.261 29.7866 206.331 29.8412 206.387 29.9094C206.443 29.9776 206.483 30.0577 206.503 30.1435C206.523 30.2293 206.523 30.3186 206.504 30.4046C206.485 30.4906 206.446 30.571 206.391 30.6397C202.291 35.6097 196.841 39.5497 193.741 45.2497C191.881 48.6797 189.401 52.0497 187.811 55.1897C176.821 77.0097 175.291 101.24 183.761 124.55C186.981 133.43 192.611 143.01 198.311 149.7C201.941 153.96 208.231 159.97 213.771 163.81C218.361 166.99 222.911 170.31 228.081 172.5C230.401 173.48 232.391 174.89 234.771 175.52C237.957 176.373 241.127 177.276 244.281 178.23C246.621 178.93 248.921 178.6 251.381 179.12C254.101 179.69 256.811 179.66 260.001 180.53C262.627 181.256 265.767 181.186 269.421 180.32C273.711 179.3 278.351 179.26 282.711 178.69C283.144 178.63 283.237 178.423 282.991 178.07Z" fill="#5C6068"/>
<path d="M330.622 39.5797C330.176 39.793 329.709 39.9297 329.222 39.9897C328.789 40.0364 328.496 39.8597 328.342 39.4597L328.212 39.1497C328.132 38.9297 328.199 38.783 328.412 38.7097L337.032 35.5997C337.183 35.5442 337.346 35.5271 337.506 35.5498C337.667 35.5724 337.82 35.6342 337.952 35.7297C338.226 35.923 338.446 36.1664 338.612 36.4597C338.806 36.793 338.799 37.1197 338.592 37.4397L333.692 44.9897C333.646 45.0619 333.584 45.1235 333.512 45.1703C333.44 45.2172 333.359 45.2482 333.274 45.2614C333.189 45.2747 333.102 45.2697 333.019 45.247C332.936 45.2243 332.859 45.1843 332.792 45.1297L332.502 44.8997C332.176 44.6264 332.129 44.313 332.362 43.9597L333.202 42.7097C333.396 42.4164 333.386 42.1297 333.172 41.8497L331.582 39.8097C331.322 39.4764 331.002 39.3997 330.622 39.5797ZM336.322 37.5297L333.202 38.6297C333.133 38.6531 333.07 38.6937 333.019 38.7478C332.969 38.8019 332.933 38.8678 332.914 38.9399C332.896 39.012 332.895 39.088 332.912 39.1611C332.929 39.2343 332.963 39.3025 333.012 39.3597L333.852 40.3097C334.159 40.663 334.452 40.653 334.732 40.2797L336.552 37.8297C336.575 37.795 336.587 37.754 336.585 37.7124C336.584 37.6709 336.57 37.6308 336.544 37.5978C336.519 37.5648 336.484 37.5405 336.444 37.5283C336.404 37.5161 336.362 37.5166 336.322 37.5297Z" fill="#5C6068"/>
<path d="M342.63 55.0201L340.75 57.6701C340.708 57.7299 340.652 57.7782 340.587 57.8109C340.521 57.8435 340.448 57.8596 340.375 57.8576C340.301 57.8556 340.228 57.8357 340.163 57.7996C340.098 57.7634 340.042 57.7121 340 57.6501L339.83 57.4001C339.537 56.9601 339.534 56.5168 339.82 56.0701C340.32 55.2968 340.877 54.5134 341.49 53.7201C341.79 53.3334 341.93 52.9968 341.91 52.7101C341.89 52.4701 341.79 52.2668 341.61 52.1001C341.29 51.8001 340.937 51.7468 340.55 51.9401L338.49 52.9701C338.327 53.0536 338.14 53.0812 337.957 53.0487C337.775 53.0163 337.608 52.9255 337.48 52.7901L337.21 52.4901C337.163 52.4369 337.128 52.3736 337.108 52.3048C337.088 52.2361 337.085 52.1637 337.097 52.0933C337.11 52.0229 337.138 51.9563 337.18 51.8986C337.222 51.8408 337.277 51.7935 337.34 51.7601L345.12 47.6801C345.48 47.4868 345.78 47.5534 346.02 47.8801C346.947 49.1201 347.64 50.4834 348.1 51.9701C348.151 52.1337 348.167 52.3064 348.146 52.477C348.125 52.6475 348.069 52.8122 347.98 52.9601C346.874 54.8134 345.317 55.4234 343.31 54.7901C343.03 54.7034 342.804 54.7801 342.63 55.0201ZM345.678 50.1556C345.609 50.0395 345.517 49.9383 345.408 49.8576C345.3 49.777 345.176 49.7185 345.045 49.6855C344.914 49.6526 344.778 49.6458 344.644 49.6655C344.51 49.6853 344.381 49.7312 344.265 49.8007L343.27 50.3964C343.154 50.4658 343.053 50.5575 342.972 50.6661C342.891 50.7747 342.833 50.8981 342.8 51.0293C342.767 51.1605 342.76 51.2969 342.78 51.4307C342.8 51.5645 342.846 51.6931 342.915 51.8092L343.583 52.9246C343.652 53.0407 343.744 53.1419 343.852 53.2226C343.961 53.3032 344.084 53.3617 344.216 53.3946C344.347 53.4276 344.483 53.4344 344.617 53.4146C344.751 53.3949 344.879 53.349 344.996 53.2795L345.991 52.6838C346.107 52.6143 346.208 52.5227 346.289 52.4141C346.369 52.3055 346.428 52.1821 346.461 52.0509C346.494 51.9197 346.501 51.7833 346.481 51.6495C346.461 51.5157 346.415 51.3871 346.346 51.271L345.678 50.1556Z" fill="#5C6068"/>
<path d="M351.662 63.9901L351.092 62.8101C350.892 62.3901 351.008 62.1001 351.442 61.9401L351.712 61.8401C352.305 61.6201 352.685 61.8167 352.852 62.43L354.322 67.9701C354.343 68.0495 354.346 68.1324 354.331 68.2132C354.316 68.2939 354.283 68.3703 354.236 68.4371C354.188 68.5039 354.126 68.5594 354.055 68.5996C353.983 68.6399 353.904 68.6639 353.822 68.6701L353.492 68.6901C353.365 68.6982 353.24 68.6558 353.143 68.5719C353.046 68.4879 352.985 68.369 352.972 68.2401C352.918 67.6667 352.779 67.1167 352.552 66.5901C352.497 66.4715 352.4 66.3773 352.28 66.3257C352.16 66.274 352.026 66.2684 351.902 66.3101L344.842 68.65C344.422 68.79 344.165 68.6467 344.072 68.2201L343.952 67.6601C343.872 67.3001 344.009 67.0634 344.362 66.9501L351.292 64.8501C351.376 64.8248 351.454 64.7812 351.52 64.7223C351.586 64.6633 351.639 64.5905 351.674 64.5087C351.709 64.4269 351.726 64.3382 351.724 64.2487C351.722 64.1591 351.701 64.0709 351.662 63.9901Z" fill="#5C6068"/>
<path d="M352.852 79.7298L347.612 80.1798C347.232 80.2131 347.029 80.0364 347.002 79.6498C346.996 79.5298 346.992 79.4064 346.992 79.2798C346.992 79.0464 347.109 78.9131 347.342 78.8798C350.282 78.4264 352.656 78.1298 354.462 77.9898C357.542 77.7564 357.822 78.5298 355.302 80.3098L351.062 83.3198C351.009 83.3584 350.971 83.4136 350.954 83.4766C350.936 83.5397 350.941 83.6067 350.966 83.6669C350.992 83.7271 351.037 83.777 351.094 83.8084C351.151 83.8397 351.218 83.8508 351.282 83.8398C352.875 83.5464 354.432 83.1231 355.952 82.5698C356.079 82.5239 356.213 82.5053 356.348 82.5154C356.482 82.5255 356.612 82.564 356.73 82.6282C356.848 82.6925 356.952 82.7812 357.033 82.8883C357.114 82.9955 357.172 83.1187 357.202 83.2498L357.302 83.7098C357.402 84.1431 357.232 84.3864 356.792 84.4398L348.502 85.4398C348.176 85.4798 347.916 85.3664 347.722 85.0998C347.249 84.4531 347.359 83.9264 348.052 83.5198C349.786 82.5131 351.439 81.3798 353.012 80.1198C353.386 79.8198 353.332 79.6898 352.852 79.7298Z" fill="#5C6068"/>
<path d="M353.62 95.95L353.461 99.76C353.459 99.7968 353.451 99.833 353.435 99.8665C353.42 99.8999 353.398 99.9301 353.371 99.9551C353.345 99.9802 353.313 99.9997 353.278 100.013C353.244 100.025 353.207 100.031 353.171 100.03L352.22 99.98C352.183 99.9775 352.146 99.9675 352.112 99.9504C352.078 99.9333 352.049 99.9095 352.024 99.8806C352 99.8516 351.982 99.818 351.971 99.7818C351.96 99.7456 351.956 99.7076 351.961 99.67L352.34 95.81C352.345 95.7708 352.341 95.7312 352.328 95.6936C352.316 95.6561 352.296 95.6216 352.27 95.5923C352.243 95.5631 352.211 95.5397 352.175 95.5238C352.139 95.5079 352.1 95.4998 352.06 95.5L349.461 95.48C349.424 95.4787 349.387 95.4846 349.353 95.4975C349.318 95.5103 349.286 95.5298 349.26 95.5549C349.233 95.58 349.211 95.6101 349.196 95.6436C349.18 95.6771 349.172 95.7132 349.171 95.75L348.951 99.69C348.947 99.7529 348.922 99.8128 348.881 99.86C348.839 99.9071 348.782 99.9389 348.72 99.95L348.06 100.06C348.02 100.067 347.978 100.066 347.938 100.055C347.898 100.044 347.861 100.025 347.829 99.998C347.798 99.9713 347.773 99.9378 347.755 99.9001C347.738 99.8624 347.73 99.8214 347.731 99.78L347.821 94.12C347.82 94.0824 347.828 94.0451 347.843 94.0105C347.857 93.9759 347.879 93.9446 347.906 93.9184C347.933 93.8923 347.965 93.8719 348 93.8584C348.035 93.8449 348.073 93.8387 348.111 93.84L357.571 94.31C357.607 94.3113 357.643 94.3198 357.677 94.3351C357.71 94.3504 357.741 94.3721 357.766 94.3991C357.791 94.426 357.81 94.4576 357.823 94.4921C357.836 94.5266 357.842 94.5633 357.84 94.6L357.451 100.31C357.448 100.348 357.438 100.385 357.421 100.418C357.404 100.452 357.38 100.482 357.351 100.506C357.322 100.531 357.288 100.549 357.252 100.56C357.216 100.571 357.178 100.574 357.141 100.57L356.34 100.47C356.268 100.462 356.201 100.427 356.155 100.371C356.108 100.315 356.085 100.243 356.09 100.17L356.391 96.26C356.396 96.1873 356.373 96.1153 356.326 96.0592C356.28 96.0032 356.213 95.9676 356.141 95.96L353.931 95.69C353.893 95.6859 353.855 95.6894 353.819 95.7004C353.783 95.7113 353.749 95.7295 353.72 95.7538C353.691 95.7781 353.667 95.808 353.65 95.8417C353.633 95.8755 353.623 95.9123 353.62 95.95Z" fill="#5C6068"/>
<path d="M349.532 110.13C348.539 110.05 347.589 109.8 346.682 109.38C346.598 109.339 346.522 109.279 346.462 109.205C346.402 109.131 346.357 109.044 346.332 108.95C346.272 108.71 346.296 108.503 346.402 108.33C346.562 108.063 346.792 107.963 347.092 108.03L355.592 109.87C355.992 109.956 356.186 110.206 356.172 110.62C355.992 114.38 353.512 118.66 349.592 114.2C349.226 113.786 348.796 113.706 348.302 113.96C347.482 114.38 346.666 114.523 345.852 114.39C344.859 114.223 344.789 113.866 345.642 113.32C346.569 112.733 347.699 112.28 349.032 111.96C349.466 111.86 349.756 111.696 349.902 111.47C350.049 111.243 350.109 110.976 350.082 110.67C350.069 110.529 350.006 110.399 349.905 110.3C349.805 110.201 349.673 110.141 349.532 110.13ZM354.252 112.354C354.28 112.207 354.28 112.056 354.25 111.909C354.22 111.762 354.162 111.623 354.078 111.499C353.994 111.375 353.887 111.268 353.762 111.185C353.637 111.103 353.497 111.046 353.35 111.017L352.467 110.845C352.32 110.817 352.169 110.817 352.022 110.847C351.875 110.877 351.736 110.936 351.612 111.019C351.488 111.103 351.381 111.21 351.299 111.335C351.216 111.46 351.159 111.6 351.13 111.747L350.913 112.866C350.884 113.013 350.885 113.164 350.915 113.311C350.945 113.457 351.003 113.597 351.087 113.721C351.17 113.845 351.278 113.951 351.403 114.034C351.527 114.117 351.667 114.174 351.814 114.202L352.698 114.374C352.845 114.403 352.996 114.402 353.142 114.372C353.289 114.342 353.429 114.284 353.553 114.2C353.677 114.117 353.783 114.009 353.866 113.884C353.948 113.76 354.006 113.62 354.034 113.473L354.252 112.354Z" fill="#5C6068"/>
<path d="M182.38 252.817C181.467 252.864 180.69 252.707 180.05 252.347C179.918 252.274 179.808 252.167 179.729 252.037C179.65 251.908 179.606 251.76 179.6 251.607L178.62 214.177C178.613 213.844 178.44 213.677 178.1 213.677C177.5 213.684 176.923 213.581 176.37 213.367C176.297 213.341 176.263 213.287 176.27 213.207L176.29 212.917C176.297 212.797 176.36 212.737 176.48 212.737L187.71 212.767C187.754 212.765 187.796 212.778 187.829 212.805C187.862 212.832 187.885 212.87 187.892 212.913C187.899 212.957 187.891 213.002 187.869 213.041C187.846 213.08 187.811 213.111 187.77 213.127L186.98 213.417C186.693 213.524 186.477 213.714 186.33 213.987C185.57 215.367 184.86 216.327 184.86 217.997C184.9 230.891 184.893 243.777 184.84 256.657C184.84 256.703 184.831 256.749 184.813 256.791C184.796 256.834 184.77 256.872 184.737 256.905C184.705 256.937 184.666 256.963 184.624 256.981C184.581 256.998 184.536 257.007 184.49 257.007H54.06C53.6867 257.007 53.5 256.824 53.5 256.457V253.337C53.5 253.186 53.559 253.041 53.664 252.934C53.769 252.827 53.9115 252.767 54.06 252.767H74C74.36 252.767 74.5367 252.584 74.53 252.217C74.31 243.587 71.8 237.117 63.44 233.777C63.24 233.697 63.1867 233.561 63.28 233.367L65.07 229.467C65.1367 229.314 65.25 229.271 65.41 229.337C75.25 233.571 79.95 241.201 79.51 252.227C79.4967 252.567 79.6633 252.737 80.01 252.737L97.74 252.817C98.04 252.817 98.09 252.707 97.89 252.487C96.8367 251.314 96.29 250.031 96.25 248.637C96.05 240.777 102.79 237.087 109.75 238.927C115.55 240.467 117.2 247.187 116.59 252.577C116.57 252.737 116.64 252.821 116.8 252.827L123.56 252.877C123.76 252.877 123.86 252.777 123.86 252.577C123.92 248.997 123.557 245.767 122.77 242.887C119.23 229.997 105.06 230.697 95.06 234.117C94.86 234.184 94.7467 234.114 94.72 233.907L94.26 230.407C94.2333 230.194 94.3233 230.057 94.53 229.997C102.54 227.457 113.82 226.657 120.75 231.427C127.52 236.077 128.93 244.617 128.85 252.407C128.85 252.701 128.997 252.847 129.29 252.847H152.78C153.107 252.847 153.27 252.684 153.27 252.357L153.22 231.657C153.213 231.251 153.053 230.917 152.74 230.657L151.08 229.277C150.673 228.937 150.733 228.767 151.26 228.767H157.94C158.313 228.767 158.5 228.957 158.5 229.337V252.187C158.5 252.607 158.71 252.821 159.13 252.827C166.917 252.881 174.707 252.864 182.5 252.777C183 252.771 182.96 252.784 182.38 252.817ZM103.71 242.867C100.22 243.997 100.22 248.867 102.23 251.147C104.29 253.477 108.75 253.057 111.71 252.847C112.01 252.827 112.16 252.667 112.16 252.367C112.2 246.947 111.32 240.407 103.71 242.867Z" fill="#5C6068"/>
<path d="M194.291 213.667L192.961 213.207C192.081 212.9 192.108 212.747 193.041 212.747L203.981 212.777C204.554 212.777 204.591 212.92 204.091 213.207C203.524 213.534 202.908 213.784 202.241 213.957C201.959 214.032 201.711 214.197 201.534 214.427C201.356 214.657 201.26 214.938 201.261 215.227C201.241 227.927 201.244 240.567 201.271 253.147C201.271 255.04 202.074 256.157 203.681 256.497C203.743 256.514 203.797 256.553 203.833 256.606C203.869 256.659 203.885 256.724 203.877 256.788C203.87 256.852 203.84 256.911 203.793 256.955C203.746 256.999 203.685 257.024 203.621 257.027L196.561 257.017C196.188 257.017 196.001 256.83 196.001 256.457L195.991 216.067C195.991 215.541 195.828 215.028 195.524 214.598C195.219 214.168 194.789 213.843 194.291 213.667Z" fill="#5C6068"/>
<path d="M305.992 252.828C305.005 252.934 304.042 252.828 303.102 252.508C302.755 252.388 302.585 252.141 302.592 251.768C302.672 241.708 302.668 235.251 302.582 232.398C302.528 230.538 301.535 229.484 299.602 229.238C299.594 229.236 299.587 229.234 299.58 229.23C299.573 229.226 299.567 229.221 299.563 229.216C299.558 229.21 299.555 229.204 299.553 229.197C299.551 229.191 299.551 229.184 299.552 229.178L299.602 228.878C299.622 228.784 299.678 228.738 299.772 228.738L307.262 228.798C307.343 228.798 307.424 228.814 307.499 228.844C307.574 228.875 307.643 228.92 307.7 228.976C307.758 229.033 307.803 229.1 307.835 229.174C307.866 229.248 307.882 229.328 307.882 229.408L307.872 256.648C307.872 256.894 307.748 257.018 307.502 257.018C284.888 257.011 262.222 257.011 239.502 257.018C236.502 257.018 232.112 256.818 229.382 255.358C219.092 249.828 221.532 233.738 232.242 230.378C237.348 228.778 242.685 229.188 248.252 231.608C248.498 231.714 248.622 231.904 248.622 232.178V252.268C248.622 252.594 248.788 252.758 249.122 252.758L275.722 252.778C276.075 252.778 276.252 252.601 276.252 252.248C276.258 240.508 276.252 228.804 276.232 217.138C276.222 214.778 275.132 213.338 272.802 213.098C272.682 213.084 272.625 213.014 272.632 212.888C272.638 212.774 272.678 212.718 272.752 212.718L284.252 212.788C284.578 212.794 284.632 212.918 284.412 213.158C283.865 213.751 283.462 214.071 283.202 214.118C282.082 214.338 281.522 215.021 281.522 216.168L281.492 252.198C281.492 252.571 281.678 252.758 282.052 252.758L305.992 252.778C305.999 252.775 306.006 252.775 306.011 252.778C306.016 252.78 306.018 252.786 306.018 252.792C306.018 252.799 306.016 252.806 306.011 252.813C306.006 252.82 305.999 252.825 305.992 252.828ZM243.922 252.648C244.055 252.721 244.192 252.768 244.332 252.788C244.505 252.808 244.515 252.774 244.362 252.688L243.902 252.448C243.635 252.301 243.502 252.078 243.502 251.778V235.838C243.502 235.451 243.328 235.178 242.982 235.018C237.972 232.678 231.072 233.378 228.962 239.188C227.642 242.828 228.112 249.558 231.772 251.378C234.872 252.924 238.778 253.321 243.492 252.568C243.645 252.541 243.788 252.568 243.922 252.648Z" fill="#5C6068"/>
<path d="M300.541 220.398C299.248 218.411 299.361 216.615 300.881 215.008C303.034 212.735 306.008 212.055 309.801 212.968C309.894 212.995 309.938 213.055 309.931 213.148L309.641 215.548C309.635 215.593 309.62 215.635 309.597 215.674C309.573 215.713 309.542 215.746 309.504 215.772C309.467 215.799 309.424 215.817 309.379 215.827C309.333 215.836 309.287 215.837 309.241 215.828C307.921 215.575 306.581 215.541 305.221 215.728C304.861 215.779 304.523 215.931 304.246 216.166C303.968 216.401 303.762 216.71 303.651 217.058C302.421 220.958 307.931 220.918 310.851 220.638C310.884 220.634 310.918 220.637 310.949 220.647C310.981 220.657 311.011 220.674 311.036 220.696C311.062 220.719 311.082 220.747 311.097 220.778C311.112 220.809 311.12 220.843 311.121 220.878L311.181 223.428C311.182 223.458 311.178 223.487 311.168 223.515C311.158 223.543 311.143 223.569 311.123 223.59C311.104 223.612 311.08 223.629 311.054 223.64C311.028 223.652 310.999 223.658 310.971 223.658L297.441 223.708C297.354 223.708 297.314 223.668 297.321 223.588L297.481 220.888C297.494 220.701 297.591 220.618 297.771 220.638L300.271 220.848C300.671 220.881 300.761 220.731 300.541 220.398Z" fill="#5C6068"/>
<path d="M347.442 252.237C344.288 250.084 342.625 247.234 342.452 243.687C341.862 231.847 352.552 227.927 362.632 230.327C363.572 230.554 363.888 231.124 363.582 232.037L362.912 234.047C362.672 234.754 362.205 234.97 361.512 234.697C347.512 229.247 342.092 246.977 354.842 251.767C357.655 252.827 361.655 253.134 366.842 252.687C367.222 252.654 367.408 252.824 367.402 253.197L367.332 256.417C367.325 256.817 367.122 257.017 366.722 257.017H319.562C319.195 257.017 319.012 256.83 319.012 256.457L318.992 216.017C318.991 215.512 318.835 215.02 318.546 214.607C318.256 214.193 317.846 213.879 317.372 213.707L315.962 213.207C315.102 212.9 315.128 212.747 316.042 212.747L326.982 212.777C327.548 212.777 327.588 212.92 327.102 213.207C326.575 213.514 326.002 213.744 325.382 213.897C325.059 213.979 324.772 214.167 324.568 214.432C324.363 214.696 324.252 215.022 324.252 215.357V252.207C324.252 252.58 324.438 252.767 324.812 252.767L347.282 252.757C347.888 252.757 347.942 252.584 347.442 252.237Z" fill="#5C6068"/>
<path d="M419.71 252.827C418.75 252.927 417.806 252.821 416.88 252.507C416.533 252.394 416.36 252.157 416.36 251.797C416.373 245.971 416.376 240.171 416.37 234.397C416.37 230.787 416.529 230.337 413.409 228.907C413.203 228.814 413.213 228.767 413.44 228.767H421.409C421.468 228.767 421.524 228.79 421.565 228.832C421.606 228.873 421.63 228.929 421.63 228.987L421.62 252.137C421.62 252.557 421.826 252.767 422.24 252.767L443.159 252.757C443.293 252.757 443.313 252.711 443.219 252.617L443 252.387C442.84 252.234 442.76 252.047 442.76 251.827C442.746 245.521 442.75 239.211 442.77 232.897C442.776 230.924 442.016 229.777 440.49 229.457C438.363 229.011 438.45 228.784 440.75 228.777L447.43 228.757C447.81 228.757 448 228.947 448 229.327V252.197C448 252.571 448.183 252.757 448.55 252.757L477.479 252.767C477.779 252.767 477.92 252.617 477.9 252.317C477.36 244.417 475.209 238.577 467.479 235.217C466.239 234.677 464.976 234.134 463.69 233.587C463.403 233.467 463.226 233.257 463.159 232.957C462.729 230.997 463.019 229.577 464.849 228.427C471.209 224.427 477.723 220.354 484.39 216.207C484.419 216.189 484.453 216.179 484.487 216.179C484.522 216.178 484.556 216.187 484.586 216.205C484.616 216.222 484.64 216.248 484.657 216.278C484.673 216.308 484.681 216.343 484.68 216.377L484.61 221.107C484.603 221.227 484.553 221.317 484.46 221.377L469.59 230.457C469.544 230.484 469.507 230.523 469.483 230.57C469.459 230.617 469.448 230.671 469.452 230.724C469.457 230.778 469.475 230.829 469.506 230.874C469.538 230.919 469.58 230.954 469.63 230.977C478.67 235.011 483.096 242.087 482.909 252.207C482.903 252.567 483.076 252.747 483.43 252.747L501.25 252.797C501.523 252.804 501.56 252.714 501.36 252.527C499.68 250.927 498.676 248.964 498.349 246.637C495.459 226.057 524.71 223.557 524.52 242.167C524.466 247.047 524.409 251.921 524.349 256.787C524.343 256.927 524.27 256.997 524.13 256.997C484.763 257.011 445.386 257.021 406 257.027C397.69 257.027 388.37 254.757 386.65 244.897C385.816 240.097 386.339 235.507 388.219 231.127C388.293 230.947 388.426 230.844 388.62 230.817L393.28 230.147C393.311 230.143 393.343 230.147 393.373 230.159C393.403 230.171 393.428 230.191 393.448 230.217C393.467 230.242 393.479 230.272 393.483 230.304C393.487 230.336 393.482 230.368 393.469 230.397C388.569 242.177 391.82 252.907 406.21 252.787C410.71 252.754 415.21 252.747 419.71 252.767C419.717 252.767 419.725 252.77 419.731 252.776C419.736 252.782 419.74 252.789 419.74 252.797C419.74 252.805 419.736 252.813 419.731 252.818C419.725 252.824 419.717 252.827 419.71 252.827ZM508.43 251.987C511.176 252.901 514.629 253.104 518.789 252.597C519.076 252.564 519.223 252.404 519.229 252.117C519.369 246.247 520.979 231.317 509.909 234.137C508.129 234.584 506.703 235.414 505.63 236.627C501.99 240.757 502.5 250.017 508.43 251.987Z" fill="#5C6068"/>
<path d="M155.851 225.457C157.497 225.457 158.831 224.123 158.831 222.477C158.831 220.831 157.497 219.497 155.851 219.497C154.205 219.497 152.871 220.831 152.871 222.477C152.871 224.123 154.205 225.457 155.851 225.457Z" fill="#5C6068"/>
<path d="M232.618 225.228C234.209 225.228 235.498 223.938 235.498 222.348C235.498 220.757 234.209 219.468 232.618 219.468C231.028 219.468 229.738 220.757 229.738 222.348C229.738 223.938 231.028 225.228 232.618 225.228Z" fill="#5C6068"/>
<path d="M240.81 225.178C242.373 225.178 243.64 223.911 243.64 222.348C243.64 220.785 242.373 219.518 240.81 219.518C239.247 219.518 237.98 220.785 237.98 222.348C237.98 223.911 239.247 225.178 240.81 225.178Z" fill="#5C6068"/>
<path d="M441.272 225.187C442.846 225.187 444.122 223.911 444.122 222.337C444.122 220.763 442.846 219.487 441.272 219.487C439.698 219.487 438.422 220.763 438.422 222.337C438.422 223.911 439.698 225.187 441.272 225.187Z" fill="#5C6068"/>
<path d="M449.499 225.208C451.084 225.208 452.369 223.923 452.369 222.338C452.369 220.753 451.084 219.468 449.499 219.468C447.914 219.468 446.629 220.753 446.629 222.338C446.629 223.923 447.914 225.208 449.499 225.208Z" fill="#5C6068"/>
<path d="M35.5019 252.168V231.368C35.5019 230.868 35.7485 230.564 36.2419 230.458C40.7819 229.488 49.1119 228.748 52.7219 231.898C54.7819 233.688 56.3619 234.598 57.2219 237.658C57.9552 240.271 58.2618 242.944 58.1418 245.678C58.1285 245.931 57.9952 246.054 57.7419 246.048L53.9619 245.968C53.6552 245.954 53.5052 245.794 53.5118 245.488C53.6818 236.878 50.0919 232.338 40.9619 234.098C40.6552 234.158 40.5019 234.344 40.5019 234.658V256.598C40.5019 256.871 40.3685 257.008 40.1019 257.008C29.1019 257.088 12.8019 258.948 10.5219 244.398C9.80186 239.804 10.1685 235.568 11.6218 231.688C11.7073 231.463 11.8505 231.265 12.0367 231.113C12.2229 230.962 12.4456 230.864 12.6818 230.828L16.7918 230.208C16.8683 230.195 16.9467 230.204 17.0186 230.233C17.0905 230.262 17.1533 230.309 17.2005 230.371C17.2476 230.432 17.2772 230.505 17.2863 230.582C17.2953 230.659 17.2834 230.737 17.2519 230.808C15.0119 236.098 14.1118 243.728 18.0118 248.558C21.9918 253.478 29.2318 252.778 34.9018 252.778C35.3018 252.771 35.5019 252.568 35.5019 252.168Z" fill="#5C6068"/>
<path d="M32.7502 267.957C34.3186 267.957 35.5901 266.686 35.5901 265.117C35.5901 263.549 34.3186 262.277 32.7502 262.277C31.1817 262.277 29.9102 263.549 29.9102 265.117C29.9102 266.686 31.1817 267.957 32.7502 267.957Z" fill="#5C6068"/>
<path d="M405.071 267.958C406.689 267.958 408.001 266.646 408.001 265.028C408.001 263.409 406.689 262.098 405.071 262.098C403.452 262.098 402.141 263.409 402.141 265.028C402.141 266.646 403.452 267.958 405.071 267.958Z" fill="#5C6068"/>
<path d="M24.5302 267.987C26.1152 267.987 27.4001 266.702 27.4001 265.117C27.4001 263.532 26.1152 262.247 24.5302 262.247C22.9451 262.247 21.6602 263.532 21.6602 265.117C21.6602 266.702 22.9451 267.987 24.5302 267.987Z" fill="#5C6068"/>
<path d="M66.6991 307.227C66.6781 307.198 66.65 307.175 66.6176 307.16C66.5852 307.145 66.5499 307.139 66.5151 307.142C66.4804 307.145 66.4476 307.157 66.4202 307.178C66.3927 307.198 66.3717 307.225 66.3591 307.257L58.6991 325.877C58.6612 325.967 58.5961 326.043 58.5134 326.093C58.4306 326.144 58.3346 326.166 58.2392 326.157L57.5591 326.097C57.2925 326.07 57.2125 325.93 57.3192 325.677L73.7891 286.287C74.4358 284.74 75.2591 284.64 76.2591 285.987C76.5391 286.36 76.9191 287.124 77.3991 288.277C82.0791 299.324 86.8158 310.344 91.6091 321.337C92.4491 323.264 93.6391 324.627 95.1791 325.427C96.0925 325.907 96.0325 326.147 94.9991 326.147H88.2591C88.1095 326.147 87.9632 326.104 87.8375 326.024C87.7118 325.945 87.6118 325.831 87.5491 325.697C85.9558 322.37 84.4191 319.027 82.9391 315.667C79.4491 307.717 70.7291 312.977 66.6991 307.227ZM80.1491 309.517L73.0291 292.927C72.7891 292.38 72.5491 292.377 72.3091 292.917C70.8891 296.037 69.7391 299.14 68.8591 302.227C67.9391 305.427 67.9192 308.357 71.7692 309.097C73.7892 309.484 76.4658 309.79 79.7991 310.017C80.1858 310.044 80.3025 309.877 80.1491 309.517Z" fill="#5C6068"/>
<path d="M324.999 307.587C324.955 307.536 324.898 307.497 324.834 307.474C324.77 307.451 324.701 307.445 324.634 307.456C324.567 307.467 324.504 307.495 324.451 307.537C324.397 307.579 324.356 307.634 324.329 307.697L316.939 325.777C316.889 325.905 316.797 326.011 316.677 326.08C316.558 326.149 316.417 326.176 316.279 326.157L315.95 326.107C315.543 326.04 315.419 325.82 315.579 325.447L332.079 286.057C332.573 284.89 333.253 284.724 334.119 285.557C334.226 285.657 334.416 286.027 334.689 286.667C339.696 298.24 344.69 309.82 349.67 321.407C350.523 323.4 351.769 324.747 353.409 325.447C354.509 325.914 354.463 326.147 353.269 326.147H346.279C345.973 326.147 345.756 326.004 345.629 325.717C343.439 320.727 341.039 312.097 335.249 310.817C331.999 310.107 327.879 310.857 324.999 307.587ZM338.279 309.357L331.17 292.907C331.023 292.554 330.859 292.547 330.679 292.887C328.626 296.82 327.219 300.82 326.459 304.887C325.499 310.057 335.249 309.747 337.799 310.017C337.882 310.026 337.965 310.013 338.041 309.98C338.117 309.946 338.182 309.893 338.231 309.826C338.28 309.759 338.31 309.681 338.318 309.598C338.327 309.516 338.313 309.433 338.279 309.357Z" fill="#5C6068"/>
<path d="M36.4302 316.448C36.9902 317.108 37.2702 317.005 37.2702 316.138L37.2002 289.868C37.2002 289.548 37.0969 289.268 36.8902 289.028C35.8569 287.828 34.5402 287.118 32.9402 286.898C32.8202 286.878 32.7635 286.811 32.7702 286.698L32.7902 286.408C32.7902 286.395 32.7969 286.388 32.8102 286.388C36.2635 286.428 39.7135 286.415 43.1602 286.348C44.0669 286.328 44.0969 286.485 43.2502 286.818L40.0902 288.048C39.8469 288.144 39.6527 288.331 39.5502 288.568C39.1702 289.475 38.9735 290.418 38.9602 291.398C38.8535 303.138 38.7702 314.625 38.7102 325.858C38.7035 326.965 38.3335 327.105 37.6002 326.278L10.4102 295.468C9.6102 294.561 9.21353 294.711 9.2202 295.918L9.34019 311.218C9.34019 311.658 9.12019 311.885 8.68019 311.898L8.12019 311.918C7.84019 311.924 7.69686 311.791 7.6902 311.518L7.3802 292.808C7.37353 292.415 7.21687 292.095 6.9102 291.848L0.6302 286.688C0.3302 286.435 0.373523 286.291 0.76019 286.258C4.25019 285.938 8.9602 285.418 11.7202 288.418C20.2735 297.738 28.5102 307.081 36.4302 316.448Z" fill="#5C6068"/>
<path d="M143.221 304.697C143.301 299.987 144.011 292.927 142.471 288.537C142.351 288.197 142.121 287.964 141.781 287.837L140.051 287.217C139.938 287.184 139.841 287.111 139.779 287.011C139.717 286.911 139.693 286.792 139.713 286.676C139.733 286.56 139.794 286.455 139.886 286.382C139.978 286.308 140.094 286.271 140.211 286.277L153.301 286.237C153.401 286.237 153.451 286.284 153.451 286.377L153.461 286.657C153.468 286.857 153.375 286.967 153.181 286.987C150.695 287.261 149.411 288.811 149.331 291.637C149.138 298.544 149.141 308.377 149.341 321.137C149.361 322.697 149.748 323.957 150.501 324.917C150.602 325.043 150.728 325.146 150.871 325.22C151.014 325.295 151.17 325.338 151.331 325.347C151.805 325.367 152.191 325.477 152.491 325.677C152.885 325.944 152.845 326.081 152.371 326.087L143.761 326.177C143.421 326.177 143.251 326.004 143.251 325.657L143.261 306.647C143.261 306.581 143.234 306.517 143.185 306.471C143.136 306.424 143.07 306.397 143.001 306.397H125.501C125.444 306.397 125.387 306.384 125.336 306.357C125.284 306.331 125.24 306.292 125.207 306.245C125.174 306.198 125.152 306.144 125.144 306.087C125.136 306.03 125.142 305.972 125.161 305.917L125.271 305.617C125.315 305.489 125.398 305.378 125.509 305.299C125.62 305.22 125.754 305.178 125.891 305.177H142.741C143.061 305.177 143.221 305.017 143.221 304.697Z" fill="#5C6068"/>
<path d="M169.692 287.567C168.852 287.314 168.329 287.034 168.122 286.727C167.869 286.361 167.965 286.177 168.412 286.177C175.265 286.111 182.212 286.124 189.252 286.217C193.172 286.271 196.885 287.617 200.392 290.257C207.892 295.897 208.022 304.817 205.902 313.147C204.755 317.667 202.425 321.031 198.912 323.237C192.652 327.177 180.302 326.757 172.632 326.257C172.245 326.237 172.055 326.031 172.062 325.637C172.269 314.624 172.292 303.611 172.132 292.597C172.092 289.917 172.412 288.377 169.692 287.567ZM199.212 297.447C196.222 288.537 188.092 286.417 179.642 287.227C179.176 287.27 178.743 287.486 178.428 287.832C178.113 288.178 177.94 288.63 177.942 289.097C178.009 299.724 178.052 310.327 178.072 320.907C178.072 327.077 186.482 325.977 190.322 324.337C200.542 319.967 202.322 306.727 199.212 297.447Z" fill="#5C6068"/>
<path d="M285.83 305.748L298.57 305.758C298.877 305.758 299.054 305.911 299.1 306.218L299.17 306.588C299.21 306.868 299.09 307.008 298.81 307.008L285.78 307.098C285.427 307.105 285.25 307.281 285.25 307.628V325.898C285.25 325.964 285.224 326.028 285.177 326.075C285.13 326.121 285.067 326.148 285 326.148L279.55 326.138C279.39 326.138 279.31 326.058 279.31 325.898C279.19 314.278 279.13 302.608 279.13 290.888C279.12 288.958 277.91 287.328 276.17 286.888C276.095 286.868 276.029 286.822 275.985 286.758C275.941 286.693 275.922 286.615 275.932 286.538C275.942 286.46 275.98 286.389 276.038 286.338C276.097 286.286 276.172 286.258 276.25 286.258H302.48C302.942 286.258 303.391 286.401 303.766 286.668C304.141 286.936 304.422 287.313 304.57 287.748L307.28 295.658C307.36 295.898 307.294 296.085 307.08 296.218C306.994 296.271 306.914 296.325 306.84 296.378C306.78 296.418 306.73 296.404 306.69 296.338C302.23 288.098 294.46 286.488 285.67 287.228C285.39 287.254 285.25 287.408 285.25 287.688V305.168C285.25 305.548 285.444 305.741 285.83 305.748Z" fill="#5C6068"/>
<path d="M374.482 295.697L374.602 325.537C374.602 325.62 374.585 325.702 374.553 325.778C374.52 325.854 374.472 325.923 374.413 325.98C374.353 326.037 374.282 326.081 374.204 326.11C374.127 326.139 374.044 326.151 373.962 326.147L373.652 326.137C373.482 326.13 373.322 326.056 373.204 325.931C373.087 325.806 373.021 325.64 373.022 325.467C373.022 314.434 373.015 303.307 373.002 292.087C373.002 291.327 372.782 290.627 372.622 289.897C372.555 289.564 372.388 289.287 372.122 289.067L369.292 286.707C369.072 286.527 369.105 286.417 369.392 286.377C372.245 286.004 374.405 286.044 375.872 286.497C378.162 287.197 379.072 289.567 380.192 291.587C385.058 300.361 389.888 309.134 394.682 317.907C394.719 317.976 394.775 318.032 394.843 318.07C394.911 318.108 394.988 318.127 395.066 318.124C395.144 318.121 395.219 318.096 395.284 318.052C395.348 318.009 395.4 317.948 395.432 317.877C399.572 308.211 403.712 298.501 407.852 288.747C409.332 285.257 414.972 286.117 417.832 286.187C419.378 286.227 419.445 286.561 418.032 287.187L416.132 288.027C415.812 288.167 415.615 288.407 415.542 288.747C415.182 290.397 414.892 291.887 414.882 293.587C414.848 302.694 414.795 311.797 414.722 320.897C414.702 323.424 415.465 324.894 417.012 325.307C419.092 325.867 419.088 326.147 417.002 326.147H409.312C409.195 326.147 409.083 326.101 409.001 326.019C408.918 325.936 408.872 325.824 408.872 325.707V292.237C408.872 290.811 408.595 290.754 408.042 292.067L393.612 326.247C393.569 326.347 393.499 326.432 393.409 326.494C393.32 326.556 393.216 326.591 393.107 326.596C392.999 326.602 392.891 326.576 392.797 326.523C392.702 326.471 392.624 326.392 392.572 326.297L375.702 295.387C374.882 293.874 374.475 293.977 374.482 295.697Z" fill="#5C6068"/>
<path d="M470.689 325.008L487.539 325.028C487.825 325.028 487.972 325.168 487.979 325.448L487.989 325.898C487.995 326.231 487.832 326.398 487.499 326.398H464.759C464.445 326.398 464.285 326.238 464.279 325.918C464.245 314.064 464.189 302.228 464.109 290.408C464.095 288.768 463.329 287.638 461.809 287.018C460.589 286.524 460.622 286.274 461.909 286.268C465.549 286.261 469.475 286.248 473.689 286.228C473.849 286.228 473.969 286.264 474.049 286.338C474.129 286.418 474.165 286.508 474.159 286.608C474.159 286.761 474.082 286.854 473.929 286.888C472.902 287.101 471.965 287.514 471.119 288.128C470.832 288.334 470.642 288.608 470.549 288.948C470.269 289.941 470.129 290.674 470.129 291.148C470.162 302.241 470.159 313.334 470.119 324.428C470.112 324.814 470.302 325.008 470.689 325.008Z" fill="#5C6068"/>
<path d="M121.579 288.388C121.32 288.59 121.111 288.849 120.967 289.145C120.824 289.441 120.749 289.767 120.749 290.098L120.909 325.688C120.909 325.994 120.755 326.148 120.449 326.148L115.009 326.138C114.822 326.138 114.729 326.044 114.729 325.858C114.782 314.258 114.762 302.688 114.669 291.148C114.655 289.388 113.572 287.908 111.419 286.708C111.039 286.494 111.065 286.388 111.499 286.388L124.859 286.418C124.906 286.411 124.955 286.424 124.993 286.453C125.032 286.482 125.057 286.525 125.064 286.573C125.07 286.62 125.058 286.669 125.029 286.707C125 286.746 124.956 286.771 124.909 286.778C123.682 287.078 122.572 287.614 121.579 288.388Z" fill="#5C6068"/>
<path d="M231.528 288.688C231.408 290.168 231.018 291.548 231.008 292.968C230.975 301.768 230.982 310.568 231.028 319.368C231.038 320.678 231.358 322.108 231.378 323.498C231.392 323.858 231.545 324.141 231.838 324.348C232.458 324.768 233.222 325.068 234.128 325.248C234.368 325.294 234.482 325.474 234.468 325.788C234.463 325.866 234.429 325.94 234.374 325.994C234.318 326.048 234.245 326.078 234.168 326.078L225.298 326.178C225.182 326.178 225.07 326.131 224.987 326.049C224.905 325.966 224.858 325.854 224.858 325.738C224.845 314.158 224.845 302.544 224.858 290.898C224.858 288.318 223.558 286.971 220.958 286.858C220.812 286.851 220.738 286.774 220.738 286.628V286.618C220.738 286.557 220.766 286.498 220.814 286.455C220.863 286.412 220.929 286.388 220.998 286.388L234.758 286.398C234.952 286.398 235.062 286.494 235.088 286.688L235.128 286.938C235.142 287.044 235.095 287.108 234.988 287.128C233.962 287.281 232.968 287.571 232.008 287.998C231.715 288.131 231.555 288.361 231.528 288.688Z" fill="#5C6068"/>
<path d="M435.558 287.977L433.638 286.977C433.579 286.948 433.532 286.9 433.504 286.841C433.476 286.781 433.469 286.714 433.484 286.65C433.499 286.587 433.536 286.53 433.587 286.489C433.639 286.449 433.703 286.427 433.768 286.427L444.998 286.377C447.911 286.37 448.001 286.744 445.268 287.497C444.701 287.657 444.171 287.92 443.678 288.287C443.444 288.463 443.272 288.712 443.188 288.997C442.748 290.597 442.521 291.897 442.508 292.897C442.441 297.93 442.455 307.26 442.548 320.887C442.555 322 442.638 322.834 442.798 323.387C443.138 324.54 443.731 325.194 444.578 325.347C446.451 325.68 446.438 325.917 444.538 326.057C442.178 326.237 439.708 326.244 437.128 326.077C436.788 326.057 436.618 325.874 436.618 325.527C436.631 314.554 436.625 303.597 436.598 292.657C436.598 291.164 436.468 289.877 436.208 288.797C436.164 288.621 436.083 288.457 435.971 288.316C435.859 288.175 435.718 288.059 435.558 287.977Z" fill="#5C6068"/>
<path d="M518.249 306.387C520.835 301.907 523.279 297.351 525.579 292.717C526.679 290.497 527.669 287.097 523.589 287.177C523.422 287.184 523.345 287.104 523.359 286.937L523.379 286.647C523.392 286.494 523.475 286.414 523.629 286.407L533.739 286.357C534.005 286.357 534.072 286.474 533.939 286.707C533.819 286.914 533.575 287.007 533.209 286.987C532.882 286.974 532.575 287.041 532.289 287.187C530.509 288.107 529.272 289.124 528.579 290.237C526.639 293.351 523.542 299.067 519.289 307.387C519.042 307.874 518.902 309.044 518.869 310.897C518.795 315.977 518.755 320.817 518.749 325.417C518.749 325.904 518.505 326.147 518.019 326.147H513.749C513.646 326.147 513.544 326.127 513.449 326.088C513.354 326.048 513.269 325.99 513.197 325.918C513.125 325.845 513.069 325.759 513.031 325.664C512.994 325.57 512.976 325.469 512.979 325.367C513.179 317.417 513.659 310.847 510.539 305.407C506.399 298.207 502.905 292.767 500.059 289.087C499.112 287.861 497.509 287.104 495.249 286.817C495.102 286.797 495.035 286.714 495.049 286.567V286.557C495.055 286.431 495.122 286.367 495.249 286.367L510.999 286.417C511.119 286.417 511.185 286.474 511.199 286.587L511.249 286.887C511.262 286.994 511.212 287.047 511.099 287.047C509.339 287.007 508.275 287.774 507.909 289.347C507.822 289.714 507.875 290.061 508.069 290.387L517.379 306.387C517.672 306.881 517.962 306.881 518.249 306.387Z" fill="#5C6068"/>
<path d="M223.859 364.152C223.847 365.513 223.295 366.813 222.325 367.766C221.355 368.72 220.045 369.249 218.685 369.237L217.945 369.231C217.271 369.225 216.605 369.086 215.985 368.823C215.365 368.56 214.803 368.177 214.33 367.697C213.858 367.216 213.485 366.647 213.233 366.023C212.981 365.398 212.854 364.73 212.86 364.056L212.912 358.036C212.924 356.676 213.476 355.376 214.446 354.422C215.417 353.469 216.726 352.94 218.087 352.951L218.827 352.958C219.5 352.964 220.166 353.102 220.786 353.365C221.407 353.629 221.969 354.011 222.441 354.492C222.913 354.972 223.286 355.541 223.538 356.166C223.791 356.79 223.918 357.459 223.912 358.132L223.859 364.152ZM222.089 357.865C222.084 356.979 221.728 356.131 221.098 355.508C220.468 354.885 219.617 354.538 218.731 354.542L217.971 354.546C217.085 354.551 216.238 354.907 215.615 355.537C214.991 356.167 214.644 357.018 214.649 357.904L214.683 364.404C214.687 365.289 215.044 366.137 215.673 366.76C216.303 367.383 217.154 367.731 218.04 367.726L218.8 367.722C219.686 367.718 220.534 367.361 221.157 366.732C221.78 366.102 222.127 365.251 222.123 364.365L222.089 357.865Z" fill="#5C6068"/>
<path d="M292.184 364.975C292.714 368.695 298.084 368.425 298.884 365.445C298.984 365.078 299.094 364.815 299.214 364.655C299.8 363.868 300.284 364.138 300.664 365.465C300.72 365.654 300.731 365.854 300.696 366.048C300.661 366.243 300.582 366.426 300.464 366.585C299.124 368.398 297.494 369.331 295.574 369.385C289.534 369.545 289.494 363.075 290.054 358.045C290.774 351.475 300.184 350.965 300.634 357.205C300.66 357.578 300.487 357.778 300.114 357.805L299.834 357.815C299.637 357.828 299.442 357.77 299.286 357.65C299.13 357.53 299.022 357.358 298.984 357.165C298.324 354.045 294.744 353.925 292.704 355.495C292.43 355.708 292.267 355.985 292.214 356.325C291.787 359.251 291.777 362.135 292.184 364.975Z" fill="#5C6068"/>
<path d="M237.624 359.935L243.654 359.915C243.695 359.914 243.736 359.923 243.773 359.939C243.811 359.955 243.845 359.979 243.873 360.009C243.901 360.039 243.923 360.075 243.937 360.114C243.951 360.152 243.957 360.194 243.954 360.235L243.914 361.015C243.911 361.092 243.878 361.166 243.822 361.22C243.766 361.274 243.692 361.305 243.614 361.305L237.624 361.275C237.544 361.275 237.468 361.306 237.412 361.362C237.355 361.419 237.324 361.495 237.324 361.575L237.334 368.675C237.334 368.751 237.305 368.824 237.253 368.88C237.201 368.936 237.13 368.97 237.054 368.975L235.924 369.045C235.883 369.047 235.842 369.042 235.803 369.028C235.764 369.014 235.729 368.992 235.699 368.964C235.669 368.936 235.645 368.902 235.628 368.864C235.612 368.826 235.604 368.786 235.604 368.745L235.594 353.495C235.594 353.415 235.625 353.339 235.682 353.282C235.738 353.226 235.814 353.195 235.894 353.195L244.504 353.185C244.546 353.184 244.587 353.193 244.626 353.21C244.664 353.227 244.699 353.252 244.727 353.283C244.756 353.314 244.777 353.351 244.79 353.391C244.803 353.43 244.808 353.473 244.804 353.515L244.734 354.275C244.726 354.349 244.691 354.418 244.636 354.468C244.58 354.517 244.508 354.545 244.434 354.545L237.614 354.565C237.534 354.565 237.458 354.596 237.402 354.652C237.345 354.709 237.314 354.785 237.314 354.865L237.324 359.635C237.324 359.714 237.355 359.79 237.412 359.847C237.468 359.903 237.544 359.935 237.624 359.935Z" fill="#5C6068"/>
<path d="M257.925 354.865L257.975 359.615C257.975 359.685 258.002 359.752 258.051 359.802C258.099 359.852 258.165 359.882 258.235 359.885L264.395 360.085C264.457 360.089 264.515 360.114 264.561 360.155C264.606 360.197 264.636 360.253 264.645 360.315L264.735 360.925C264.741 360.962 264.738 361.001 264.728 361.038C264.718 361.075 264.7 361.109 264.675 361.138C264.65 361.167 264.62 361.191 264.585 361.208C264.551 361.225 264.513 361.234 264.475 361.235L258.285 361.315C258.215 361.315 258.148 361.342 258.098 361.39C258.047 361.439 258.018 361.505 258.015 361.575L257.855 368.695C257.853 368.761 257.826 368.824 257.78 368.872C257.734 368.92 257.672 368.95 257.605 368.955L256.335 369.075C256.297 369.079 256.259 369.075 256.223 369.063C256.186 369.052 256.153 369.032 256.125 369.007C256.096 368.981 256.074 368.95 256.058 368.915C256.043 368.88 256.035 368.843 256.035 368.805L256.065 353.495C256.065 353.423 256.094 353.354 256.144 353.304C256.195 353.253 256.264 353.225 256.335 353.225L265.085 353.285C265.128 353.285 265.17 353.296 265.208 353.316C265.246 353.337 265.278 353.365 265.302 353.401C265.327 353.436 265.343 353.476 265.348 353.519C265.354 353.561 265.349 353.604 265.335 353.645L265.095 354.305C265.077 354.357 265.043 354.402 264.998 354.434C264.954 354.466 264.9 354.484 264.845 354.485L258.195 354.595C258.124 354.595 258.055 354.623 258.004 354.674C257.954 354.724 257.925 354.793 257.925 354.865Z" fill="#5C6068"/>
<path d="M277.626 353.175L277.186 353.174C276.844 353.173 276.566 353.45 276.565 353.793L276.54 368.373C276.539 368.715 276.816 368.993 277.159 368.994L277.599 368.995C277.941 368.995 278.219 368.718 278.22 368.376L278.245 353.796C278.246 353.453 277.969 353.175 277.626 353.175Z" fill="#5C6068"/>
<path d="M313.983 362.025L313.902 367.265C313.902 367.302 313.91 367.338 313.924 367.372C313.938 367.406 313.959 367.437 313.985 367.463C314.011 367.489 314.041 367.51 314.075 367.524C314.109 367.538 314.146 367.545 314.182 367.545L320.812 367.555C320.864 367.555 320.914 367.569 320.959 367.595C321.003 367.621 321.039 367.66 321.062 367.705L321.543 368.585C321.567 368.627 321.58 368.676 321.58 368.724C321.58 368.773 321.567 368.822 321.543 368.864C321.519 368.907 321.484 368.942 321.442 368.967C321.399 368.991 321.351 369.005 321.303 369.005L312.342 368.955C312.268 368.955 312.197 368.926 312.145 368.873C312.092 368.821 312.063 368.749 312.062 368.675L312.083 353.525C312.083 353.451 312.112 353.38 312.165 353.327C312.217 353.275 312.288 353.245 312.363 353.245L321.062 353.285C321.105 353.285 321.147 353.295 321.185 353.314C321.224 353.333 321.257 353.36 321.283 353.394C321.309 353.428 321.327 353.467 321.336 353.509C321.344 353.551 321.343 353.594 321.333 353.635L321.163 354.305C321.147 354.365 321.112 354.418 321.063 354.456C321.014 354.494 320.954 354.515 320.893 354.515L314.213 354.575C314.138 354.575 314.067 354.605 314.015 354.657C313.962 354.71 313.932 354.781 313.932 354.855L313.953 360.085C313.953 360.159 313.982 360.231 314.035 360.283C314.087 360.336 314.158 360.365 314.233 360.365L320.363 360.425C320.429 360.427 320.492 360.452 320.541 360.496C320.591 360.54 320.623 360.6 320.633 360.665L320.743 361.405C320.748 361.444 320.745 361.484 320.735 361.522C320.724 361.56 320.705 361.596 320.679 361.626C320.654 361.656 320.622 361.68 320.587 361.698C320.551 361.715 320.512 361.724 320.473 361.725L314.253 361.755C314.182 361.758 314.114 361.787 314.064 361.837C314.014 361.887 313.985 361.954 313.983 362.025Z" fill="#5C6068"/>
</svg>
