<svg width="645" height="182" viewBox="0 0 645 182" fill="none" xmlns="http://www.w3.org/2000/svg">
<path d="M147.597 59.658C146.858 59.6957 146.23 59.569 145.712 59.2778C145.606 59.2182 145.516 59.1318 145.453 59.027C145.389 58.9222 145.353 58.8024 145.348 58.6793L144.556 28.4049C144.55 28.1353 144.41 28.0005 144.135 28.0005C143.65 28.0059 143.183 27.9223 142.736 27.7498C142.677 27.7282 142.65 27.6851 142.655 27.6204L142.671 27.3858C142.677 27.2888 142.728 27.2402 142.825 27.2402L151.908 27.2645C151.943 27.2625 151.977 27.2732 152.004 27.2949C152.031 27.3165 152.049 27.3477 152.055 27.3827C152.061 27.4177 152.054 27.4544 152.036 27.4861C152.018 27.5178 151.99 27.5425 151.956 27.5557L151.318 27.7902C151.086 27.8765 150.91 28.0302 150.792 28.2513C150.177 29.3674 149.603 30.1439 149.603 31.4947C149.635 41.9231 149.63 52.3462 149.587 62.7639C149.587 62.801 149.579 62.8379 149.565 62.8722C149.551 62.9065 149.53 62.9377 149.504 62.964C149.477 62.9903 149.446 63.0112 149.412 63.0254C149.378 63.0396 149.341 63.0469 149.304 63.0469H43.8084C43.5064 63.0469 43.3555 62.8987 43.3555 62.6021V60.0786C43.3555 59.9563 43.4032 59.839 43.4881 59.7526C43.5731 59.6661 43.6883 59.6175 43.8084 59.6175H59.9364C60.2276 59.6175 60.3705 59.4692 60.3651 59.1727C60.1871 52.1925 58.157 46.9594 51.3952 44.2579C51.2334 44.1932 51.1903 44.0827 51.2658 43.9263L52.7136 40.7719C52.7675 40.6479 52.8592 40.6128 52.9886 40.6667C60.9474 44.0908 64.7489 50.2621 64.393 59.1807C64.3822 59.4558 64.517 59.5933 64.7974 59.5933L79.1379 59.658C79.3806 59.658 79.421 59.569 79.2592 59.3911C78.4073 58.442 77.9651 57.404 77.9328 56.2771C77.771 49.9197 83.2225 46.9351 88.8519 48.4234C93.5431 49.669 94.8777 55.1043 94.3843 59.4638C94.3681 59.5933 94.4247 59.6607 94.5541 59.6661L100.022 59.7065C100.184 59.7065 100.264 59.6256 100.264 59.4638C100.313 56.5682 100.019 53.9557 99.3828 51.6263C96.5196 41.2006 85.0585 41.7667 76.9703 44.5329C76.8085 44.5869 76.7168 44.5302 76.6953 44.3631L76.3232 41.5322C76.3016 41.3596 76.3744 41.2491 76.5416 41.2006C83.0203 39.1462 92.1438 38.4991 97.749 42.3572C103.225 46.1182 104.365 53.0256 104.3 59.3264C104.3 59.5636 104.419 59.6822 104.656 59.6822H123.656C123.92 59.6822 124.052 59.5501 124.052 59.2859L124.012 42.5432C124.006 42.2143 123.877 41.9447 123.623 41.7344L122.281 40.6182C121.952 40.3432 122 40.2057 122.426 40.2057H127.829C128.131 40.2057 128.282 40.3594 128.282 40.6667V59.1484C128.282 59.4881 128.452 59.6607 128.792 59.6661C135.09 59.7092 141.391 59.6957 147.694 59.6256C148.098 59.6202 148.066 59.631 147.597 59.658ZM83.9666 51.6102C81.1438 52.5241 81.1438 56.4631 82.7695 58.3072C84.4357 60.1918 88.0431 59.8521 90.4372 59.6822C90.6799 59.6661 90.8012 59.5366 90.8012 59.294C90.8335 54.9102 90.1218 49.6204 83.9666 51.6102Z" fill="#5C6068"/>
<path d="M157.231 27.9922L156.155 27.6201C155.443 27.3721 155.465 27.248 156.22 27.248L165.068 27.2723C165.532 27.2723 165.561 27.3882 165.157 27.6201C164.699 27.8843 164.2 28.0865 163.661 28.2267C163.433 28.2874 163.232 28.421 163.089 28.6068C162.945 28.7926 162.868 29.0201 162.868 29.2539C162.852 39.526 162.855 49.7496 162.876 59.9246C162.876 61.456 163.526 62.3592 164.825 62.6342C164.876 62.648 164.919 62.6793 164.948 62.7224C164.977 62.7655 164.99 62.8175 164.984 62.8692C164.978 62.9209 164.954 62.9688 164.916 63.0043C164.878 63.0398 164.829 63.0606 164.777 63.0628L159.067 63.0547C158.765 63.0547 158.614 62.9038 158.614 62.6018L158.606 29.9334C158.606 29.5081 158.474 29.0929 158.228 28.7452C157.981 28.3976 157.633 28.1344 157.231 27.9922Z" fill="#5C6068"/>
<path d="M247.578 59.6666C246.78 59.7529 246.001 59.6666 245.241 59.4078C244.96 59.3107 244.823 59.1112 244.828 58.8092C244.893 50.6725 244.89 45.4501 244.82 43.1423C244.777 41.6379 243.974 40.7859 242.41 40.5864C242.404 40.5853 242.398 40.5831 242.392 40.58C242.387 40.577 242.382 40.5731 242.378 40.5686C242.375 40.5641 242.372 40.559 242.37 40.5538C242.369 40.5485 242.369 40.5431 242.369 40.5379L242.41 40.2952C242.426 40.2197 242.472 40.182 242.547 40.182L248.606 40.2305C248.671 40.2305 248.737 40.2433 248.797 40.2681C248.858 40.2929 248.914 40.3292 248.96 40.375C249.007 40.4208 249.044 40.4752 249.069 40.5351C249.094 40.5949 249.107 40.6591 249.107 40.7239L249.099 62.7563C249.099 62.9558 248.999 63.0556 248.8 63.0556C230.509 63.0502 212.176 63.0502 193.8 63.0556C191.373 63.0556 187.822 62.8938 185.614 61.7129C177.291 57.2401 179.265 44.2261 187.927 41.5085C192.058 40.2144 196.374 40.546 200.877 42.5033C201.076 42.5896 201.176 42.7433 201.176 42.9643V59.2137C201.176 59.4779 201.311 59.61 201.58 59.61L223.095 59.6262C223.381 59.6262 223.524 59.4833 223.524 59.1975C223.529 49.7019 223.524 40.2359 223.508 30.7996C223.5 28.8908 222.618 27.7261 220.733 27.532C220.636 27.5212 220.591 27.4645 220.596 27.3621C220.601 27.2704 220.634 27.2246 220.693 27.2246L229.994 27.2812C230.259 27.2866 230.302 27.3864 230.124 27.5805C229.682 28.0604 229.355 28.3192 229.145 28.357C228.239 28.5349 227.786 29.0876 227.786 30.015L227.762 59.157C227.762 59.459 227.913 59.61 228.215 59.61L247.578 59.6262C247.584 59.6239 247.589 59.6239 247.593 59.6261C247.597 59.6283 247.6 59.6326 247.6 59.638C247.6 59.6433 247.597 59.6493 247.593 59.6547C247.589 59.6601 247.584 59.6644 247.578 59.6666ZM197.375 59.521C197.482 59.5803 197.593 59.6181 197.706 59.6343C197.846 59.6504 197.854 59.6235 197.73 59.5534L197.358 59.3592C197.143 59.2406 197.035 59.06 197.035 58.8173V45.9247C197.035 45.6119 196.895 45.3908 196.614 45.2614C192.562 43.3688 186.981 43.9349 185.274 48.6342C184.207 51.5783 184.587 57.0217 187.547 58.4938C190.055 59.7448 193.214 60.0656 197.027 59.4563C197.151 59.4347 197.267 59.4563 197.375 59.521Z" fill="#5C6068"/>
<path d="M243.167 33.4365C242.121 31.8297 242.213 30.3765 243.442 29.077C245.184 27.2382 247.589 26.6882 250.657 27.427C250.733 27.4485 250.768 27.4971 250.762 27.5726L250.528 29.5137C250.523 29.5499 250.511 29.5846 250.492 29.6159C250.473 29.6471 250.447 29.6742 250.417 29.6954C250.387 29.7166 250.352 29.7315 250.316 29.7392C250.279 29.7469 250.241 29.7473 250.204 29.7402C249.137 29.5353 248.053 29.5083 246.953 29.6593C246.662 29.7005 246.389 29.8233 246.164 30.0136C245.939 30.2039 245.773 30.454 245.683 30.7351C244.688 33.8895 249.145 33.8571 251.506 33.6306C251.533 33.6273 251.56 33.6298 251.586 33.6379C251.612 33.6461 251.636 33.6597 251.656 33.678C251.677 33.6962 251.694 33.7187 251.705 33.744C251.717 33.7692 251.724 33.7968 251.725 33.8248L251.773 35.8873C251.774 35.9114 251.771 35.9354 251.763 35.9579C251.755 35.9805 251.742 36.0011 251.727 36.0185C251.711 36.0359 251.692 36.0497 251.67 36.0591C251.649 36.0686 251.627 36.0734 251.604 36.0733L240.66 36.1137C240.59 36.1137 240.558 36.0814 240.563 36.0167L240.692 33.8329C240.703 33.6819 240.781 33.6145 240.927 33.6306L242.949 33.8005C243.273 33.8275 243.345 33.7061 243.167 33.4365Z" fill="#5C6068"/>
<path d="M281.101 59.1886C278.55 57.4469 277.205 55.1417 277.065 52.2731C276.587 42.6966 285.234 39.526 293.387 41.4672C294.147 41.6505 294.403 42.1116 294.155 42.8503L293.613 44.476C293.419 45.0476 293.042 45.2228 292.481 45.0018C281.157 40.5937 276.773 54.9341 287.086 58.8084C289.361 59.6658 292.597 59.9138 296.792 59.5525C297.099 59.5256 297.25 59.6631 297.245 59.965L297.188 62.5694C297.183 62.893 297.018 63.0547 296.695 63.0547H258.551C258.254 63.0547 258.106 62.9038 258.106 62.6018L258.09 29.8929C258.089 29.4847 257.963 29.0864 257.729 28.7522C257.494 28.4179 257.163 28.1639 256.779 28.0245L255.639 27.6201C254.943 27.3721 254.965 27.248 255.704 27.248L264.552 27.2723C265.01 27.2723 265.043 27.3882 264.649 27.6201C264.223 27.8681 263.759 28.0542 263.258 28.1782C262.997 28.2447 262.765 28.3968 262.6 28.6107C262.434 28.8245 262.344 29.0878 262.344 29.3591V59.1643C262.344 59.4663 262.495 59.6172 262.797 59.6172L280.971 59.6091C281.462 59.6091 281.505 59.469 281.101 59.1886Z" fill="#5C6068"/>
<path d="M339.554 59.6667C338.778 59.7476 338.015 59.6613 337.265 59.4079C336.985 59.3162 336.845 59.1248 336.845 58.8336C336.855 54.1208 336.858 49.4297 336.853 44.76C336.853 41.8402 336.982 41.4762 334.459 40.3196C334.291 40.2441 334.3 40.2064 334.483 40.2064H340.929C340.976 40.2064 341.022 40.2251 341.055 40.2585C341.088 40.2919 341.107 40.3371 341.107 40.3843L341.099 59.1086C341.099 59.4483 341.266 59.6182 341.601 59.6182L358.521 59.6101C358.629 59.6101 358.645 59.5723 358.57 59.4968L358.392 59.3108C358.262 59.1868 358.198 59.0358 358.198 58.8579C358.187 53.7569 358.19 48.6532 358.206 43.5468C358.211 41.9507 357.596 41.0233 356.362 40.7644C354.641 40.4032 354.712 40.2198 356.572 40.2144L361.975 40.1983C362.282 40.1983 362.436 40.3519 362.436 40.6593V59.1571C362.436 59.4591 362.584 59.6101 362.881 59.6101L386.28 59.6182C386.523 59.6182 386.636 59.4969 386.62 59.2542C386.183 52.8645 384.444 48.1409 378.192 45.4233C377.189 44.9865 376.167 44.5471 375.126 44.1049C374.894 44.0078 374.752 43.838 374.698 43.5953C374.35 42.01 374.584 40.8615 376.065 39.9314C381.209 36.6961 386.477 33.4014 391.869 30.0475C391.893 30.0328 391.92 30.0248 391.948 30.0244C391.976 30.0241 392.004 30.0314 392.028 30.0455C392.052 30.0597 392.072 30.0801 392.085 30.1047C392.098 30.1293 392.105 30.1571 392.104 30.185L392.047 34.0107C392.042 34.1078 392.001 34.1806 391.926 34.2291L379.898 41.5733C379.862 41.5951 379.832 41.6268 379.812 41.6648C379.793 41.7028 379.784 41.7458 379.788 41.789C379.791 41.8323 379.806 41.8742 379.831 41.9103C379.856 41.9464 379.891 41.9753 379.931 41.9938C387.243 45.2561 390.823 50.9799 390.672 59.1652C390.667 59.4564 390.807 59.602 391.093 59.602L405.506 59.6424C405.727 59.6478 405.757 59.575 405.595 59.4241C404.236 58.1299 403.424 56.5419 403.16 54.6601C400.823 38.0144 424.481 35.9924 424.327 51.0446C424.284 54.9917 424.238 58.9334 424.19 62.8697C424.184 62.9829 424.125 63.0395 424.012 63.0395C392.171 63.0503 360.322 63.0584 328.465 63.0638C321.744 63.0638 314.206 61.2277 312.814 53.2527C312.14 49.3703 312.564 45.6578 314.084 42.1152C314.144 41.9696 314.251 41.886 314.408 41.8645L318.177 41.3225C318.203 41.319 318.229 41.3223 318.253 41.3321C318.276 41.342 318.297 41.358 318.313 41.3786C318.329 41.3992 318.339 41.4236 318.342 41.4493C318.345 41.475 318.341 41.501 318.331 41.5247C314.367 51.0527 316.996 59.7314 328.635 59.6344C332.275 59.6074 335.914 59.602 339.554 59.6182C339.561 59.6182 339.567 59.6207 339.571 59.6253C339.576 59.6298 339.578 59.636 339.578 59.6424C339.578 59.6489 339.576 59.655 339.571 59.6596C339.567 59.6641 339.561 59.6667 339.554 59.6667ZM411.313 58.9873C413.535 59.726 416.328 59.8905 419.693 59.4807C419.924 59.4537 420.043 59.3243 420.048 59.0924C420.162 54.3446 421.464 42.2689 412.51 44.5497C411.071 44.911 409.917 45.5824 409.048 46.5637C406.104 49.9042 406.517 57.3939 411.313 58.9873Z" fill="#5C6068"/>
<path d="M126.141 37.5286C127.472 37.5286 128.551 36.4495 128.551 35.1183C128.551 33.7871 127.472 32.708 126.141 32.708C124.81 32.708 123.73 33.7871 123.73 35.1183C123.73 36.4495 124.81 37.5286 126.141 37.5286Z" fill="#5C6068"/>
<path d="M188.232 37.3434C189.518 37.3434 190.561 36.3005 190.561 35.014C190.561 33.7275 189.518 32.6846 188.232 32.6846C186.945 32.6846 185.902 33.7275 185.902 35.014C185.902 36.3005 186.945 37.3434 188.232 37.3434Z" fill="#5C6068"/>
<path d="M194.855 37.3026C196.12 37.3026 197.144 36.2778 197.144 35.0136C197.144 33.7494 196.12 32.7246 194.855 32.7246C193.591 32.7246 192.566 33.7494 192.566 35.0136C192.566 36.2778 193.591 37.3026 194.855 37.3026Z" fill="#5C6068"/>
<path d="M356.997 37.3105C358.27 37.3105 359.302 36.2785 359.302 35.0054C359.302 33.7323 358.27 32.7002 356.997 32.7002C355.723 32.7002 354.691 33.7323 354.691 35.0054C354.691 36.2785 355.723 37.3105 356.997 37.3105Z" fill="#5C6068"/>
<path d="M363.649 37.3272C364.931 37.3272 365.971 36.2879 365.971 35.0059C365.971 33.7239 364.931 32.6846 363.649 32.6846C362.367 32.6846 361.328 33.7239 361.328 35.0059C361.328 36.2879 362.367 37.3272 363.649 37.3272Z" fill="#5C6068"/>
<path d="M28.7985 59.1326V42.3091C28.7985 41.9046 28.9981 41.6593 29.3971 41.573C33.0691 40.7885 39.8067 40.1899 42.7265 42.7377C44.3927 44.1855 45.6706 44.9216 46.3662 47.3966C46.9594 49.5103 47.2074 51.6726 47.1104 53.8834C47.0996 54.0883 46.9917 54.188 46.7868 54.1826L43.7295 54.1179C43.4814 54.1071 43.3601 53.9777 43.3655 53.7297C43.503 46.7657 40.5993 43.0936 33.2147 44.5172C32.9667 44.5657 32.8427 44.7167 32.8427 44.9701V62.7157C32.8427 62.9368 32.7348 63.0473 32.5191 63.0473C23.6221 63.112 10.4382 64.6165 8.59408 52.8481C8.01173 49.1328 8.30829 45.7061 9.48378 42.5679C9.55291 42.386 9.6687 42.2258 9.81933 42.1035C9.96995 41.9813 10.15 41.9015 10.3411 41.8723L13.6654 41.3708C13.7273 41.361 13.7906 41.3681 13.8488 41.3913C13.907 41.4145 13.9578 41.453 13.9959 41.5027C14.034 41.5524 14.058 41.6115 14.0653 41.6737C14.0726 41.7359 14.063 41.7989 14.0375 41.8561C12.2257 46.1348 11.4978 52.3061 14.6522 56.2128C17.8713 60.1922 23.7272 59.626 28.3132 59.626C28.6368 59.6206 28.7985 59.4562 28.7985 59.1326Z" fill="#5C6068"/>
<path d="M26.5705 71.9037C27.8391 71.9037 28.8676 70.8753 28.8676 69.6066C28.8676 68.338 27.8391 67.3096 26.5705 67.3096C25.3019 67.3096 24.2734 68.338 24.2734 69.6066C24.2734 70.8753 25.3019 71.9037 26.5705 71.9037Z" fill="#5C6068"/>
<path d="M327.714 71.9038C329.022 71.9038 330.083 70.8428 330.083 69.5339C330.083 68.2251 329.022 67.1641 327.714 67.1641C326.405 67.1641 325.344 68.2251 325.344 69.5339C325.344 70.8428 326.405 71.9038 327.714 71.9038Z" fill="#5C6068"/>
<path d="M19.9229 71.9278C21.2049 71.9278 22.2442 70.8885 22.2442 69.6065C22.2442 68.3244 21.2049 67.2852 19.9229 67.2852C18.6409 67.2852 17.6016 68.3244 17.6016 69.6065C17.6016 70.8885 18.6409 71.9278 19.9229 71.9278Z" fill="#5C6068"/>
<path d="M54.03 103.666C54.013 103.643 53.9902 103.624 53.9641 103.612C53.9379 103.6 53.9093 103.595 53.8812 103.598C53.8531 103.6 53.8265 103.61 53.8044 103.626C53.7822 103.643 53.7651 103.665 53.755 103.691L47.5594 118.751C47.5287 118.824 47.476 118.885 47.4091 118.926C47.3422 118.967 47.2645 118.985 47.1873 118.978L46.6373 118.929C46.4216 118.907 46.357 118.794 46.4432 118.589L59.7646 86.7297C60.2876 85.4787 60.9535 85.3978 61.7624 86.487C61.9888 86.789 62.2962 87.4064 62.6844 88.3392C66.4697 97.274 70.3009 106.187 74.1779 115.079C74.8573 116.637 75.8198 117.74 77.0654 118.387C77.8041 118.775 77.7556 118.969 76.9198 118.969H71.4683C71.3472 118.969 71.2289 118.935 71.1273 118.87C71.0256 118.806 70.9447 118.714 70.894 118.605C69.6053 115.915 68.3624 113.211 67.1653 110.493C64.3425 104.063 57.2896 108.317 54.03 103.666ZM64.9087 105.519L59.1499 92.1003C58.9558 91.6581 58.7616 91.6554 58.5675 92.0922C57.419 94.6157 56.4888 97.1257 55.7771 99.6223C55.0329 102.211 55.0168 104.58 58.1308 105.179C59.7646 105.492 61.9295 105.74 64.6256 105.923C64.9384 105.945 65.0327 105.81 64.9087 105.519Z" fill="#5C6068"/>
<path d="M262.951 103.957C262.915 103.916 262.869 103.885 262.817 103.866C262.765 103.848 262.71 103.843 262.656 103.852C262.601 103.86 262.55 103.883 262.507 103.917C262.464 103.951 262.43 103.996 262.409 104.046L256.432 118.67C256.392 118.773 256.317 118.86 256.22 118.915C256.123 118.971 256.01 118.993 255.898 118.977L255.631 118.937C255.303 118.883 255.203 118.705 255.332 118.403L268.678 86.5434C269.077 85.5998 269.627 85.465 270.328 86.139C270.414 86.2199 270.568 86.5192 270.789 87.0368C274.838 96.3976 278.877 105.764 282.905 115.135C283.595 116.748 284.604 117.837 285.93 118.403C286.82 118.781 286.782 118.969 285.817 118.969H280.163C279.915 118.969 279.74 118.853 279.637 118.621C277.866 114.585 275.925 107.605 271.242 106.57C268.613 105.996 265.281 106.602 262.951 103.957ZM273.693 105.389L267.942 92.0839C267.823 91.7981 267.691 91.7927 267.545 92.0677C265.885 95.2491 264.747 98.4844 264.132 101.774C263.356 105.955 271.242 105.705 273.304 105.923C273.371 105.93 273.438 105.92 273.5 105.893C273.561 105.866 273.614 105.823 273.653 105.769C273.693 105.714 273.717 105.651 273.724 105.584C273.731 105.517 273.72 105.45 273.693 105.389Z" fill="#5C6068"/>
<path d="M29.5486 111.125C30.0015 111.658 30.228 111.575 30.228 110.874L30.1714 89.626C30.1714 89.3672 30.0878 89.1407 29.9206 88.9466C29.0848 87.976 28.0199 87.4017 26.7258 87.2238C26.6287 87.2076 26.5829 87.1537 26.5883 87.062L26.6044 86.8275C26.6044 86.8167 26.6098 86.8113 26.6206 86.8113C29.4138 86.8436 32.2042 86.8329 34.992 86.7789C35.7253 86.7628 35.7496 86.8895 35.0648 87.1591L32.5089 88.1539C32.3121 88.2319 32.155 88.3831 32.0721 88.5745C31.7647 89.3079 31.6057 90.0709 31.5949 90.8635C31.5086 100.359 31.4412 109.65 31.3927 118.736C31.3873 119.631 31.088 119.744 30.4949 119.075L8.50293 94.1554C7.85587 93.4221 7.53503 93.5434 7.54042 94.5194L7.63748 106.894C7.63748 107.25 7.45953 107.434 7.10365 107.444L6.65071 107.461C6.42424 107.466 6.30831 107.358 6.30292 107.137L6.05219 92.0039C6.04679 91.6858 5.92008 91.427 5.67204 91.2275L0.592614 87.0539C0.349966 86.849 0.385007 86.7331 0.697753 86.7061C3.52055 86.4473 7.33013 86.0267 9.56249 88.4532C16.4806 95.9914 23.1427 103.549 29.5486 111.125Z" fill="#5C6068"/>
<path d="M115.925 101.62C115.99 97.8108 116.564 92.1005 115.318 88.5498C115.221 88.2748 115.035 88.086 114.76 87.9836L113.361 87.4821C113.269 87.4554 113.191 87.396 113.141 87.3153C113.09 87.2346 113.071 87.1382 113.087 87.0444C113.103 86.9506 113.153 86.8659 113.227 86.8064C113.302 86.7469 113.395 86.7168 113.49 86.7218L124.078 86.6895C124.159 86.6895 124.199 86.7272 124.199 86.8027L124.207 87.0292C124.213 87.1909 124.137 87.2799 123.981 87.2961C121.969 87.5172 120.931 88.7708 120.867 91.0571C120.71 96.6434 120.713 104.597 120.875 114.917C120.891 116.179 121.204 117.198 121.813 117.975C121.894 118.077 121.996 118.16 122.112 118.22C122.227 118.28 122.354 118.315 122.484 118.323C122.867 118.339 123.18 118.428 123.423 118.59C123.741 118.805 123.708 118.916 123.326 118.921L116.362 118.994C116.087 118.994 115.949 118.854 115.949 118.573L115.957 103.198C115.957 103.144 115.935 103.093 115.896 103.055C115.856 103.017 115.803 102.995 115.747 102.995H101.592C101.546 102.995 101.5 102.984 101.458 102.963C101.417 102.942 101.381 102.911 101.354 102.873C101.327 102.834 101.31 102.791 101.304 102.744C101.297 102.698 101.302 102.651 101.317 102.607L101.406 102.364C101.442 102.261 101.509 102.171 101.599 102.107C101.689 102.043 101.797 102.009 101.908 102.009H115.537C115.795 102.009 115.925 101.879 115.925 101.62Z" fill="#5C6068"/>
<path d="M137.334 87.7654C136.655 87.5605 136.232 87.334 136.064 87.086C135.859 86.7894 135.938 86.6411 136.299 86.6411C141.842 86.5872 147.461 86.598 153.155 86.6735C156.325 86.7166 159.329 87.8058 162.165 89.9411C168.231 94.5029 168.336 101.718 166.622 108.455C165.694 112.111 163.81 114.831 160.968 116.616C155.905 119.803 145.916 119.463 139.712 119.059C139.399 119.043 139.246 118.876 139.251 118.557C139.418 109.65 139.437 100.742 139.308 91.8338C139.275 89.6661 139.534 88.4205 137.334 87.7654ZM161.211 95.7566C158.792 88.5499 152.217 86.8352 145.382 87.4904C145.005 87.5248 144.655 87.6992 144.4 87.9792C144.146 88.2592 144.005 88.6245 144.007 89.0029C144.061 97.598 144.096 106.174 144.112 114.732C144.112 119.722 150.914 118.832 154.02 117.506C162.286 113.971 163.726 103.262 161.211 95.7566Z" fill="#5C6068"/>
<path d="M231.27 102.47L241.574 102.478C241.822 102.478 241.965 102.602 242.003 102.85L242.059 103.149C242.092 103.376 241.995 103.489 241.768 103.489L231.229 103.562C230.943 103.567 230.8 103.71 230.8 103.991V118.768C230.8 118.822 230.779 118.873 230.741 118.911C230.703 118.949 230.652 118.97 230.598 118.97L226.19 118.962C226.061 118.962 225.996 118.897 225.996 118.768C225.899 109.369 225.85 99.9304 225.85 90.4509C225.842 88.8899 224.864 87.5715 223.456 87.2156C223.395 87.2 223.342 87.1625 223.306 87.1104C223.271 87.0582 223.256 86.9949 223.264 86.9323C223.272 86.8697 223.302 86.8122 223.35 86.7705C223.397 86.7289 223.458 86.7059 223.521 86.7061H244.737C245.11 86.7059 245.473 86.8221 245.776 87.0382C246.08 87.2543 246.307 87.5596 246.427 87.9112L248.619 94.309C248.684 94.5032 248.63 94.6541 248.457 94.762C248.387 94.8051 248.322 94.8483 248.263 94.8914C248.214 94.9237 248.174 94.913 248.142 94.859C244.534 88.1943 238.25 86.8921 231.14 87.4906C230.914 87.5122 230.8 87.6362 230.8 87.8627V102.001C230.8 102.308 230.957 102.465 231.27 102.47Z" fill="#5C6068"/>
<path d="M302.974 94.3412L303.071 118.477C303.071 118.543 303.057 118.61 303.031 118.671C303.005 118.733 302.966 118.788 302.918 118.834C302.87 118.88 302.812 118.916 302.75 118.94C302.687 118.963 302.62 118.973 302.553 118.97L302.303 118.962C302.165 118.956 302.035 118.896 301.941 118.795C301.846 118.694 301.793 118.56 301.793 118.42C301.793 109.496 301.788 100.496 301.777 91.4213C301.777 90.8066 301.599 90.2404 301.469 89.65C301.416 89.3804 301.281 89.1566 301.065 88.9787L298.776 87.0698C298.598 86.9242 298.625 86.8353 298.857 86.8029C301.165 86.501 302.912 86.5333 304.098 86.9C305.95 87.4662 306.686 89.3831 307.592 91.0169C311.529 98.113 315.435 105.209 319.312 112.305C319.343 112.36 319.388 112.406 319.443 112.437C319.498 112.468 319.56 112.483 319.623 112.48C319.686 112.478 319.747 112.458 319.799 112.422C319.851 112.387 319.893 112.338 319.919 112.281C323.267 104.462 326.616 96.6086 329.964 88.7198C331.161 85.897 335.723 86.5926 338.036 86.6493C339.287 86.6816 339.341 86.9512 338.198 87.4581L336.661 88.1375C336.403 88.2507 336.244 88.4448 336.184 88.7198C335.893 90.0544 335.658 91.2596 335.65 92.6346C335.623 100 335.58 107.363 335.521 114.724C335.505 116.767 336.122 117.956 337.373 118.291C339.056 118.743 339.053 118.97 337.365 118.97H331.145C331.051 118.97 330.96 118.932 330.894 118.866C330.827 118.799 330.789 118.708 330.789 118.614V91.5426C330.789 90.3887 330.566 90.3429 330.118 91.4052L318.447 119.051C318.412 119.131 318.355 119.2 318.283 119.25C318.211 119.3 318.126 119.329 318.039 119.333C317.951 119.337 317.864 119.317 317.788 119.274C317.711 119.231 317.648 119.168 317.606 119.091L303.961 94.0904C303.297 92.8664 302.968 92.95 302.974 94.3412Z" fill="#5C6068"/>
<path d="M380.789 118.048L394.418 118.064C394.65 118.064 394.769 118.177 394.774 118.404L394.782 118.768C394.788 119.037 394.655 119.172 394.386 119.172H375.993C375.74 119.172 375.61 119.043 375.605 118.784C375.578 109.197 375.532 99.6229 375.467 90.0626C375.457 88.7361 374.837 87.8221 373.607 87.3206C372.62 86.9216 372.647 86.7194 373.688 86.714C376.632 86.7086 379.808 86.6978 383.216 86.6816C383.345 86.6816 383.442 86.7113 383.507 86.7706C383.572 86.8353 383.601 86.9081 383.596 86.989C383.596 87.113 383.534 87.1885 383.41 87.2155C382.58 87.388 381.822 87.7223 381.137 88.2184C380.905 88.3856 380.752 88.6066 380.676 88.8816C380.45 89.6851 380.337 90.2782 380.337 90.6611C380.364 99.6336 380.361 108.606 380.328 117.579C380.323 117.892 380.477 118.048 380.789 118.048Z" fill="#5C6068"/>
<path d="M98.4174 88.4282C98.2084 88.5917 98.0393 88.8012 97.923 89.0409C97.8067 89.2805 97.7462 89.544 97.7461 89.8113L97.8755 118.597C97.8755 118.845 97.7515 118.969 97.5035 118.969L93.1035 118.961C92.9525 118.961 92.877 118.886 92.877 118.735C92.9201 109.353 92.9039 99.9944 92.8285 90.6606C92.8177 89.237 91.9414 88.04 90.1998 87.0694C89.8924 86.8968 89.914 86.8105 90.2645 86.8105L101.07 86.8348C101.109 86.8294 101.148 86.8397 101.179 86.8632C101.21 86.8867 101.231 86.9216 101.236 86.9602C101.242 86.9988 101.231 87.038 101.208 87.0691C101.184 87.1002 101.149 87.1206 101.111 87.126C100.119 87.3686 99.2209 87.8027 98.4174 88.4282Z" fill="#5C6068"/>
<path d="M187.348 88.6709C187.251 89.8679 186.936 90.9841 186.928 92.1326C186.901 99.2503 186.906 106.368 186.944 113.486C186.952 114.545 187.211 115.702 187.227 116.826C187.238 117.117 187.362 117.346 187.599 117.514C188.101 117.853 188.718 118.096 189.451 118.242C189.645 118.279 189.737 118.425 189.726 118.678C189.722 118.742 189.695 118.801 189.65 118.845C189.605 118.889 189.545 118.913 189.484 118.913L182.309 118.994C182.215 118.994 182.124 118.956 182.058 118.889C181.991 118.823 181.953 118.732 181.953 118.638C181.943 109.272 181.943 99.8785 181.953 90.4584C181.953 88.3716 180.902 87.2824 178.799 87.1907C178.68 87.1853 178.621 87.1233 178.621 87.0047V86.9966C178.621 86.9472 178.643 86.8999 178.683 86.865C178.722 86.8302 178.776 86.8105 178.831 86.8105L189.961 86.8186C190.117 86.8186 190.206 86.8968 190.228 87.0532L190.26 87.2554C190.271 87.3417 190.233 87.3929 190.147 87.4091C189.316 87.5331 188.513 87.7677 187.737 88.1128C187.499 88.2206 187.37 88.4066 187.348 88.6709Z" fill="#5C6068"/>
<path d="M352.375 88.0959L350.822 87.2871C350.775 87.2636 350.736 87.2247 350.714 87.1767C350.691 87.1287 350.685 87.0745 350.698 87.0229C350.71 86.9712 350.739 86.9253 350.781 86.8925C350.823 86.8597 350.874 86.842 350.927 86.8423L360.01 86.8018C362.367 86.7964 362.44 87.0984 360.229 87.7077C359.77 87.8371 359.342 88.0501 358.943 88.3467C358.753 88.4887 358.614 88.6901 358.546 88.9209C358.19 90.2151 358.007 91.2665 357.996 92.0754C357.942 96.1465 357.953 103.693 358.029 114.714C358.034 115.615 358.102 116.289 358.231 116.736C358.506 117.669 358.986 118.198 359.671 118.322C361.186 118.591 361.175 118.783 359.638 118.896C357.729 119.042 355.732 119.047 353.645 118.912C353.37 118.896 353.232 118.748 353.232 118.467C353.243 109.592 353.238 100.73 353.216 91.8813C353.216 90.6734 353.111 89.6327 352.901 88.7592C352.865 88.6171 352.8 88.4845 352.709 88.3701C352.619 88.2557 352.505 88.1622 352.375 88.0959Z" fill="#5C6068"/>
<path d="M419.254 102.987C421.347 99.3634 423.323 95.6778 425.183 91.9303C426.073 90.1347 426.874 87.3847 423.574 87.4494C423.439 87.4548 423.377 87.3901 423.387 87.2553L423.404 87.0207C423.414 86.8967 423.482 86.832 423.606 86.8266L431.783 86.7861C431.999 86.7861 432.053 86.8805 431.945 87.0692C431.848 87.2364 431.651 87.3119 431.354 87.2957C431.09 87.2849 430.842 87.3388 430.61 87.4575C429.171 88.2016 428.17 89.0239 427.61 89.9244C426.04 92.4425 423.536 97.0663 420.096 103.796C419.896 104.189 419.783 105.136 419.756 106.635C419.697 110.744 419.664 114.658 419.659 118.379C419.659 118.772 419.462 118.969 419.068 118.969H415.615C415.532 118.969 415.449 118.953 415.373 118.921C415.296 118.889 415.227 118.842 415.168 118.784C415.11 118.725 415.065 118.655 415.035 118.579C415.004 118.502 414.99 118.42 414.992 118.338C415.154 111.908 415.542 106.594 413.018 102.194C409.67 96.3707 406.844 91.9707 404.542 88.9942C403.776 88.0021 402.479 87.3901 400.651 87.1582C400.533 87.142 400.479 87.0746 400.49 86.956V86.9479C400.495 86.8455 400.549 86.7942 400.651 86.7942L413.39 86.8347C413.487 86.8347 413.541 86.8805 413.552 86.9722L413.593 87.2148C413.603 87.3011 413.563 87.3442 413.471 87.3442C412.048 87.3119 411.188 87.932 410.891 89.2045C410.821 89.5011 410.864 89.7815 411.021 90.0457L418.551 102.987C418.788 103.386 419.023 103.386 419.254 102.987Z" fill="#5C6068"/>
<path d="M181.147 149.709C181.137 150.809 180.691 151.861 179.906 152.632C179.121 153.404 178.062 153.832 176.962 153.822L176.363 153.817C175.818 153.812 175.28 153.7 174.778 153.487C174.276 153.274 173.822 152.965 173.44 152.576C173.058 152.187 172.756 151.727 172.552 151.222C172.348 150.717 172.245 150.176 172.25 149.631L172.293 144.762C172.302 143.662 172.749 142.611 173.534 141.839C174.318 141.068 175.378 140.64 176.478 140.65L177.077 140.655C177.621 140.66 178.16 140.772 178.662 140.984C179.163 141.197 179.618 141.507 180 141.896C180.382 142.284 180.683 142.744 180.887 143.25C181.092 143.755 181.194 144.295 181.189 144.84L181.147 149.709ZM179.715 144.624C179.711 143.907 179.423 143.222 178.914 142.718C178.404 142.214 177.716 141.933 176.999 141.936L176.385 141.94C175.668 141.943 174.982 142.232 174.478 142.741C173.975 143.25 173.693 143.939 173.697 144.655L173.725 149.912C173.729 150.629 174.017 151.315 174.526 151.819C175.035 152.323 175.724 152.604 176.44 152.6L177.055 152.597C177.772 152.593 178.457 152.305 178.961 151.795C179.465 151.286 179.746 150.597 179.742 149.881L179.715 144.624Z" fill="#5C6068"/>
<path d="M236.409 150.374C236.838 153.383 241.181 153.165 241.828 150.754C241.909 150.458 241.998 150.245 242.095 150.115C242.57 149.479 242.961 149.698 243.268 150.771C243.313 150.924 243.322 151.085 243.294 151.243C243.266 151.4 243.202 151.548 243.106 151.676C242.022 153.143 240.704 153.898 239.151 153.941C234.266 154.071 234.233 148.837 234.686 144.769C235.269 139.455 242.88 139.043 243.244 144.09C243.265 144.392 243.125 144.553 242.823 144.575L242.597 144.583C242.438 144.594 242.28 144.547 242.154 144.45C242.027 144.353 241.94 144.214 241.909 144.057C241.375 141.534 238.48 141.437 236.83 142.707C236.609 142.879 236.476 143.103 236.433 143.378C236.088 145.745 236.08 148.077 236.409 150.374Z" fill="#5C6068"/>
<path d="M192.279 146.297L197.156 146.281C197.189 146.281 197.222 146.288 197.253 146.301C197.283 146.314 197.311 146.334 197.333 146.358C197.356 146.382 197.374 146.411 197.385 146.442C197.396 146.474 197.401 146.507 197.399 146.54L197.366 147.171C197.364 147.234 197.338 147.294 197.292 147.337C197.247 147.381 197.186 147.406 197.124 147.406L192.279 147.381C192.214 147.381 192.153 147.407 192.107 147.452C192.062 147.498 192.036 147.56 192.036 147.624L192.044 153.367C192.044 153.428 192.021 153.488 191.979 153.533C191.937 153.578 191.879 153.605 191.818 153.609L190.904 153.666C190.87 153.668 190.837 153.663 190.806 153.652C190.774 153.641 190.746 153.624 190.722 153.601C190.697 153.578 190.678 153.551 190.665 153.52C190.652 153.489 190.645 153.456 190.645 153.423L190.637 141.089C190.637 141.024 190.662 140.963 190.708 140.917C190.753 140.872 190.815 140.846 190.879 140.846L197.843 140.838C197.877 140.838 197.911 140.845 197.942 140.858C197.973 140.872 198.001 140.892 198.024 140.917C198.047 140.942 198.064 140.972 198.075 141.004C198.086 141.037 198.089 141.071 198.086 141.105L198.029 141.72C198.023 141.78 197.995 141.835 197.95 141.876C197.905 141.916 197.847 141.938 197.787 141.938L192.271 141.954C192.206 141.954 192.144 141.98 192.099 142.025C192.053 142.071 192.028 142.132 192.028 142.197L192.036 146.055C192.036 146.119 192.062 146.181 192.107 146.226C192.153 146.272 192.214 146.297 192.279 146.297Z" fill="#5C6068"/>
<path d="M208.701 142.197L208.741 146.038C208.741 146.095 208.763 146.149 208.802 146.19C208.841 146.231 208.895 146.255 208.951 146.257L213.934 146.419C213.984 146.422 214.031 146.442 214.068 146.476C214.105 146.51 214.129 146.555 214.136 146.605L214.209 147.098C214.213 147.129 214.211 147.16 214.203 147.19C214.195 147.219 214.18 147.247 214.16 147.271C214.14 147.295 214.115 147.314 214.088 147.327C214.06 147.341 214.029 147.348 213.998 147.349L208.992 147.414C208.935 147.413 208.881 147.435 208.84 147.475C208.799 147.514 208.775 147.567 208.773 147.624L208.644 153.383C208.642 153.436 208.62 153.488 208.583 153.527C208.546 153.565 208.495 153.589 208.442 153.593L207.415 153.69C207.384 153.693 207.353 153.69 207.323 153.681C207.294 153.671 207.267 153.656 207.244 153.635C207.221 153.615 207.203 153.589 207.19 153.561C207.178 153.533 207.172 153.502 207.172 153.472L207.196 141.088C207.196 141.031 207.219 140.975 207.26 140.934C207.301 140.893 207.357 140.87 207.415 140.87L214.492 140.919C214.526 140.919 214.56 140.928 214.591 140.944C214.621 140.961 214.648 140.984 214.667 141.012C214.687 141.041 214.7 141.074 214.705 141.108C214.709 141.142 214.706 141.177 214.694 141.21L214.5 141.744C214.485 141.786 214.458 141.822 214.422 141.848C214.385 141.874 214.342 141.888 214.298 141.889L208.919 141.978C208.861 141.978 208.805 142.001 208.765 142.042C208.724 142.083 208.701 142.139 208.701 142.197Z" fill="#5C6068"/>
<path d="M224.635 140.831L224.279 140.83C224.002 140.829 223.777 141.054 223.776 141.331L223.756 153.123C223.755 153.4 223.98 153.625 224.256 153.626L224.612 153.626C224.889 153.627 225.114 153.403 225.115 153.126L225.135 141.333C225.136 141.056 224.912 140.831 224.635 140.831Z" fill="#5C6068"/>
<path d="M254.041 147.988L253.977 152.226C253.977 152.256 253.982 152.286 253.994 152.313C254.005 152.341 254.022 152.366 254.043 152.387C254.064 152.408 254.089 152.424 254.116 152.436C254.144 152.447 254.173 152.453 254.203 152.453L259.566 152.461C259.607 152.461 259.648 152.472 259.684 152.493C259.719 152.515 259.748 152.545 259.768 152.582L260.156 153.294C260.176 153.328 260.186 153.367 260.186 153.407C260.186 153.446 260.176 153.485 260.156 153.52C260.137 153.554 260.109 153.583 260.074 153.603C260.04 153.623 260.001 153.633 259.962 153.634L252.715 153.593C252.655 153.593 252.597 153.57 252.555 153.527C252.512 153.485 252.488 153.427 252.488 153.367L252.504 141.113C252.504 141.053 252.528 140.996 252.571 140.953C252.613 140.911 252.671 140.887 252.731 140.887L259.768 140.919C259.802 140.919 259.836 140.927 259.867 140.943C259.898 140.958 259.925 140.98 259.946 141.007C259.967 141.035 259.982 141.066 259.989 141.1C259.996 141.134 259.995 141.169 259.986 141.202L259.849 141.744C259.836 141.793 259.808 141.835 259.768 141.866C259.729 141.897 259.68 141.914 259.63 141.914L254.227 141.962C254.167 141.962 254.11 141.986 254.067 142.029C254.025 142.071 254.001 142.129 254.001 142.189L254.017 146.419C254.017 146.479 254.041 146.537 254.083 146.579C254.126 146.622 254.183 146.646 254.243 146.646L259.202 146.694C259.255 146.695 259.306 146.716 259.346 146.751C259.386 146.787 259.412 146.835 259.42 146.888L259.509 147.487C259.513 147.518 259.511 147.551 259.502 147.581C259.494 147.612 259.478 147.641 259.458 147.665C259.437 147.69 259.412 147.709 259.383 147.723C259.354 147.737 259.322 147.745 259.291 147.746L254.26 147.77C254.202 147.772 254.148 147.795 254.107 147.836C254.067 147.877 254.043 147.931 254.041 147.988Z" fill="#5C6068"/>
<path d="M544.834 2.10826C544.274 3.30826 544.934 4.04826 546.104 4.34826C546.671 4.5016 547.241 4.64826 547.814 4.78826C553.394 6.21826 547.734 13.5683 543.444 9.26826C543.011 8.82826 542.984 8.36493 543.364 7.87826C543.584 7.59826 543.854 7.52826 544.174 7.66826C544.661 7.88826 545.058 8.22159 545.364 8.66826C545.457 8.80655 545.587 8.91625 545.739 8.98511C545.891 9.05397 546.059 9.0793 546.224 9.05826L547.094 8.93826C547.449 8.89183 547.775 8.71669 548.009 8.44609C548.243 8.1755 548.37 7.82831 548.365 7.47046C548.36 7.11262 548.224 6.76905 547.982 6.50502C547.74 6.24098 547.41 6.07488 547.054 6.03826C539.244 5.19826 543.204 -2.07174 548.804 0.578258C549.065 0.701589 549.273 0.913798 549.391 1.17733C549.51 1.44087 549.533 1.73874 549.454 2.01826C549.294 2.56493 549.024 2.87493 548.644 2.94826C548.331 3.00826 548.101 2.89492 547.954 2.60826C547.441 1.61492 546.641 1.24826 545.554 1.50826C545.214 1.59492 544.974 1.79492 544.834 2.10826Z" fill="#5C6068"/>
<path d="M560.503 1.99827L558.383 1.70828C558.315 1.69881 558.252 1.66546 558.206 1.61417C558.161 1.56289 558.135 1.497 558.133 1.42827V0.428269C558.133 0.387525 558.141 0.347193 558.157 0.309899C558.174 0.272606 558.198 0.239192 558.228 0.211831C558.258 0.18447 558.294 0.163775 558.333 0.151101C558.371 0.138427 558.412 0.13406 558.453 0.138276L565.213 0.818269C565.288 0.828262 565.356 0.867376 565.403 0.927209C565.45 0.987041 565.471 1.06283 565.463 1.13828L565.323 2.34827C565.317 2.38765 565.303 2.42538 565.282 2.45912C565.261 2.49287 565.233 2.5219 565.2 2.54442C565.167 2.56693 565.13 2.58244 565.091 2.58999C565.052 2.59753 565.012 2.59695 564.973 2.58827L562.753 2.12827C562.714 2.1196 562.674 2.11901 562.635 2.12656C562.596 2.1341 562.558 2.14961 562.526 2.17213C562.493 2.19464 562.465 2.22368 562.444 2.25742C562.423 2.29117 562.409 2.3289 562.403 2.36827L561.393 10.3483C561.383 10.4164 561.35 10.4789 561.299 10.5247C561.247 10.5705 561.182 10.5966 561.113 10.5983L560.423 10.6083C560.381 10.6099 560.34 10.6026 560.301 10.5869C560.263 10.5711 560.228 10.5472 560.2 10.5168C560.171 10.4865 560.15 10.4504 560.136 10.4109C560.123 10.3715 560.118 10.3297 560.123 10.2883L560.753 2.30827C560.759 2.23445 560.736 2.16122 560.689 2.10358C560.643 2.04594 560.576 2.00826 560.503 1.99827Z" fill="#5C6068"/>
<path d="M533.232 10.2189C533.612 7.90891 532.402 4.95891 531.782 2.77891C531.682 2.43224 531.812 2.24891 532.172 2.22891L532.952 2.18891C533.359 2.16891 533.602 2.36224 533.682 2.76891L534.912 8.90891C534.998 9.33752 534.994 9.77927 534.901 10.2064C534.808 10.6335 534.628 11.0367 534.372 11.3908C534.115 11.7448 533.788 12.042 533.412 12.2637C533.035 12.4854 532.616 12.6267 532.182 12.6789L531.392 12.7689C530.725 12.8456 530.053 12.6782 529.5 12.2977C528.946 11.9172 528.549 11.3493 528.382 10.6989L526.682 4.05891C526.596 3.69891 526.726 3.45891 527.072 3.33891L527.382 3.23891C527.526 3.19212 527.678 3.179 527.827 3.20059C527.976 3.22219 528.118 3.2779 528.241 3.36331C528.364 3.44873 528.465 3.56149 528.537 3.69264C528.608 3.8238 528.648 3.96975 528.652 4.11891C528.726 6.25224 529.166 8.30224 529.972 10.2689C530.099 10.5689 530.309 10.7856 530.602 10.9189C531.276 11.2322 531.956 11.2456 532.642 10.9589C532.976 10.8189 533.172 10.5722 533.232 10.2189Z" fill="#5C6068"/>
<path d="M574.462 8.95819L574.103 10.7982C574.043 11.1315 574.169 11.3615 574.483 11.4882L577.823 12.7982C577.903 12.8249 577.936 12.8849 577.923 12.9782L577.863 13.3982C577.849 13.4874 577.817 13.5726 577.767 13.6484C577.718 13.7242 577.653 13.7887 577.577 13.8378C577.5 13.8869 577.414 13.9194 577.324 13.9333C577.233 13.9471 577.141 13.942 577.053 13.9182L572.742 12.7382C572.596 12.6981 572.459 12.6288 572.339 12.5345C572.22 12.4402 572.121 12.3227 572.048 12.1892C571.975 12.0557 571.93 11.9088 571.915 11.7574C571.901 11.606 571.917 11.4532 571.962 11.3082L574.412 3.45819C574.506 3.15819 574.709 3.02152 575.022 3.04819C576.576 3.18152 577.786 3.46819 578.652 3.90819C581.172 5.19485 581.019 5.76819 578.192 5.62819C578.026 5.61486 577.446 5.35818 576.453 4.85818C576.374 4.81826 576.289 4.79487 576.201 4.78947C576.113 4.78407 576.025 4.79678 575.943 4.8268C575.86 4.85682 575.785 4.90351 575.721 4.96396C575.657 5.02441 575.607 5.09733 575.573 5.17818L574.992 6.58819C574.799 7.06819 574.953 7.36485 575.453 7.47819L578.182 8.09819C578.252 8.11292 578.318 8.14206 578.376 8.18381C578.434 8.22556 578.482 8.27902 578.519 8.34089C578.556 8.40276 578.579 8.47173 578.588 8.54351C578.598 8.61529 578.592 8.68835 578.573 8.75819L578.492 9.01819C578.467 9.10574 578.425 9.18741 578.368 9.25851C578.311 9.3296 578.24 9.3887 578.16 9.4324C578.08 9.47609 577.993 9.50352 577.902 9.5131C577.811 9.52268 577.72 9.51421 577.632 9.48819L574.953 8.65819C574.679 8.57819 574.516 8.67819 574.462 8.95819Z" fill="#5C6068"/>
<path d="M515.646 14.9086L516.906 17.4586C516.94 17.5245 516.958 17.5973 516.959 17.6713C516.96 17.7454 516.944 17.8187 516.912 17.8855C516.88 17.9524 516.833 18.0109 516.775 18.0565C516.716 18.1022 516.648 18.1337 516.576 18.1486L516.196 18.2286C515.736 18.3286 515.406 18.1619 515.206 17.7286L511.736 10.0486C511.659 9.87666 511.647 9.683 511.702 9.50425C511.758 9.32551 511.876 9.17408 512.036 9.07861C513.456 8.23194 514.982 7.73528 516.616 7.58861C516.956 7.55528 517.256 7.64861 517.516 7.86861C519.049 9.15528 519.439 10.6286 518.686 12.2886C518.532 12.6153 518.599 12.8853 518.886 13.0986L521.516 15.0986C521.929 15.4119 521.896 15.6719 521.416 15.8786L521.076 16.0186C520.569 16.2386 520.109 16.1653 519.696 15.7986C518.416 14.6653 517.566 13.9986 517.146 13.7986C516.546 13.5053 516.062 13.6253 515.696 14.1586C515.529 14.3986 515.512 14.6486 515.646 14.9086ZM513.796 10.3386L514.596 12.3486C514.656 12.4956 514.771 12.6129 514.917 12.6747C515.064 12.7366 515.228 12.738 515.376 12.6786L516.466 12.2386C516.651 12.1646 516.821 12.0562 516.965 11.9196C517.109 11.783 517.224 11.621 517.305 11.4427C517.386 11.2644 517.43 11.0733 517.436 10.8805C517.441 10.6876 517.407 10.4967 517.336 10.3186L517.176 9.90861C517.032 9.55014 516.745 9.26571 516.38 9.11763C516.014 8.96956 515.599 8.96991 515.226 9.11861L514.126 9.55861C513.979 9.61853 513.861 9.73425 513.8 9.88044C513.738 10.0266 513.736 10.1914 513.796 10.3386Z" fill="#5C6068"/>
<path d="M589.136 8.54896C589.176 8.46482 589.233 8.38951 589.303 8.32735C589.373 8.2652 589.454 8.21743 589.542 8.18677C589.63 8.15612 589.724 8.14318 589.817 8.1487C589.91 8.15423 590.002 8.1781 590.086 8.21896L592.406 9.35896C593.292 9.79672 593.967 10.5691 594.284 11.5066C594.601 12.444 594.533 13.4699 594.096 14.359L592.956 16.699C592.739 17.14 592.438 17.5341 592.069 17.8588C591.7 18.1834 591.272 18.4323 590.807 18.5911C590.343 18.7499 589.852 18.8155 589.363 18.7843C588.873 18.753 588.395 18.6255 587.956 18.409L585.636 17.269C585.467 17.1852 585.339 17.0382 585.279 16.8601C585.219 16.682 585.232 16.4874 585.316 16.319L589.136 8.54896ZM592.896 12.6157C593.03 12.3475 593.051 12.0371 592.956 11.7529C592.861 11.4687 592.657 11.2339 592.389 11.1002L591.279 10.5469C591.011 10.4132 590.7 10.3915 590.416 10.4866C590.132 10.5817 589.897 10.7858 589.764 11.054L587.675 15.2423C587.542 15.5105 587.52 15.8208 587.615 16.105C587.71 16.3892 587.914 16.624 588.182 16.7578L589.292 17.3111C589.56 17.4448 589.871 17.4664 590.155 17.3713C590.439 17.2762 590.674 17.0722 590.808 16.804L592.896 12.6157Z" fill="#5C6068"/>
<path d="M500.584 17.8189C500.541 17.7549 500.483 17.7026 500.415 17.6663C500.347 17.6301 500.271 17.6112 500.194 17.6112C500.117 17.6112 500.041 17.6301 499.973 17.6663C499.905 17.7026 499.847 17.7549 499.804 17.8189C499.404 18.4189 498.861 18.7589 498.174 18.8389C498.025 18.853 497.876 18.8177 497.749 18.7384C497.622 18.6591 497.525 18.5402 497.473 18.4001C497.42 18.2601 497.416 18.1066 497.459 17.9636C497.503 17.8206 497.592 17.6959 497.714 17.6089L502.774 14.0989C502.911 14.0037 503.076 13.9569 503.243 13.9659C503.409 13.975 503.568 14.0394 503.694 14.1489L503.914 14.3289C503.969 14.3747 504.013 14.4314 504.045 14.4952C504.077 14.5591 504.096 14.6289 504.099 14.7002C504.103 14.7715 504.092 14.8428 504.067 14.9097C504.042 14.9765 504.004 15.0375 503.954 15.0889C503.507 15.5489 502.991 15.9089 502.404 16.1689C502.307 16.2106 502.221 16.2735 502.151 16.3528C502.082 16.4322 502.031 16.526 502.002 16.6275C501.973 16.729 501.967 16.8357 501.985 16.9397C502.003 17.0437 502.043 17.1425 502.104 17.2289L506.234 23.1589C506.285 23.2316 506.319 23.3146 506.334 23.4019C506.35 23.4892 506.346 23.5789 506.323 23.6645C506.3 23.7502 506.259 23.8299 506.202 23.898C506.145 23.9661 506.074 24.021 505.994 24.0589L505.714 24.1889C505.261 24.4089 504.894 24.3089 504.614 23.8889L500.584 17.8189Z" fill="#5C6068"/>
<path d="M586.073 86.6589C587.843 87.0389 589.363 88.1789 590.883 88.6189C592.753 89.1489 594.853 89.3689 596.293 90.6289C599.743 93.6189 599.213 98.8989 599.283 104.229C599.59 124.742 599.716 144.939 599.663 164.819C599.656 165.912 599.193 166.746 598.273 167.319L591.283 171.649C590.156 172.342 589.16 172.192 588.293 171.199C580.92 162.792 573.413 154.096 565.773 145.109C562.923 141.769 558.943 138.189 556.603 135.289C550.856 128.149 546.52 122.982 543.593 119.789C542.813 118.939 541.583 118.319 540.883 117.529C537.756 113.989 533.106 108.489 526.933 101.029C526.54 100.549 526.016 100.026 525.363 99.4589C522.043 96.5589 519.453 93.1089 516.653 89.7389C516.433 89.4722 515.886 89.1289 515.013 88.7089C513.193 87.8289 512.593 86.1389 510.273 86.2489C506.423 86.4289 502.543 85.4689 499.123 85.4689C496.29 85.4689 493.46 85.4689 490.633 85.4689C488.753 85.4689 487.313 86.2789 485.323 86.2589C484.796 86.2523 484.733 86.4222 485.133 86.7689C486.713 88.1089 488.463 88.6089 489.933 90.0289C491.753 91.7889 493.843 92.8089 495.643 94.5789C497.313 96.2089 499.353 97.4689 500.913 98.9389C505.323 103.119 506.843 104.129 506.873 110.729C506.933 124.562 506.953 138.426 506.933 152.319C506.933 152.382 506.913 152.444 506.877 152.497C506.842 152.549 506.791 152.59 506.732 152.614C506.673 152.637 506.608 152.643 506.546 152.629C506.484 152.616 506.427 152.585 506.383 152.539C504.056 150.246 501.68 147.942 499.253 145.629C461.123 109.239 474.603 45.8789 521.953 25.8789C562.153 8.90892 607.963 30.3389 620.873 71.9189C628.543 96.6589 622.243 123.729 604.913 142.809C604.63 143.118 604.473 143.525 604.473 143.949L604.443 158.769C604.436 160.509 605.073 160.789 606.353 159.609C610.833 155.476 615.01 151.059 618.883 146.359C620.863 143.949 622.353 141.029 624.183 138.339C626.343 135.139 628.463 130.789 629.703 127.199C629.85 126.766 630.13 126.649 630.543 126.849L631.153 127.149C631.406 127.269 631.476 127.462 631.363 127.729C626.503 139.349 620.583 147.739 611.843 156.689C609.473 159.119 606.013 161.299 603.453 164.059C603.391 164.126 603.311 164.172 603.222 164.192C603.134 164.212 603.041 164.205 602.957 164.171C602.873 164.138 602.8 164.079 602.75 164.004C602.699 163.929 602.672 163.84 602.673 163.749C602.693 142.889 602.723 121.879 602.763 100.719C602.763 97.5289 604.173 90.2989 608.523 89.1489C610.703 88.5756 612.696 87.9156 614.503 87.1689C615.623 86.7156 615.58 86.4622 614.373 86.4089C605.246 86.0089 595.823 86.0089 586.103 86.4089C585.436 86.4356 585.426 86.5189 586.073 86.6589ZM590.613 170.269L597.703 165.569C598.01 165.362 598.163 165.072 598.163 164.699L598.123 149.839C598.124 149.797 598.113 149.756 598.091 149.72C598.069 149.685 598.036 149.657 597.997 149.639C597.959 149.621 597.915 149.614 597.872 149.62C597.828 149.625 597.787 149.642 597.753 149.669C592.786 153.916 587.323 157.386 581.363 160.079C581.036 160.226 580.99 160.436 581.223 160.709L589.343 170.089C589.497 170.268 589.71 170.386 589.944 170.419C590.178 170.452 590.416 170.399 590.613 170.269Z" fill="#5C6068"/>
<path d="M608.592 28.3684L606.902 30.3684C606.825 30.4603 606.716 30.5195 606.595 30.5343C606.475 30.5491 606.353 30.5185 606.252 30.4484L605.902 30.2084C605.814 30.1468 605.74 30.0671 605.685 29.9748C605.63 29.8824 605.595 29.7795 605.583 29.6727C605.571 29.5659 605.581 29.4577 605.614 29.3552C605.647 29.2528 605.701 29.1585 605.772 29.0784L611.662 22.5584C611.896 22.3051 612.136 22.2984 612.382 22.5384C614.162 24.2784 617.782 26.6284 614.522 29.3584C612.582 30.9784 610.952 29.7884 609.422 28.3284C609.129 28.0417 608.852 28.0551 608.592 28.3684ZM613.886 27.3151C614.081 27.1089 614.186 26.8337 614.178 26.5501C614.17 26.2664 614.049 25.9975 613.843 25.8025L613.059 25.0604C612.852 24.8654 612.577 24.7603 612.294 24.7682C612.01 24.7762 611.741 24.8964 611.546 25.1026L610.639 26.0617C610.444 26.2679 610.339 26.5431 610.347 26.8268C610.355 27.1104 610.475 27.3793 610.681 27.5743L611.466 28.3164C611.672 28.5114 611.947 28.6165 612.231 28.6086C612.515 28.6007 612.784 28.4804 612.979 28.2742L613.886 27.3151Z" fill="#5C6068"/>
<path d="M569.393 177.548C566.603 173.558 563.333 168.848 559.583 166.588C559.31 166.426 558.995 166.356 558.683 166.388C545.476 167.775 533.476 166.108 522.683 161.388C520.743 160.535 516.803 158.582 510.863 155.528C510.576 155.375 510.43 155.135 510.423 154.808C510.396 142.775 510.393 130.745 510.413 118.718C510.423 115.748 511.023 112.788 511.203 109.798C511.236 109.265 511.43 109.198 511.783 109.598C519.276 118.012 526.21 125.825 532.583 133.038C543.59 145.492 554.553 157.985 565.473 170.518C567.393 172.728 570.493 174.938 572.583 178.018C572.634 178.094 572.666 178.182 572.675 178.273C572.684 178.364 572.671 178.456 572.637 178.541C572.602 178.626 572.547 178.701 572.477 178.76C572.406 178.819 572.323 178.859 572.233 178.878C568.543 179.678 565.203 180.988 561.393 181.018C554.713 181.065 548.033 181.065 541.353 181.018C540.36 181.012 538.933 180.792 537.073 180.358C535.053 179.898 533.153 180.118 531.253 179.608C529.506 179.128 527.76 178.658 526.013 178.198C522.343 177.238 519.043 175.178 515.303 173.948C513.07 173.215 511.223 172.385 509.763 171.458C499.133 164.688 488.883 157.658 481.233 147.408C465.113 125.828 458.773 98.3382 465.903 71.8983C468.343 62.8683 471.053 56.1182 475.413 49.3682C477.613 45.9683 479.553 42.3382 482.083 39.2882C483.263 37.8682 484.463 36.4649 485.683 35.0782C487.323 33.2282 489.773 31.7383 491.513 29.5283C491.653 29.3416 491.806 29.2282 491.973 29.1882C492.2 29.1349 492.403 29.1483 492.583 29.2283C492.663 29.2651 492.734 29.3197 492.79 29.3879C492.845 29.4561 492.885 29.5362 492.905 29.622C492.925 29.7078 492.926 29.7971 492.906 29.8831C492.887 29.9691 492.848 30.0495 492.793 30.1183C488.693 35.0882 483.243 39.0283 480.143 44.7283C478.283 48.1583 475.803 51.5283 474.213 54.6683C463.223 76.4883 461.693 100.718 470.163 124.028C473.383 132.908 479.013 142.488 484.713 149.178C488.343 153.438 494.633 159.448 500.173 163.288C504.763 166.468 509.313 169.788 514.483 171.978C516.803 172.958 518.793 174.368 521.173 174.998C524.36 175.852 527.53 176.755 530.683 177.708C533.023 178.408 535.323 178.078 537.783 178.598C540.503 179.168 543.213 179.138 546.403 180.008C549.03 180.735 552.17 180.665 555.823 179.798C560.113 178.778 564.753 178.738 569.113 178.168C569.546 178.108 569.64 177.902 569.393 177.548Z" fill="#5C6068"/>
<path d="M617.025 39.0582C616.578 39.2715 616.111 39.4082 615.625 39.4682C615.191 39.5149 614.898 39.3382 614.745 38.9382L614.615 38.6282C614.535 38.4082 614.601 38.2615 614.815 38.1882L623.435 35.0782C623.585 35.0227 623.748 35.0056 623.909 35.0283C624.069 35.0509 624.222 35.1127 624.355 35.2082C624.628 35.4015 624.848 35.6449 625.015 35.9382C625.208 36.2715 625.201 36.5982 624.995 36.9182L620.095 44.4682C620.048 44.5405 619.987 44.602 619.915 44.6488C619.842 44.6957 619.761 44.7267 619.676 44.7399C619.591 44.7532 619.504 44.7483 619.421 44.7256C619.338 44.7029 619.261 44.6629 619.195 44.6082L618.905 44.3782C618.578 44.1049 618.531 43.7915 618.765 43.4382L619.605 42.1882C619.798 41.8949 619.788 41.6082 619.575 41.3282L617.985 39.2882C617.725 38.9549 617.405 38.8782 617.025 39.0582ZM622.725 37.0082L619.605 38.1082C619.535 38.1316 619.472 38.1722 619.422 38.2263C619.372 38.2804 619.336 38.3464 619.317 38.4184C619.298 38.4905 619.297 38.5665 619.314 38.6397C619.331 38.7129 619.366 38.781 619.415 38.8382L620.255 39.7882C620.561 40.1415 620.855 40.1315 621.135 39.7582L622.955 37.3082C622.978 37.2735 622.989 37.2325 622.988 37.1909C622.986 37.1494 622.972 37.1093 622.947 37.0763C622.921 37.0433 622.886 37.019 622.847 37.0068C622.807 36.9946 622.764 36.9951 622.725 37.0082Z" fill="#5C6068"/>
<path d="M629.033 54.4986L627.153 57.1486C627.111 57.2084 627.055 57.2567 626.989 57.2894C626.924 57.322 626.851 57.3381 626.777 57.3361C626.703 57.3341 626.63 57.3142 626.565 57.2781C626.5 57.2419 626.444 57.1906 626.403 57.1286L626.233 56.8786C625.939 56.4386 625.936 55.9953 626.223 55.5486C626.723 54.7753 627.279 53.9919 627.893 53.1986C628.193 52.8119 628.333 52.4753 628.313 52.1886C628.293 51.9486 628.193 51.7453 628.013 51.5786C627.693 51.2786 627.339 51.2253 626.953 51.4186L624.893 52.4486C624.729 52.5321 624.542 52.5597 624.36 52.5273C624.178 52.4948 624.01 52.404 623.883 52.2686L623.613 51.9686C623.565 51.9155 623.53 51.8521 623.51 51.7833C623.491 51.7146 623.487 51.6422 623.499 51.5718C623.512 51.5015 623.54 51.4348 623.583 51.3771C623.625 51.3194 623.68 51.272 623.743 51.2386L631.523 47.1586C631.883 46.9653 632.183 47.0319 632.423 47.3586C633.349 48.5986 634.043 49.9619 634.503 51.4486C634.553 51.6122 634.569 51.7849 634.548 51.9555C634.528 52.1261 634.471 52.2907 634.383 52.4386C633.276 54.2919 631.719 54.9019 629.713 54.2686C629.433 54.1819 629.206 54.2586 629.033 54.4986ZM632.08 49.6341C632.011 49.518 631.919 49.4168 631.811 49.3361C631.702 49.2555 631.579 49.197 631.448 49.164C631.316 49.1311 631.18 49.1243 631.046 49.144C630.912 49.1638 630.784 49.2097 630.668 49.2792L629.672 49.8749C629.556 49.9444 629.455 50.036 629.374 50.1446C629.294 50.2532 629.235 50.3766 629.202 50.5078C629.169 50.639 629.163 50.7754 629.182 50.9092C629.202 51.043 629.248 51.1716 629.317 51.2877L629.985 52.4031C630.055 52.5192 630.146 52.6204 630.255 52.7011C630.363 52.7817 630.487 52.8402 630.618 52.8732C630.749 52.9061 630.886 52.9129 631.019 52.8932C631.153 52.8734 631.282 52.8275 631.398 52.758L632.393 52.1623C632.509 52.0928 632.611 52.0012 632.691 51.8926C632.772 51.784 632.83 51.6606 632.863 51.5294C632.896 51.3982 632.903 51.2618 632.883 51.128C632.863 50.9942 632.818 50.8656 632.748 50.7495L632.08 49.6341Z" fill="#5C6068"/>
<path d="M638.064 63.4686L637.494 62.2886C637.294 61.8686 637.411 61.5786 637.844 61.4186L638.114 61.3186C638.708 61.0986 639.088 61.2952 639.254 61.9086L640.724 67.4486C640.745 67.528 640.748 67.611 640.733 67.6917C640.718 67.7724 640.686 67.8488 640.638 67.9156C640.59 67.9824 640.529 68.0379 640.457 68.0781C640.386 68.1184 640.306 68.1424 640.224 68.1486L639.894 68.1686C639.767 68.1767 639.642 68.1344 639.545 68.0504C639.448 67.9665 639.387 67.8475 639.374 67.7186C639.321 67.1452 639.181 66.5952 638.954 66.0686C638.899 65.95 638.803 65.8559 638.683 65.8042C638.563 65.7525 638.428 65.7469 638.304 65.7886L631.244 68.1286C630.824 68.2686 630.568 68.1252 630.474 67.6986L630.354 67.1386C630.274 66.7786 630.411 66.5419 630.764 66.4286L637.694 64.3286C637.779 64.3033 637.857 64.2597 637.923 64.2008C637.989 64.1418 638.041 64.069 638.076 63.9872C638.112 63.9054 638.129 63.8167 638.127 63.7272C638.124 63.6376 638.103 63.5494 638.064 63.4686Z" fill="#5C6068"/>
<path d="M639.255 79.2083L634.015 79.6583C633.635 79.6916 633.431 79.515 633.405 79.1283C633.398 79.0083 633.395 78.885 633.395 78.7583C633.395 78.525 633.511 78.3916 633.745 78.3583C636.685 77.905 639.058 77.6083 640.865 77.4683C643.945 77.235 644.225 78.0083 641.705 79.7883L637.465 82.7983C637.412 82.8369 637.374 82.8921 637.356 82.9552C637.339 83.0182 637.343 83.0852 637.369 83.1454C637.394 83.2056 637.439 83.2555 637.496 83.2869C637.554 83.3182 637.62 83.3293 637.685 83.3183C639.278 83.025 640.835 82.6016 642.355 82.0483C642.481 82.0024 642.616 81.9839 642.75 81.9939C642.884 82.004 643.014 82.0425 643.133 82.1068C643.251 82.171 643.354 82.2597 643.435 82.3668C643.517 82.474 643.574 82.5972 643.605 82.7283L643.705 83.1883C643.805 83.6216 643.635 83.865 643.195 83.9183L634.905 84.9183C634.578 84.9583 634.318 84.845 634.125 84.5783C633.651 83.9316 633.761 83.405 634.455 82.9983C636.188 81.9916 637.841 80.8583 639.415 79.5983C639.788 79.2983 639.735 79.1683 639.255 79.2083Z" fill="#5C6068"/>
<path d="M640.023 95.4285L639.863 99.2385C639.862 99.2753 639.853 99.3115 639.838 99.345C639.822 99.3784 639.801 99.4086 639.774 99.4337C639.747 99.4587 639.715 99.4783 639.681 99.4911C639.646 99.5039 639.61 99.5099 639.573 99.5085L638.623 99.4585C638.585 99.4561 638.548 99.446 638.515 99.4289C638.481 99.4118 638.451 99.388 638.427 99.3591C638.402 99.3301 638.384 99.2965 638.373 99.2603C638.362 99.2242 638.359 99.1861 638.363 99.1485L638.743 95.2885C638.747 95.2493 638.743 95.2097 638.731 95.1722C638.719 95.1346 638.699 95.1001 638.672 95.0709C638.646 95.0416 638.613 95.0182 638.577 95.0023C638.541 94.9864 638.502 94.9783 638.463 94.9785L635.863 94.9585C635.826 94.9572 635.789 94.9631 635.755 94.976C635.72 94.9888 635.689 95.0084 635.662 95.0334C635.635 95.0585 635.613 95.0886 635.598 95.1221C635.583 95.1556 635.574 95.1918 635.573 95.2285L635.353 99.1685C635.349 99.2314 635.325 99.2913 635.283 99.3385C635.241 99.3857 635.185 99.4174 635.123 99.4285L634.463 99.5385C634.422 99.5459 634.38 99.5442 634.34 99.5335C634.3 99.5228 634.263 99.5033 634.232 99.4766C634.2 99.4498 634.175 99.4163 634.158 99.3786C634.141 99.3409 634.132 99.2999 634.133 99.2585L634.223 93.5985C634.223 93.5609 634.23 93.5237 634.245 93.489C634.26 93.4544 634.281 93.4231 634.308 93.3969C634.335 93.3708 634.367 93.3504 634.403 93.3369C634.438 93.3234 634.475 93.3172 634.513 93.3185L643.973 93.7885C644.01 93.7898 644.046 93.7984 644.079 93.8136C644.113 93.8289 644.143 93.8506 644.168 93.8776C644.193 93.9045 644.213 93.9361 644.225 93.9706C644.238 94.0051 644.244 94.0418 644.243 94.0785L643.853 99.7885C643.85 99.8263 643.84 99.8631 643.823 99.8968C643.806 99.9306 643.782 99.9605 643.753 99.9848C643.724 100.009 643.691 100.027 643.655 100.038C643.618 100.049 643.58 100.053 643.543 100.049L642.743 99.9485C642.67 99.9409 642.604 99.9053 642.557 99.8493C642.51 99.7933 642.487 99.7213 642.493 99.6485L642.793 95.7385C642.798 95.6658 642.775 95.5938 642.729 95.5378C642.682 95.4817 642.615 95.4461 642.543 95.4385L640.333 95.1685C640.295 95.1644 640.257 95.1679 640.221 95.1789C640.185 95.1899 640.151 95.208 640.122 95.2323C640.093 95.2566 640.07 95.2865 640.052 95.3203C640.035 95.354 640.025 95.3908 640.023 95.4285Z" fill="#5C6068"/>
<path d="M635.935 109.608C634.941 109.528 633.991 109.278 633.085 108.858C633 108.817 632.925 108.758 632.864 108.684C632.804 108.609 632.76 108.522 632.735 108.428C632.675 108.188 632.698 107.982 632.805 107.808C632.965 107.542 633.195 107.442 633.495 107.508L641.995 109.348C642.395 109.435 642.588 109.685 642.575 110.098C642.395 113.858 639.915 118.138 635.995 113.678C635.628 113.265 635.198 113.185 634.705 113.438C633.885 113.858 633.068 114.002 632.255 113.868C631.261 113.702 631.191 113.345 632.045 112.798C632.971 112.212 634.101 111.758 635.435 111.438C635.868 111.338 636.158 111.175 636.305 110.948C636.451 110.722 636.511 110.455 636.485 110.148C636.471 110.008 636.408 109.877 636.308 109.778C636.207 109.68 636.075 109.619 635.935 109.608ZM640.654 111.832C640.683 111.685 640.682 111.534 640.652 111.387C640.622 111.241 640.564 111.101 640.48 110.977C640.396 110.853 640.289 110.747 640.164 110.664C640.039 110.581 639.9 110.524 639.753 110.496L638.869 110.324C638.722 110.295 638.571 110.296 638.424 110.326C638.278 110.356 638.138 110.414 638.014 110.498C637.89 110.582 637.784 110.689 637.701 110.814C637.618 110.939 637.561 111.078 637.533 111.225L637.315 112.344C637.287 112.491 637.287 112.642 637.317 112.789C637.347 112.936 637.405 113.075 637.489 113.199C637.573 113.323 637.68 113.43 637.805 113.513C637.93 113.595 638.07 113.652 638.217 113.681L639.1 113.853C639.247 113.881 639.398 113.881 639.545 113.851C639.691 113.821 639.831 113.762 639.955 113.679C640.079 113.595 640.186 113.488 640.268 113.363C640.351 113.238 640.408 113.098 640.437 112.951L640.654 111.832Z" fill="#5C6068"/>
</svg>
